<?xml version="1.0" standalone="no"?>
<!DOCTYPE svg PUBLIC "-//W3C//DTD SVG 20010904//EN"
 "http://www.w3.org/TR/2001/REC-SVG-20010904/DTD/svg10.dtd">
<svg version="1.0" xmlns="http://www.w3.org/2000/svg"
 width="1300.000000pt" height="953.000000pt" viewBox="0 0 1300.000000 953.000000"
 preserveAspectRatio="xMidYMid meet">

<g transform="translate(0.000000,953.000000) scale(0.100000,-0.100000)"
fill="#000000" stroke="none">
<path d="M11623 9255 c0 -38 2 -53 4 -32 2 20 2 52 0 70 -2 17 -4 1 -4 -38z"/>
<path d="M10670 9288 c1 -7 12 -26 26 -43 18 -20 22 -23 15 -8 -6 12 -16 25
-21 28 -19 12 -10 24 23 28 31 4 31 4 -5 5 -25 1 -38 -2 -38 -10z"/>
<path d="M10798 9282 c9 -10 19 -14 21 -9 2 5 -3 13 -10 18 -24 15 -30 10 -11
-9z"/>
<path d="M10852 9288 c-7 -7 -12 -19 -12 -29 0 -12 7 -15 28 -12 26 4 26 4 8
-11 -11 -9 -15 -16 -10 -16 12 0 34 21 34 32 0 4 -11 8 -25 8 -26 0 -33 14
-15 25 6 4 19 1 28 -7 15 -12 16 -11 3 5 -16 20 -23 21 -39 5z"/>
<path d="M10923 9260 c0 -25 2 -35 4 -22 2 12 2 32 0 45 -2 12 -4 2 -4 -23z"/>
<path d="M10971 9273 c0 -19 -8 -36 -18 -42 -10 -6 -13 -11 -7 -11 20 0 36 28
31 57 -4 27 -4 27 -6 -4z"/>
<path d="M11012 9288 c-21 -21 -14 -38 16 -38 26 -1 26 -1 8 -15 -11 -8 -15
-15 -10 -15 12 0 34 21 34 32 0 4 -12 8 -26 8 -16 0 -24 5 -21 13 2 6 11 11
20 11 9 -1 14 2 11 7 -7 12 -18 11 -32 -3z"/>
<path d="M11083 9245 c0 -33 2 -45 4 -27 4 34 5 34 26 15 18 -15 19 -15 8 -1
-7 9 -10 22 -6 27 3 6 0 8 -9 5 -9 -4 -16 2 -19 18 -2 13 -4 -4 -4 -37z"/>
<path d="M11283 9285 c-3 -9 -3 -19 1 -22 3 -4 6 1 6 10 0 8 6 18 13 20 9 4 9
6 -1 6 -7 1 -15 -6 -19 -14z"/>
<path d="M11366 9291 c-3 -5 3 -7 14 -4 26 7 26 -13 0 -27 -11 -6 -20 -15 -20
-21 0 -15 30 -23 42 -11 8 8 5 9 -11 5 -27 -7 -28 13 0 22 12 4 19 14 17 23
-4 19 -33 28 -42 13z"/>
<path d="M11440 9296 c0 -2 9 -6 20 -9 11 -3 18 -1 14 4 -5 9 -34 13 -34 5z"/>
<path d="M11513 9245 c0 -33 2 -45 4 -27 4 34 5 34 26 15 18 -15 19 -15 8 -1
-7 9 -10 22 -6 27 3 6 0 8 -9 5 -9 -4 -16 2 -19 18 -2 13 -4 -4 -4 -37z"/>
<path d="M11692 9248 c3 -45 6 -53 23 -54 15 -1 16 0 3 3 -14 3 -18 15 -18 50
l0 46 33 -7 c23 -4 28 -3 17 4 -8 5 -25 10 -38 10 -22 0 -23 -3 -20 -52z"/>
<path d="M11793 9260 c0 -25 2 -35 4 -22 2 12 2 32 0 45 -2 12 -4 2 -4 -23z"/>
<path d="M11853 9293 c-7 -2 -13 -9 -13 -15 0 -6 6 -6 15 2 8 6 20 8 26 4 8
-4 9 -3 5 4 -8 13 -13 14 -33 5z"/>
<path d="M11923 9285 c-3 -9 -3 -19 1 -22 3 -4 6 1 6 10 0 8 6 18 13 20 9 4 9
6 -1 6 -7 1 -15 -6 -19 -14z"/>
<path d="M12001 9263 c-1 -39 1 -41 24 -38 14 1 29 5 32 9 4 3 -4 5 -17 4 -21
-3 -26 2 -31 32 l-6 35 -2 -42z"/>
<path d="M12091 9268 c0 -20 -7 -39 -13 -41 -10 -4 -10 -6 0 -6 17 -1 24 21
19 56 -3 24 -4 23 -6 -9z"/>
<path d="M12126 9291 c-4 -5 3 -7 16 -3 17 4 20 2 15 -11 -4 -10 -2 -17 4 -17
6 0 9 8 7 17 -4 20 -33 29 -42 14z"/>
<path d="M12233 9260 c0 -25 2 -35 4 -22 2 12 2 32 0 45 -2 12 -4 2 -4 -23z"/>
<path d="M12260 9265 c0 -19 4 -35 8 -35 4 0 6 16 4 35 -2 19 -6 35 -8 35 -2
0 -4 -16 -4 -35z"/>
<path d="M12351 9268 c0 -20 -7 -39 -13 -41 -10 -4 -10 -6 0 -6 17 -1 24 21
19 56 -3 24 -4 23 -6 -9z"/>
<path d="M12401 9297 c2 -1 13 -9 24 -17 19 -14 19 -14 6 3 -7 9 -18 17 -24
17 -6 0 -8 -1 -6 -3z"/>
<path d="M12509 9283 c-13 -16 -12 -17 4 -4 14 11 20 11 35 0 15 -13 16 -12 3
4 -7 9 -17 17 -21 17 -4 0 -14 -8 -21 -17z"/>
<path d="M12593 9293 c-18 -7 -16 -60 2 -67 21 -8 45 3 45 22 0 13 -2 13 -13
-3 -16 -21 -37 -13 -37 15 0 25 17 35 35 20 9 -7 15 -8 15 -2 0 8 -26 25 -33
21 -1 0 -8 -3 -14 -6z"/>
<path d="M12663 9265 c0 -22 2 -30 4 -17 2 12 2 30 0 40 -3 9 -5 -1 -4 -23z"/>
<path d="M11251 9273 c-1 -12 -9 -24 -18 -26 -17 -4 -17 -5 0 -6 19 -1 32 21
24 41 -3 7 -6 3 -6 -9z"/>
<path d="M12752 9265 c0 -16 2 -22 5 -12 2 9 2 23 0 30 -3 6 -5 -1 -5 -18z"/>
<path d="M11431 9264 c-1 -18 4 -21 27 -17 26 4 26 4 8 -11 -11 -9 -15 -16
-10 -16 12 0 34 21 34 32 0 4 -11 8 -24 8 -13 0 -27 6 -29 13 -3 6 -6 2 -6 -9z"/>
<path d="M12381 9264 c-1 -18 4 -21 27 -17 26 4 26 4 8 -11 -11 -9 -15 -16
-10 -16 12 0 34 21 34 32 0 4 -11 8 -24 8 -13 0 -27 6 -29 13 -3 6 -6 2 -6 -9z"/>
<path d="M11759 9238 c-3 -22 -1 -34 4 -29 5 5 7 21 5 37 -3 27 -4 26 -9 -8z"/>
<path d="M10760 9253 c0 -15 22 -30 43 -30 9 0 17 7 17 15 0 12 -3 12 -16 1
-14 -11 -18 -10 -30 6 -8 10 -14 14 -14 8z"/>
<path d="M11320 9248 c0 -9 -6 -19 -12 -21 -10 -4 -10 -6 0 -6 14 -1 28 26 18
36 -3 4 -6 -1 -6 -9z"/>
<path d="M11841 9243 c0 -11 3 -13 6 -5 2 6 14 12 26 12 22 -1 22 -1 3 -15
-11 -8 -15 -15 -10 -15 12 0 34 21 34 32 0 4 -13 8 -30 8 -22 0 -30 -5 -29
-17z"/>
<path d="M12120 9245 c0 -8 2 -15 4 -15 2 0 6 7 10 15 3 8 1 15 -4 15 -6 0
-10 -7 -10 -15z"/>
<path d="M12501 9244 c0 -11 3 -14 6 -6 3 7 2 16 -1 19 -3 4 -6 -2 -5 -13z"/>
<path d="M12706 9252 c2 -3 -1 -11 -7 -19 -8 -9 -8 -13 -1 -13 16 0 26 20 15
30 -6 4 -8 5 -7 2z"/>
<path d="M11195 9230 c-8 -13 13 -40 30 -40 7 0 19 8 26 18 13 15 12 16 -3 3
-22 -16 -52 -7 -44 14 6 17 0 20 -9 5z"/>
<path d="M11950 9230 c-9 -6 -10 -10 -3 -10 6 0 15 5 18 10 8 12 4 12 -15 0z"/>
<path d="M12150 9230 c-9 -6 -10 -10 -3 -10 6 0 15 5 18 10 8 12 4 12 -15 0z"/>
<path d="M12295 9230 c-3 -5 -2 -10 4 -10 5 0 13 5 16 10 3 6 2 10 -4 10 -5 0
-13 -4 -16 -10z"/>
<path d="M12188 9223 c6 -2 18 -2 25 0 6 3 1 5 -13 5 -14 0 -19 -2 -12 -5z"/>
<path d="M12528 9223 c7 -3 16 -2 19 1 4 3 -2 6 -13 5 -11 0 -14 -3 -6 -6z"/>
<path d="M10695 9200 c-30 -8 -30 -8 8 -9 20 0 37 4 37 9 0 11 -2 11 -45 0z"/>
<path d="M990 9120 l0 -80 48 0 c61 0 92 25 92 76 0 52 -36 84 -95 84 l-45 0
0 -80z m100 29 c16 -30 4 -68 -26 -79 -41 -16 -44 -13 -44 45 0 54 0 55 30 55
20 0 33 -7 40 -21z"/>
<path d="M1160 9140 c0 -33 4 -60 10 -60 6 0 10 5 10 12 0 9 3 9 12 0 17 -17
38 -15 38 3 0 8 -7 15 -15 15 -18 0 -35 31 -35 64 0 14 -4 26 -10 26 -6 0 -10
-27 -10 -60z"/>
<path d="M1258 9189 c-19 -10 -24 -63 -10 -86 4 -7 22 -15 39 -19 25 -5 34 -2
47 17 27 39 21 49 -31 49 -44 0 -46 1 -31 17 14 14 22 15 43 5 20 -9 25 -9 25
2 0 25 -50 34 -82 15z m62 -69 c0 -19 -31 -23 -48 -6 -15 15 -14 16 16 16 18
0 32 -5 32 -10z"/>
<path d="M1376 9193 c-3 -4 -6 -16 -6 -29 0 -17 8 -24 36 -31 19 -4 36 -12 37
-18 3 -15 -34 -19 -43 -5 -4 7 -13 11 -20 8 -20 -6 17 -38 45 -38 36 0 55 26
55 74 l0 43 -49 1 c-27 0 -52 -2 -55 -5z m67 -27 c7 -19 0 -25 -24 -19 -10 3
-19 12 -19 19 0 18 36 18 43 0z"/>
<path d="M1508 9141 l-3 -58 42 1 c23 0 45 4 49 8 4 4 13 3 20 -3 19 -16 64
-2 65 19 4 68 3 86 -9 90 -8 2 -12 -9 -12 -35 0 -42 -14 -65 -36 -56 -9 3 -14
21 -14 49 0 32 -4 44 -15 44 -11 0 -15 -12 -15 -44 0 -25 -5 -48 -12 -52 -16
-10 -38 25 -38 63 0 57 -18 36 -22 -26z"/>
<path d="M1722 9188 c-16 -16 -15 -28 3 -28 8 0 15 5 15 10 0 6 9 10 20 10 31
0 23 -18 -15 -34 -39 -17 -45 -40 -16 -56 27 -14 44 -13 67 5 18 14 16 15 -18
9 -49 -8 -50 10 -3 26 27 9 35 17 35 35 0 34 -61 50 -88 23z"/>
<path d="M1850 9157 c0 -24 -6 -49 -12 -56 -10 -11 -10 -14 0 -18 6 -3 12 -11
12 -20 0 -8 6 -13 13 -10 6 2 11 10 10 16 -2 6 4 11 12 11 8 0 15 4 15 9 0 5
-7 11 -15 15 -8 3 -15 16 -15 30 0 14 7 31 15 40 21 20 19 26 -10 26 -23 0
-25 -4 -25 -43z"/>
<path d="M1920 9140 c0 -47 3 -60 15 -60 12 0 15 13 15 60 0 47 -3 60 -15 60
-12 0 -15 -13 -15 -60z"/>
<path d="M1980 9142 l0 -59 45 -1 c25 0 45 4 45 8 0 5 14 3 31 -3 27 -11 32
-10 45 7 20 27 19 106 -1 106 -11 0 -15 -11 -15 -37 0 -21 -4 -44 -9 -52 -16
-25 -41 6 -41 50 0 27 -4 39 -14 39 -11 0 -16 -14 -18 -47 -2 -35 -7 -48 -18
-48 -11 0 -16 13 -18 48 -2 33 -7 47 -18 47 -11 0 -14 -14 -14 -58z"/>
<path d="M2197 9182 c-23 -25 -21 -58 3 -82 25 -25 52 -26 73 -2 30 33 22 52
-24 52 -28 0 -39 4 -36 13 2 7 19 11 42 10 32 -2 35 -1 25 12 -17 21 -64 19
-83 -3z m61 -64 c-3 -7 -13 -13 -23 -13 -10 0 -20 6 -22 13 -3 7 5 12 22 12
17 0 25 -5 23 -12z"/>
<path d="M2320 9185 c0 -8 7 -15 15 -15 8 0 15 7 15 15 0 8 -7 15 -15 15 -8 0
-15 -7 -15 -15z"/>
<path d="M2397 9182 c-49 -54 20 -131 79 -88 26 19 10 33 -20 17 -31 -17 -46
-7 -46 29 0 36 15 46 46 29 28 -15 42 -6 24 16 -17 21 -63 19 -83 -3z"/>
<path d="M2524 9174 c-37 -55 25 -117 80 -80 18 11 26 25 26 45 0 59 -75 84
-106 35z m74 -22 c4 -26 -13 -52 -34 -52 -16 0 -29 43 -20 66 9 24 50 14 54
-14z"/>
<path d="M2660 9142 l0 -58 39 0 c22 1 42 4 46 8 4 4 18 2 30 -4 41 -19 55 -5
55 57 0 30 -4 55 -10 55 -5 0 -10 -17 -10 -39 0 -39 -20 -68 -40 -56 -5 3 -10
26 -10 51 0 32 -4 44 -15 44 -11 0 -15 -12 -15 -44 0 -76 -37 -73 -47 3 -8 61
-23 50 -23 -17z"/>
<path d="M1920 9050 c0 -5 7 -10 15 -10 8 0 15 5 15 10 0 6 -7 10 -15 10 -8 0
-15 -4 -15 -10z"/>
<path d="M10863 8939 c19 -11 24 -39 6 -39 -5 0 -7 -5 -3 -12 5 -8 11 -5 17
10 10 23 -5 52 -27 52 -6 0 -3 -5 7 -11z"/>
<path d="M10917 8943 c-3 -5 -5 -25 -5 -45 0 -43 22 -69 41 -49 9 10 8 11 -5
6 -12 -5 -20 -1 -24 9 -9 23 3 32 24 20 15 -9 17 -7 19 20 2 29 -10 46 -34 46
-6 0 -14 -3 -16 -7z m38 -23 c0 -22 -29 -18 -33 3 -3 14 1 18 15 15 10 -2 18
-10 18 -18z"/>
<path d="M10995 8939 c-4 -6 -4 -13 -1 -16 3 -4 6 -1 6 5 0 15 27 15 36 0 4
-6 -1 -17 -10 -23 -14 -11 -14 -14 -2 -18 18 -7 29 32 14 50 -13 16 -34 17
-43 2z"/>
<path d="M11157 8943 c-3 -5 5 -8 18 -8 13 0 21 3 18 8 -2 4 -10 7 -18 7 -8 0
-16 -3 -18 -7z"/>
<path d="M11250 8946 c0 -2 7 -7 16 -10 8 -3 12 -2 9 4 -6 10 -25 14 -25 6z"/>
<path d="M11330 8946 c0 -2 7 -7 16 -10 8 -3 12 -2 9 4 -6 10 -25 14 -25 6z"/>
<path d="M10700 8906 c0 -19 -4 -36 -9 -38 -5 -1 -3 -9 5 -16 12 -11 14 -5 14
38 0 27 -2 50 -5 50 -3 0 -5 -15 -5 -34z"/>
<path d="M10780 8906 c0 -19 -5 -36 -11 -38 -7 -2 -5 -9 5 -17 14 -12 16 -8
16 38 0 28 -2 51 -5 51 -3 0 -5 -15 -5 -34z"/>
<path d="M11232 8915 c0 -16 2 -22 5 -12 2 9 2 23 0 30 -3 6 -5 -1 -5 -18z"/>
<path d="M1174 8920 c-52 -21 -32 -110 24 -110 37 0 52 17 52 56 0 23 -7 38
-22 48 -25 18 -25 18 -54 6z m56 -35 c12 -31 4 -52 -21 -60 -25 -8 -49 11 -49
39 0 47 54 63 70 21z"/>
<path d="M1659 8916 c-27 -13 -36 -54 -19 -86 23 -42 100 -16 100 34 0 45 -41
72 -81 52z m59 -42 c4 -36 -18 -59 -48 -49 -15 5 -20 15 -20 39 0 40 7 48 40
44 20 -2 26 -9 28 -34z"/>
<path d="M1774 8916 c-25 -19 -8 -49 32 -56 17 -3 29 -12 29 -20 0 -19 -35
-26 -46 -9 -4 7 -11 10 -14 7 -14 -14 7 -28 40 -28 37 0 38 1 49 83 4 33 3 36
-13 28 -10 -6 -23 -6 -32 0 -19 12 -22 11 -45 -5z m64 -29 c3 -15 -2 -18 -25
-15 -17 2 -29 10 -31 21 -3 15 2 18 25 15 17 -2 29 -10 31 -21z"/>
<path d="M1913 8918 c-23 -11 -27 -24 -23 -63 3 -34 21 -47 56 -42 30 5 33 3
37 -21 4 -27 5 -19 10 90 2 27 -2 36 -13 36 -8 0 -22 2 -30 5 -8 3 -25 1 -37
-5z m58 -29 c15 -29 -3 -69 -31 -69 -28 0 -46 40 -31 69 7 11 20 21 31 21 11
0 24 -10 31 -21z"/>
<path d="M2252 8915 c-25 -18 -31 -72 -10 -93 21 -21 66 -14 84 13 14 21 14
30 4 55 -7 17 -16 30 -20 30 -5 0 -14 2 -22 5 -7 3 -23 -2 -36 -10z m56 -17
c7 -7 12 -21 12 -33 0 -46 -53 -62 -71 -21 -21 45 26 87 59 54z"/>
<path d="M990 8845 l0 -75 48 0 c59 0 82 20 82 73 0 52 -28 77 -85 77 l-45 0
0 -75z m92 48 c21 -19 25 -82 6 -101 -7 -7 -27 -12 -45 -12 l-33 0 0 65 c0 64
1 65 27 65 14 0 35 -7 45 -17z"/>
<path d="M1288 8865 c-19 -67 -7 -73 14 -7 l15 47 13 -48 c15 -57 31 -56 45 4
12 48 19 44 30 -14 4 -20 12 -37 17 -37 6 0 8 6 5 14 -3 8 -11 33 -17 55 -14
53 -36 53 -45 1 -8 -47 -20 -45 -29 5 -10 51 -31 43 -48 -20z"/>
<path d="M1462 8869 l-2 -56 43 1 42 1 3 55 c4 62 -3 65 -12 5 -4 -22 -11 -44
-17 -50 -18 -18 -44 10 -50 56 l-6 44 -1 -56z"/>
<path d="M1588 8865 c-1 -30 0 -65 4 -77 3 -13 6 12 7 55 1 89 -6 103 -11 22z"/>
<path d="M2102 8873 c-1 -30 -7 -53 -14 -56 -10 -4 -10 -6 0 -6 6 -1 12 -10
12 -20 0 -10 7 -22 16 -25 25 -10 30 2 8 18 -18 14 -18 15 -1 21 15 6 16 9 3
19 -8 6 -17 31 -19 56 l-4 45 -1 -52z"/>
<path d="M2161 8870 l-1 -55 33 -2 32 -2 -22 17 c-12 9 -27 35 -32 57 l-9 40
-1 -55z"/>
<path d="M2360 8867 l0 -54 78 0 c46 0 80 4 84 11 11 16 10 96 -1 96 -6 0 -11
-21 -13 -47 -2 -25 -7 -48 -13 -50 -21 -6 -39 17 -45 59 l-7 43 -2 -48 c-2
-79 -61 -75 -61 4 0 22 -4 39 -10 39 -5 0 -10 -24 -10 -53z"/>
<path d="M11201 8914 c0 -6 -11 -10 -23 -10 -18 1 -23 -5 -24 -27 -1 -25 -1
-25 3 -2 5 28 30 34 40 9 4 -11 -1 -22 -12 -30 -10 -8 -14 -14 -8 -14 19 0 35
28 30 57 -2 15 -5 23 -6 17z"/>
<path d="M11281 8893 c0 -19 -8 -36 -18 -42 -10 -6 -13 -11 -7 -11 20 0 36 28
31 57 -4 27 -4 27 -6 -4z"/>
<path d="M11360 8912 c0 -5 -10 -8 -22 -8 -18 1 -23 -5 -24 -27 -1 -25 -1 -25
3 -2 5 29 27 33 42 8 9 -15 10 -14 11 10 0 15 -2 27 -5 27 -3 0 -5 -4 -5 -8z"/>
<path d="M11231 8864 c0 -11 3 -14 6 -6 3 7 2 16 -1 19 -3 4 -6 -2 -5 -13z"/>
<path d="M10860 8850 c-9 -6 -10 -10 -3 -10 6 0 15 5 18 10 8 12 4 12 -15 0z"/>
<path d="M11020 8850 c-9 -6 -10 -10 -3 -10 6 0 15 5 18 10 8 12 4 12 -15 0z"/>
<path d="M11095 8850 l-30 -8 33 -1 c17 0 32 4 32 9 0 6 -1 9 -2 9 -2 -1 -16
-5 -33 -9z"/>
<path d="M11340 8850 c-9 -6 -10 -10 -3 -10 6 0 15 5 18 10 8 12 4 12 -15 0z"/>
<path d="M43 8653 c9 -2 25 -2 35 0 9 3 1 5 -18 5 -19 0 -27 -2 -17 -5z"/>
<path d="M153 8653 c9 -2 23 -2 30 0 6 3 -1 5 -18 5 -16 0 -22 -2 -12 -5z"/>
<path d="M883 8653 c9 -2 23 -2 30 0 6 3 -1 5 -18 5 -16 0 -22 -2 -12 -5z"/>
<path d="M1003 8653 c9 -2 25 -2 35 0 9 3 1 5 -18 5 -19 0 -27 -2 -17 -5z"/>
<path d="M1123 8653 c9 -2 23 -2 30 0 6 3 -1 5 -18 5 -16 0 -22 -2 -12 -5z"/>
<path d="M1243 8653 c9 -2 25 -2 35 0 9 3 1 5 -18 5 -19 0 -27 -2 -17 -5z"/>
<path d="M1353 8653 c9 -2 25 -2 35 0 9 3 1 5 -18 5 -19 0 -27 -2 -17 -5z"/>
<path d="M1483 8653 c9 -2 25 -2 35 0 9 3 1 5 -18 5 -19 0 -27 -2 -17 -5z"/>
<path d="M1593 8653 c9 -2 25 -2 35 0 9 3 1 5 -18 5 -19 0 -27 -2 -17 -5z"/>
<path d="M1723 8653 c9 -2 25 -2 35 0 9 3 1 5 -18 5 -19 0 -27 -2 -17 -5z"/>
<path d="M1833 8653 c9 -2 25 -2 35 0 9 3 1 5 -18 5 -19 0 -27 -2 -17 -5z"/>
<path d="M1963 8653 c9 -2 25 -2 35 0 9 3 1 5 -18 5 -19 0 -27 -2 -17 -5z"/>
<path d="M2073 8653 c9 -2 25 -2 35 0 9 3 1 5 -18 5 -19 0 -27 -2 -17 -5z"/>
<path d="M2203 8653 c9 -2 25 -2 35 0 9 3 1 5 -18 5 -19 0 -27 -2 -17 -5z"/>
<path d="M2313 8653 c9 -2 25 -2 35 0 9 3 1 5 -18 5 -19 0 -27 -2 -17 -5z"/>
<path d="M2443 8653 c9 -2 25 -2 35 0 9 3 1 5 -18 5 -19 0 -27 -2 -17 -5z"/>
<path d="M2553 8653 c9 -2 25 -2 35 0 9 3 1 5 -18 5 -19 0 -27 -2 -17 -5z"/>
<path d="M2683 8653 c9 -2 25 -2 35 0 9 3 1 5 -18 5 -19 0 -27 -2 -17 -5z"/>
<path d="M2793 8653 c9 -2 25 -2 35 0 9 3 1 5 -18 5 -19 0 -27 -2 -17 -5z"/>
<path d="M2923 8653 c9 -2 25 -2 35 0 9 3 1 5 -18 5 -19 0 -27 -2 -17 -5z"/>
<path d="M3033 8653 c9 -2 25 -2 35 0 9 3 1 5 -18 5 -19 0 -27 -2 -17 -5z"/>
<path d="M3163 8653 c9 -2 25 -2 35 0 9 3 1 5 -18 5 -19 0 -27 -2 -17 -5z"/>
<path d="M3273 8653 c9 -2 25 -2 35 0 9 3 1 5 -18 5 -19 0 -27 -2 -17 -5z"/>
<path d="M3403 8653 c9 -2 25 -2 35 0 9 3 1 5 -18 5 -19 0 -27 -2 -17 -5z"/>
<path d="M3513 8653 c9 -2 25 -2 35 0 9 3 1 5 -18 5 -19 0 -27 -2 -17 -5z"/>
<path d="M3643 8653 c9 -2 25 -2 35 0 9 3 1 5 -18 5 -19 0 -27 -2 -17 -5z"/>
<path d="M3753 8653 c9 -2 25 -2 35 0 9 3 1 5 -18 5 -19 0 -27 -2 -17 -5z"/>
<path d="M3883 8653 c9 -2 25 -2 35 0 9 3 1 5 -18 5 -19 0 -27 -2 -17 -5z"/>
<path d="M3993 8653 c9 -2 25 -2 35 0 9 3 1 5 -18 5 -19 0 -27 -2 -17 -5z"/>
<path d="M4123 8653 c9 -2 25 -2 35 0 9 3 1 5 -18 5 -19 0 -27 -2 -17 -5z"/>
<path d="M4233 8653 c9 -2 25 -2 35 0 9 3 1 5 -18 5 -19 0 -27 -2 -17 -5z"/>
<path d="M4363 8653 c9 -2 25 -2 35 0 9 3 1 5 -18 5 -19 0 -27 -2 -17 -5z"/>
<path d="M4473 8653 c9 -2 25 -2 35 0 9 3 1 5 -18 5 -19 0 -27 -2 -17 -5z"/>
<path d="M4603 8653 c9 -2 25 -2 35 0 9 3 1 5 -18 5 -19 0 -27 -2 -17 -5z"/>
<path d="M4713 8653 c9 -2 25 -2 35 0 9 3 1 5 -18 5 -19 0 -27 -2 -17 -5z"/>
<path d="M4843 8653 c9 -2 25 -2 35 0 9 3 1 5 -18 5 -19 0 -27 -2 -17 -5z"/>
<path d="M4953 8653 c9 -2 25 -2 35 0 9 3 1 5 -18 5 -19 0 -27 -2 -17 -5z"/>
<path d="M5083 8653 c9 -2 25 -2 35 0 9 3 1 5 -18 5 -19 0 -27 -2 -17 -5z"/>
<path d="M5193 8653 c9 -2 25 -2 35 0 9 3 1 5 -18 5 -19 0 -27 -2 -17 -5z"/>
<path d="M5323 8653 c9 -2 25 -2 35 0 9 3 1 5 -18 5 -19 0 -27 -2 -17 -5z"/>
<path d="M5433 8653 c9 -2 25 -2 35 0 9 3 1 5 -18 5 -19 0 -27 -2 -17 -5z"/>
<path d="M5563 8653 c9 -2 25 -2 35 0 9 3 1 5 -18 5 -19 0 -27 -2 -17 -5z"/>
<path d="M5673 8653 c9 -2 25 -2 35 0 9 3 1 5 -18 5 -19 0 -27 -2 -17 -5z"/>
<path d="M5803 8653 c9 -2 25 -2 35 0 9 3 1 5 -18 5 -19 0 -27 -2 -17 -5z"/>
<path d="M5913 8653 c9 -2 25 -2 35 0 9 3 1 5 -18 5 -19 0 -27 -2 -17 -5z"/>
<path d="M6043 8653 c9 -2 25 -2 35 0 9 3 1 5 -18 5 -19 0 -27 -2 -17 -5z"/>
<path d="M6153 8653 c9 -2 25 -2 35 0 9 3 1 5 -18 5 -19 0 -27 -2 -17 -5z"/>
<path d="M6283 8653 c9 -2 25 -2 35 0 9 3 1 5 -18 5 -19 0 -27 -2 -17 -5z"/>
<path d="M6393 8653 c9 -2 25 -2 35 0 9 3 1 5 -18 5 -19 0 -27 -2 -17 -5z"/>
<path d="M6523 8653 c9 -2 25 -2 35 0 9 3 1 5 -18 5 -19 0 -27 -2 -17 -5z"/>
<path d="M6633 8653 c9 -2 25 -2 35 0 9 3 1 5 -18 5 -19 0 -27 -2 -17 -5z"/>
<path d="M6763 8653 c9 -2 25 -2 35 0 9 3 1 5 -18 5 -19 0 -27 -2 -17 -5z"/>
<path d="M6873 8653 c9 -2 25 -2 35 0 9 3 1 5 -18 5 -19 0 -27 -2 -17 -5z"/>
<path d="M7003 8653 c9 -2 25 -2 35 0 9 3 1 5 -18 5 -19 0 -27 -2 -17 -5z"/>
<path d="M7113 8653 c9 -2 25 -2 35 0 9 3 1 5 -18 5 -19 0 -27 -2 -17 -5z"/>
<path d="M7243 8653 c9 -2 25 -2 35 0 9 3 1 5 -18 5 -19 0 -27 -2 -17 -5z"/>
<path d="M7353 8653 c9 -2 25 -2 35 0 9 3 1 5 -18 5 -19 0 -27 -2 -17 -5z"/>
<path d="M7483 8653 c9 -2 25 -2 35 0 9 3 1 5 -18 5 -19 0 -27 -2 -17 -5z"/>
<path d="M7593 8653 c9 -2 25 -2 35 0 9 3 1 5 -18 5 -19 0 -27 -2 -17 -5z"/>
<path d="M7723 8653 c9 -2 25 -2 35 0 9 3 1 5 -18 5 -19 0 -27 -2 -17 -5z"/>
<path d="M7833 8653 c9 -2 25 -2 35 0 9 3 1 5 -18 5 -19 0 -27 -2 -17 -5z"/>
<path d="M7963 8653 c9 -2 25 -2 35 0 9 3 1 5 -18 5 -19 0 -27 -2 -17 -5z"/>
<path d="M8073 8653 c9 -2 25 -2 35 0 9 3 1 5 -18 5 -19 0 -27 -2 -17 -5z"/>
<path d="M8203 8653 c9 -2 25 -2 35 0 9 3 1 5 -18 5 -19 0 -27 -2 -17 -5z"/>
<path d="M8323 8653 c9 -2 23 -2 30 0 6 3 -1 5 -18 5 -16 0 -22 -2 -12 -5z"/>
<path d="M8563 8653 c9 -2 25 -2 35 0 9 3 1 5 -18 5 -19 0 -27 -2 -17 -5z"/>
<path d="M8683 8653 c9 -2 25 -2 35 0 9 3 1 5 -18 5 -19 0 -27 -2 -17 -5z"/>
<path d="M8793 8653 c9 -2 25 -2 35 0 9 3 1 5 -18 5 -19 0 -27 -2 -17 -5z"/>
<path d="M8923 8653 c9 -2 25 -2 35 0 9 3 1 5 -18 5 -19 0 -27 -2 -17 -5z"/>
<path d="M9033 8653 c9 -2 25 -2 35 0 9 3 1 5 -18 5 -19 0 -27 -2 -17 -5z"/>
<path d="M9163 8653 c9 -2 25 -2 35 0 9 3 1 5 -18 5 -19 0 -27 -2 -17 -5z"/>
<path d="M9273 8653 c9 -2 25 -2 35 0 9 3 1 5 -18 5 -19 0 -27 -2 -17 -5z"/>
<path d="M9403 8653 c9 -2 25 -2 35 0 9 3 1 5 -18 5 -19 0 -27 -2 -17 -5z"/>
<path d="M9513 8653 c9 -2 25 -2 35 0 9 3 1 5 -18 5 -19 0 -27 -2 -17 -5z"/>
<path d="M9643 8653 c9 -2 25 -2 35 0 9 3 1 5 -18 5 -19 0 -27 -2 -17 -5z"/>
<path d="M9753 8653 c9 -2 25 -2 35 0 9 3 1 5 -18 5 -19 0 -27 -2 -17 -5z"/>
<path d="M9883 8653 c9 -2 25 -2 35 0 9 3 1 5 -18 5 -19 0 -27 -2 -17 -5z"/>
<path d="M9993 8653 c9 -2 25 -2 35 0 9 3 1 5 -18 5 -19 0 -27 -2 -17 -5z"/>
<path d="M10123 8653 c9 -2 25 -2 35 0 9 3 1 5 -18 5 -19 0 -27 -2 -17 -5z"/>
<path d="M10233 8653 c9 -2 25 -2 35 0 9 3 1 5 -18 5 -19 0 -27 -2 -17 -5z"/>
<path d="M10363 8653 c9 -2 25 -2 35 0 9 3 1 5 -18 5 -19 0 -27 -2 -17 -5z"/>
<path d="M10473 8653 c9 -2 25 -2 35 0 9 3 1 5 -18 5 -19 0 -27 -2 -17 -5z"/>
<path d="M10603 8653 c9 -2 25 -2 35 0 9 3 1 5 -18 5 -19 0 -27 -2 -17 -5z"/>
<path d="M10713 8653 c9 -2 25 -2 35 0 9 3 1 5 -18 5 -19 0 -27 -2 -17 -5z"/>
<path d="M10843 8653 c9 -2 25 -2 35 0 9 3 1 5 -18 5 -19 0 -27 -2 -17 -5z"/>
<path d="M10953 8653 c9 -2 25 -2 35 0 9 3 1 5 -18 5 -19 0 -27 -2 -17 -5z"/>
<path d="M11083 8653 c9 -2 25 -2 35 0 9 3 1 5 -18 5 -19 0 -27 -2 -17 -5z"/>
<path d="M11193 8653 c9 -2 25 -2 35 0 9 3 1 5 -18 5 -19 0 -27 -2 -17 -5z"/>
<path d="M11323 8653 c9 -2 25 -2 35 0 9 3 1 5 -18 5 -19 0 -27 -2 -17 -5z"/>
<path d="M11433 8653 c9 -2 25 -2 35 0 9 3 1 5 -18 5 -19 0 -27 -2 -17 -5z"/>
<path d="M11563 8653 c9 -2 25 -2 35 0 9 3 1 5 -18 5 -19 0 -27 -2 -17 -5z"/>
<path d="M11673 8653 c9 -2 25 -2 35 0 9 3 1 5 -18 5 -19 0 -27 -2 -17 -5z"/>
<path d="M11803 8653 c9 -2 25 -2 35 0 9 3 1 5 -18 5 -19 0 -27 -2 -17 -5z"/>
<path d="M11913 8653 c9 -2 25 -2 35 0 9 3 1 5 -18 5 -19 0 -27 -2 -17 -5z"/>
<path d="M12043 8653 c9 -2 25 -2 35 0 9 3 1 5 -18 5 -19 0 -27 -2 -17 -5z"/>
<path d="M12153 8653 c9 -2 25 -2 35 0 9 3 1 5 -18 5 -19 0 -27 -2 -17 -5z"/>
<path d="M12283 8653 c9 -2 25 -2 35 0 9 3 1 5 -18 5 -19 0 -27 -2 -17 -5z"/>
<path d="M12393 8653 c9 -2 25 -2 35 0 9 3 1 5 -18 5 -19 0 -27 -2 -17 -5z"/>
<path d="M12523 8653 c9 -2 25 -2 35 0 9 3 1 5 -18 5 -19 0 -27 -2 -17 -5z"/>
<path d="M12633 8653 c9 -2 25 -2 35 0 9 3 1 5 -18 5 -19 0 -27 -2 -17 -5z"/>
<path d="M12763 8653 c9 -2 25 -2 35 0 9 3 1 5 -18 5 -19 0 -27 -2 -17 -5z"/>
<path d="M12873 8653 c9 -2 25 -2 35 0 9 3 1 5 -18 5 -19 0 -27 -2 -17 -5z"/>
<path d="M3247 8633 c1789 -2 4717 -2 6505 0 1789 1 326 2 -3252 2 -3578 0
-5041 -1 -3253 -2z"/>
<path d="M5120 8115 c-976 -31 -1290 -37 -3210 -60 -423 -5 -623 -15 -607 -32
7 -6 1903 15 2367 27 217 6 591 17 830 25 239 8 665 22 945 31 281 9 512 18
514 20 8 7 -436 1 -839 -11z"/>
<path d="M11815 8019 c-104 -9 -918 -27 -1630 -34 -548 -6 -851 -17 -864 -31
-3 -4 68 -4 159 0 91 3 548 11 1015 16 468 5 913 12 990 15 242 10 450 26 460
36 10 10 -8 10 -130 -2z"/>
<path d="M12120 7890 c0 -5 16 -10 36 -10 21 0 33 4 29 10 -3 6 -19 10 -36 10
-16 0 -29 -4 -29 -10z"/>
<path d="M2540 7873 c-63 -1 -320 -9 -570 -18 -250 -9 -546 -17 -657 -18 -139
-2 -206 -6 -214 -14 -22 -22 38 -25 394 -20 1656 28 2860 29 3782 2 1747 -50
1835 -51 3764 -53 899 -1 1636 -3 1638 -5 2 -2 -3 -17 -12 -33 -8 -16 -15 -36
-15 -45 0 -8 -6 -24 -14 -35 -15 -20 -5 -44 20 -44 14 0 20 15 29 85 4 28 12
56 17 63 7 8 44 12 117 12 64 0 100 4 91 9 -20 12 -548 19 -2185 31 -1303 9
-1835 17 -2680 40 -910 24 -1175 31 -1675 40 -467 9 -1493 11 -1830 3z"/>
<path d="M2315 7790 c-5 -8 -12 -40 -15 -70 l-5 -54 -42 -9 c-32 -6 -43 -13
-43 -26 0 -19 54 -52 82 -50 7 0 -2 6 -21 13 -19 7 -37 18 -39 24 -5 15 446
16 793 2 875 -36 1204 -46 1194 -36 -2 2 -233 14 -514 25 -280 12 -571 26
-645 31 -74 6 -265 15 -423 19 -158 5 -290 11 -293 14 -3 2 -8 33 -12 68 -5
47 -10 60 -17 49z"/>
<path d="M10962 7737 c-15 -16 -22 -36 -22 -65 0 -43 17 -92 32 -92 10 0 10 6
-3 73 -11 51 -10 60 6 77 26 28 13 35 -13 7z"/>
<path d="M1112 7740 c-8 -61 -32 -257 -32 -267 0 -7 7 -13 15 -13 20 0 26 48
23 180 -2 63 -5 108 -6 100z"/>
<path d="M2042 7727 c-22 -23 -29 -76 -16 -111 13 -33 24 -14 24 42 0 32 5 63
12 70 6 6 9 14 7 17 -3 3 -15 -5 -27 -18z"/>
<path d="M11340 7730 c10 -19 40 -40 56 -40 4 0 -5 14 -21 30 -33 34 -51 39
-35 10z"/>
<path d="M1502 7715 c-38 -17 -60 -61 -69 -137 -9 -74 18 -60 34 17 14 70 39
106 84 122 30 10 31 12 9 12 -14 0 -40 -6 -58 -14z"/>
<path d="M1754 7716 c-3 -7 -4 -40 -2 -72 2 -44 7 -59 18 -59 12 0 15 13 15
60 0 57 1 61 30 72 l30 11 -43 1 c-27 1 -44 -4 -48 -13z"/>
<path d="M11226 7702 c-8 -14 3 -62 15 -62 11 0 11 41 0 59 -6 9 -11 10 -15 3z"/>
<path d="M1276 7677 c-19 -28 -52 -175 -42 -185 14 -13 35 30 42 87 3 31 12
71 20 89 15 37 2 43 -20 9z"/>
<path d="M5698 7598 c-1 -7 -2 -29 -2 -48 -1 -19 -5 -34 -11 -33 -15 2 -586
32 -835 43 -204 9 -388 11 -345 4 11 -2 256 -15 545 -29 650 -31 637 -29 643
-61 2 -14 2 -26 -2 -28 -3 -2 -341 -4 -751 -4 -740 0 -1025 -8 -1314 -37 -189
-20 -297 -41 -364 -72 -58 -27 -71 -46 -54 -74 17 -26 15 -32 -8 -26 -13 3
-20 0 -20 -8 0 -14 -25 -42 -124 -134 -32 -30 -65 -65 -74 -78 -14 -22 -14
-26 0 -40 14 -14 18 -11 42 23 33 49 33 37 -1 -53 -30 -78 -23 -73 -159 -128
-94 -39 -249 -115 -308 -153 -23 -14 -66 -41 -96 -61 -70 -45 -143 -103 -253
-205 -49 -44 -102 -89 -118 -99 -16 -11 -27 -22 -24 -26 2 -5 -9 -21 -25 -36
-17 -16 -30 -24 -30 -17 0 6 11 19 25 28 30 20 26 31 -5 14 -20 -11 -21 -10
-10 10 6 12 10 23 8 25 -6 5 -181 -148 -274 -240 -135 -133 -222 -277 -288
-477 -41 -122 -61 -233 -76 -418 -6 -74 -18 -163 -26 -198 -8 -35 -14 -82 -14
-105 1 -39 2 -41 15 -23 8 11 15 33 15 49 0 54 17 17 24 -52 4 -37 13 -77 21
-87 13 -17 14 -6 7 91 -10 159 -7 232 16 300 l19 60 1 -260 c0 -143 4 -279 10
-303 9 -36 8 -41 -4 -31 -15 13 -20 -1 -5 -17 16 -16 79 -214 70 -220 -20 -12
-8 -44 18 -50 16 -3 89 -21 163 -39 206 -51 293 -65 399 -64 l96 1 -130 22
c-196 35 -241 46 -261 61 -17 13 -17 14 -2 15 9 0 63 -11 120 -25 111 -27 195
-31 298 -14 77 12 94 24 47 33 l-34 6 34 125 c83 307 172 505 339 755 163 244
325 412 759 787 33 28 57 55 53 59 -28 27 -445 -323 -625 -525 -301 -338 -502
-730 -568 -1106 l-18 -100 -58 3 -59 4 0 156 c0 183 20 366 54 507 71 290 210
613 363 844 75 113 156 221 161 216 2 -2 -1 -18 -7 -36 -13 -37 -15 -148 -3
-133 5 5 16 36 26 69 20 65 52 135 95 202 26 42 51 61 31 24 -15 -28 -12 -61
5 -67 19 -8 45 13 45 36 0 30 60 110 83 110 15 0 18 3 9 8 -32 21 35 71 76 58
16 -5 36 9 91 65 39 40 73 70 76 67 4 -3 -25 -140 -41 -196 -2 -8 -22 -21 -44
-30 -45 -19 -51 -36 -17 -53 12 -6 32 -20 43 -31 18 -16 25 -17 42 -7 29 18
52 5 52 -30 0 -39 26 -54 71 -41 19 6 133 10 254 11 217 0 305 9 220 22 -22 3
-142 9 -267 13 -126 3 -228 10 -228 15 0 5 32 9 72 9 40 0 68 4 62 8 -19 17
-135 42 -172 37 -42 -6 -68 6 -59 28 3 7 38 27 79 42 63 25 91 29 200 33 115
4 132 2 172 -17 24 -12 47 -29 50 -37 5 -14 -1 -18 -62 -39 -19 -7 -26 -34
-12 -50 16 -19 43 -19 80 0 24 13 30 22 30 49 0 67 -67 118 -170 130 -66 8
-221 -8 -280 -29 -24 -8 -45 -13 -47 -11 -12 11 138 316 156 316 11 0 168
-222 172 -243 5 -25 23 -26 27 -2 1 11 -18 49 -43 85 -114 163 -125 182 -115
200 5 10 28 33 50 50 l41 32 108 -113 c59 -63 121 -129 136 -147 15 -18 30
-31 32 -28 8 8 -35 65 -107 141 -36 39 -83 91 -104 118 -42 52 -41 58 17 99
27 19 30 20 39 5 12 -23 217 -207 229 -207 6 0 -44 59 -110 131 -67 72 -121
136 -121 141 0 7 5 7 13 1 32 -25 107 -63 107 -55 0 11 -106 76 -139 87 -20 6
-26 -1 -22 -32 1 -10 -68 -63 -83 -63 -2 0 -2 9 1 20 3 11 34 46 68 79 60 56
66 59 127 64 131 13 206 3 133 -16 -11 -3 7 -5 39 -4 l60 2 38 -50 c22 -27 48
-67 59 -89 14 -26 24 -35 31 -28 15 15 -6 69 -47 121 -19 24 -35 48 -35 52 0
16 283 1 312 -17 5 -3 -19 -24 -54 -47 -78 -50 -222 -193 -269 -267 -76 -119
-168 -299 -190 -369 l-23 -74 30 -20 c16 -12 71 -62 122 -112 l93 -90 7 -315
c10 -431 9 -3068 -1 -3102 -5 -19 -14 -28 -27 -28 -27 0 -25 -14 3 -27 23 -11
24 -15 30 -179 3 -93 4 -171 1 -173 -2 -3 -19 10 -37 27 -31 30 -67 43 -67 23
0 -4 10 -21 23 -37 l22 -29 -36 23 c-20 12 -41 22 -48 22 -18 0 -13 -81 6
-102 9 -10 14 -20 12 -22 -2 -3 -38 -8 -79 -13 -56 -6 -75 -12 -75 -23 0 -25
71 -23 183 4 l103 25 20 -20 c11 -11 39 -28 62 -38 23 -10 53 -30 66 -45 19
-20 27 -23 38 -15 7 6 13 20 13 30 0 11 9 20 23 23 42 9 291 13 327 5 19 -4
76 -10 125 -12 140 -8 339 -29 348 -37 5 -4 -16 -10 -45 -14 -29 -4 -98 -16
-153 -26 -55 -11 -122 -24 -150 -29 -27 -6 -134 -27 -238 -47 l-187 -37 -224
22 c-124 12 -266 28 -318 36 -51 7 -133 16 -183 20 -134 11 -95 -10 45 -24 63
-6 189 -20 280 -31 91 -11 192 -20 225 -21 33 -1 74 -5 90 -8 28 -7 25 -8 -30
-20 -187 -42 -593 -149 -1150 -304 -158 -44 -257 -66 -317 -71 -87 -7 -88 -7
-88 16 0 28 48 111 89 155 29 32 32 33 93 28 35 -3 114 -13 176 -22 62 -8 115
-13 118 -11 6 7 -186 47 -258 55 -32 3 -58 10 -58 14 0 5 12 16 27 26 25 17
35 16 252 -15 124 -18 235 -33 245 -32 49 1 -8 14 -194 46 -212 36 -250 46
-211 59 26 8 92 2 379 -36 211 -27 301 -35 291 -24 -7 6 -356 54 -509 69
l-125 13 105 50 c175 84 418 174 589 219 99 26 134 41 66 30 -221 -38 -516
-124 -672 -196 -256 -119 -433 -284 -433 -404 0 -14 -4 -27 -9 -31 -12 -7 -31
26 -31 54 0 12 -7 21 -15 21 -20 0 -20 -54 1 -75 9 -8 30 -22 48 -29 47 -20
168 -39 175 -28 3 5 60 24 126 41 66 18 253 70 415 116 287 81 733 195 975
249 66 15 158 35 205 46 129 29 349 76 500 106 131 26 261 34 308 20 13 -5 22
-3 22 3 0 6 -9 11 -20 11 -11 0 -20 4 -20 8 0 13 168 34 315 40 120 5 127 6
95 18 -19 7 -57 13 -85 14 -95 2 -405 49 -405 61 0 11 78 22 92 13 7 -5 40 -7
73 -6 33 2 132 -4 220 -12 88 -9 176 -15 195 -15 l35 1 -40 9 c-22 4 -117 18
-212 30 -95 13 -170 26 -168 29 2 4 38 17 79 29 l75 22 158 -26 c117 -19 207
-27 348 -31 105 -2 186 -2 180 0 -5 3 -96 10 -202 16 -161 8 -391 38 -441 55
-9 3 -3 14 18 31 44 38 24 56 -29 26 -45 -26 -63 -29 -35 -6 19 15 19 16 -1 9
-54 -18 -324 -93 -355 -98 -30 -5 -32 -4 -17 6 47 30 61 47 49 59 -8 8 -28 4
-79 -20 -89 -40 -182 -70 -257 -82 -34 -5 -66 -16 -72 -25 -18 -24 -185 -36
-462 -33 -210 2 -256 6 -267 18 -10 12 -11 34 -4 110 6 52 15 98 22 102 7 4
27 8 45 8 31 0 32 -1 32 -42 0 -67 16 -78 23 -17 4 28 9 54 11 57 3 2 83 17
178 33 207 34 441 84 673 144 251 64 327 97 297 127 -8 8 -15 8 -24 0 -39 -32
-874 -226 -1067 -248 l-61 -7 0 86 0 85 48 6 c123 17 475 82 633 117 183 40
335 84 428 125 64 28 64 41 0 19 -121 -43 -984 -215 -1080 -215 l-38 0 6 73
c3 39 6 73 7 74 0 0 60 6 131 12 455 40 964 160 1045 246 28 30 21 43 -12 21
-105 -68 -686 -191 -1099 -232 l-66 -6 -7 32 c-3 18 -6 56 -6 86 0 60 17 84
59 84 37 0 418 63 609 100 281 56 482 116 522 157 13 14 12 15 -10 9 -337 -86
-470 -115 -875 -185 -154 -27 -284 -46 -288 -42 -4 4 -7 46 -5 92 l3 83 190
27 c649 91 1105 209 1105 285 0 13 -3 13 -22 0 -52 -34 -427 -127 -748 -185
-154 -29 -486 -81 -509 -81 -12 0 -13 136 -2 285 l6 89 97 17 c116 21 272 60
558 140 118 34 244 69 280 79 36 10 123 34 193 54 71 19 141 37 155 38 l27 3
3 -117 3 -117 -38 -10 c-21 -6 -256 -53 -523 -106 -677 -133 -680 -134 -680
-158 0 -34 964 152 1179 228 24 8 47 15 52 15 5 0 9 -138 9 -307 0 -341 16
-858 29 -972 12 -93 20 -101 68 -69 21 14 65 33 97 42 l59 17 24 -28 c19 -21
23 -23 18 -8 -4 11 -7 25 -8 30 -3 15 209 9 310 -10 48 -9 134 -29 189 -45
108 -32 148 -38 99 -15 l-30 13 29 1 c16 1 135 -17 265 -39 130 -22 280 -47
334 -56 54 -9 101 -14 104 -10 3 3 0 7 -8 9 -42 12 -612 118 -659 123 -100 10
-99 9 -93 52 4 28 1 43 -12 55 -14 15 -16 30 -10 104 6 72 5 84 -6 77 -8 -5
-22 -10 -33 -11 -22 -4 -21 9 14 407 43 489 52 1012 24 1565 -14 299 -14 390
1 278 13 -96 23 -103 24 -15 1 45 5 82 11 82 9 0 23 -43 36 -113 3 -21 8 -37
9 -35 2 2 9 81 15 176 9 128 9 205 1 300 -19 223 -26 586 -12 621 10 22 10 38
2 63 -6 20 -12 164 -13 366 -3 287 -1 334 12 342 30 20 357 122 415 130 33 5
191 16 350 25 160 8 380 22 490 31 110 9 227 14 260 11 80 -7 346 -98 520
-178 l50 -23 -40 -6 c-58 -8 -70 -18 -50 -40 9 -10 19 -34 22 -54 l6 -36 -93
0 -92 0 4 63 c7 85 -7 121 -14 39 -4 -35 -11 -69 -18 -76 -6 -8 -8 -25 -5 -38
3 -12 -1 -106 -10 -207 -8 -101 -17 -330 -20 -510 -9 -616 -15 -1267 -15
-1742 l0 -476 -117 -7 c-208 -10 -785 -31 -1138 -41 -232 -6 -275 -11 -275
-27 0 -8 134 -9 473 -5 443 5 719 20 902 46 39 6 89 11 113 11 l42 0 0 -200 0
-199 -32 -5 c-57 -10 -546 -55 -708 -65 -85 -6 -279 -14 -430 -17 -291 -7
-365 -16 -245 -29 185 -20 1005 24 1280 70 139 23 135 24 135 -34 0 -49 0 -49
-37 -55 -21 -3 -69 -8 -108 -11 -38 -4 -146 -15 -240 -26 -586 -66 -637 -70
-971 -76 l-332 -6 4 64 c2 35 7 202 10 370 l6 307 332 5 c346 6 517 19 846 67
112 16 374 72 384 81 15 14 -3 12 -313 -31 -159 -22 -353 -47 -432 -55 -119
-13 -582 -34 -773 -35 l-49 0 7 288 c3 158 7 393 7 522 1 129 4 281 7 338 l4
102 177 0 c282 1 811 18 871 29 30 5 87 13 127 16 l72 7 28 -41 c46 -66 86
-132 82 -135 -2 -2 -116 -9 -254 -16 -137 -6 -252 -13 -256 -15 -3 -2 -131 -7
-285 -11 -415 -10 -537 -17 -542 -31 -8 -26 725 -9 1163 26 227 18 202 21 235
-29 17 -25 30 -50 30 -56 0 -7 -40 -14 -107 -18 -117 -7 -167 -12 -313 -26
-52 -5 -241 -14 -420 -20 -355 -12 -430 -17 -430 -29 0 -23 272 -28 599 -11
213 12 316 25 663 85 24 4 34 -6 104 -100 43 -58 80 -103 82 -100 3 3 -25 50
-61 105 -56 83 -64 100 -48 100 11 0 23 5 27 11 4 8 -3 9 -24 4 -28 -6 -33 -3
-66 46 -38 56 -35 68 14 69 14 0 32 5 40 11 11 7 -3 9 -49 7 l-64 -3 -63 90
c-72 104 -74 102 56 112 l75 5 44 -58 c23 -33 52 -76 62 -96 11 -21 24 -38 29
-38 12 0 12 0 -1 41 -16 47 -82 137 -177 244 -44 49 -79 93 -76 96 2 4 27 10
55 14 60 8 69 3 142 -102 28 -40 54 -73 59 -73 14 0 -19 67 -62 129 -26 37
-38 64 -34 74 5 13 0 17 -18 17 -19 0 -42 19 -87 71 -34 40 -58 76 -54 80 5 5
38 12 73 16 l63 6 38 -44 c43 -51 61 -47 30 7 -12 20 -20 43 -17 51 3 8 -3 17
-17 22 -12 5 -51 38 -86 74 -68 70 -69 68 9 82 58 11 103 27 93 34 -8 5 -66
74 -115 138 -7 8 3 15 34 23 52 14 60 19 53 30 -3 4 -26 2 -52 -6 -27 -8 -53
-13 -60 -12 -7 2 -60 50 -118 108 -116 114 -115 111 -21 124 l49 8 103 -103
c57 -57 106 -101 108 -98 6 6 -50 85 -112 157 l-43 51 48 7 c87 12 92 24 8 18
l-80 -6 -48 50 c-26 28 -47 53 -47 56 0 2 26 7 58 11 31 3 76 8 100 10 39 4
44 2 54 -23 l12 -27 4 25 c5 33 13 37 88 45 94 10 82 29 -14 23 l-77 -6 -28
50 c-16 28 -27 52 -25 54 3 2 51 11 109 20 126 20 173 37 79 29 -36 -3 -100
-8 -142 -12 l-78 -6 -57 54 c-65 62 -83 52 -28 -16 31 -37 34 -45 19 -45 -11
0 -89 -7 -174 -15 -168 -16 -303 -22 -792 -31 -274 -5 -318 -8 -318 -21 0 -14
57 -15 483 -10 446 5 645 15 813 42 41 7 42 6 67 -36 15 -24 23 -47 19 -51 -4
-4 -56 -11 -115 -15 l-108 -9 -17 28 c-21 36 -35 36 -27 -1 6 -28 5 -29 -42
-35 -119 -15 -618 -47 -818 -52 -229 -5 -269 -9 -261 -23 16 -25 345 -18 859
20 l299 22 51 -51 c28 -28 48 -54 44 -58 -3 -4 -43 -8 -89 -10 -46 -2 -153
-10 -238 -18 -85 -9 -303 -25 -485 -36 -347 -22 -402 -27 -411 -41 -11 -19
468 1 886 37 l185 16 104 -108 c117 -121 117 -122 5 -123 -61 -1 -62 -1 -105
47 -24 27 -57 64 -72 83 -25 31 -27 32 -21 9 4 -14 24 -50 45 -80 22 -31 39
-59 39 -62 0 -3 -27 -9 -60 -13 -43 -5 -65 -3 -76 6 -13 10 -17 10 -24 -2 -8
-12 -73 -14 -397 -17 -213 -1 -395 -5 -403 -9 -31 -14 96 -22 456 -29 l370 -7
48 -60 c26 -32 45 -61 43 -63 -9 -9 -425 -24 -682 -24 -214 0 -266 -3 -257
-12 16 -16 657 -23 847 -10 l130 10 70 -71 c67 -69 68 -72 45 -78 -14 -4 -43
-7 -65 -8 -34 -1 -46 5 -87 46 -54 53 -64 47 -18 -9 17 -20 26 -39 22 -42 -20
-12 -396 -35 -667 -41 -306 -6 -354 -10 -337 -27 15 -15 787 -2 927 15 l110
14 38 -36 c46 -43 101 -110 95 -116 -9 -9 -418 -45 -623 -55 -121 -6 -309 -7
-417 -4 l-198 7 0 126 c0 69 7 238 16 374 9 137 13 260 9 275 l-8 27 -7 -25
c-4 -14 -10 -77 -14 -140 -4 -63 -16 -248 -27 -410 -21 -328 -33 -792 -50
-1992 -10 -745 -12 -811 -29 -845 -10 -21 -20 -51 -21 -68 -3 -25 0 -30 16
-30 15 0 21 8 23 28 7 58 23 63 208 70 476 18 1290 124 1252 163 -3 2 -126
-11 -274 -30 -435 -56 -940 -106 -1076 -106 -37 0 -70 5 -73 11 -4 6 -4 35 0
65 l6 54 164 0 c256 0 628 24 958 61 282 31 415 59 425 87 4 14 -31 16 -57 3
-55 -30 -1126 -121 -1420 -121 l-71 0 0 66 0 67 133 -6 c306 -12 843 27 1292
93 110 16 212 33 228 36 l27 6 0 -149 c0 -90 -4 -153 -10 -159 -8 -8 -6 -15 5
-24 8 -7 15 -18 15 -26 0 -22 20 -26 28 -5 7 19 18 20 252 25 242 4 246 4 267
-17 11 -12 48 -33 83 -46 34 -14 70 -36 81 -49 16 -21 21 -22 34 -12 9 7 50
15 91 18 69 4 75 6 72 25 -2 13 -20 30 -48 44 l-45 23 12 148 c6 81 21 309 33
507 22 381 70 1181 95 1575 10 157 20 250 31 280 14 39 16 119 18 602 1 307 5
561 9 564 10 10 122 -45 149 -73 21 -23 21 -26 11 -146 -57 -648 -77 -843 -89
-858 -10 -11 -11 -18 -2 -27 8 -8 7 -102 -6 -364 -9 -194 -23 -528 -31 -743
-33 -876 -36 -925 -57 -952 -5 -7 -5 -14 2 -18 11 -7 13 -95 3 -210 -6 -74 -7
-78 -35 -87 -23 -8 -26 -13 -17 -24 6 -8 18 -14 25 -14 10 0 14 -14 14 -50 0
-44 -3 -52 -25 -62 -30 -14 -33 -28 -5 -28 24 0 27 -39 8 -102 -14 -48 -4 -58
60 -58 45 0 51 -6 25 -25 -9 -7 -14 -19 -10 -29 5 -14 24 -16 123 -16 121 0
194 -13 281 -51 31 -14 73 -22 118 -23 73 -3 117 -18 112 -39 -1 -9 121 -13
542 -17 l545 -5 6 -25 c16 -59 -15 -138 -55 -141 -31 -3 -35 -4 -35 -14 -1
-12 44 -19 74 -11 51 13 75 131 40 199 -28 54 -103 154 -140 187 -30 26 -41
30 -68 24 -40 -8 -41 -9 -28 -39 14 -30 38 -33 45 -5 8 31 24 24 55 -22 15
-22 42 -55 60 -73 31 -30 46 -75 20 -59 -7 5 -240 11 -518 14 -310 3 -511 9
-520 15 -8 6 -31 15 -50 22 -34 12 -34 12 15 7 28 -3 86 -12 129 -20 71 -13
111 -13 75 1 -34 12 -260 55 -324 61 -96 10 -56 19 120 28 77 4 172 11 210 16
125 17 197 13 259 -15 79 -35 135 -32 91 5 -32 26 -5 19 89 -26 54 -25 100
-43 103 -40 6 6 -83 64 -157 101 -30 16 -49 30 -42 33 14 4 113 -42 240 -113
45 -26 82 -42 82 -37 0 6 -33 31 -72 56 -40 25 -70 46 -66 46 4 0 55 -22 114
-50 59 -27 111 -50 117 -50 20 0 -29 43 -75 66 -27 13 -48 31 -48 39 0 8 -4
15 -8 15 -5 0 -20 18 -34 40 l-26 39 41 10 c37 9 33 10 -32 6 -59 -4 -78 -2
-92 11 -16 15 -22 15 -66 0 -140 -45 -351 -60 -850 -60 -237 -1 -433 1 -436 4
-2 3 0 30 6 61 l11 56 480 6 c474 5 646 14 840 42 121 18 176 32 176 46 0 6
-7 8 -16 5 -20 -7 -270 -31 -484 -46 -85 -6 -344 -13 -574 -17 l-419 -6 5 52
c3 28 7 53 9 55 2 2 103 7 224 10 278 9 640 32 815 52 130 15 417 67 428 79
12 11 -5 13 -52 4 -191 -35 -1023 -99 -1298 -99 l-108 0 0 73 0 73 503 12
c276 6 529 17 562 23 207 37 259 49 269 60 8 9 6 10 -9 5 -59 -21 -770 -55
-1153 -56 l-163 0 3 48 3 47 340 7 c220 4 415 14 554 27 211 21 544 65 575 77
14 5 16 -16 16 -203 0 -257 8 -363 26 -363 11 0 14 56 16 292 l3 292 30 6 c17
4 40 12 50 19 17 10 14 11 -20 5 -74 -12 -70 -17 -72 76 -2 104 1 116 32 124
14 4 25 11 25 16 0 6 -9 6 -24 0 -13 -5 -27 -6 -30 -3 -3 4 -6 42 -6 86 0 69
3 81 23 99 19 17 19 19 3 14 -35 -12 -200 -35 -461 -66 -400 -46 -570 -60
-822 -67 l-233 -6 0 79 c0 146 44 1323 56 1480 l6 81 236 7 c199 6 297 13 548
39 15 1 35 -17 77 -73 31 -40 54 -76 52 -78 -2 -3 -19 -6 -37 -8 -168 -17
-311 -26 -528 -34 -261 -9 -320 -15 -320 -32 0 -17 559 -3 754 18 l170 18 58
-64 c32 -35 55 -67 51 -71 -5 -5 -60 -13 -123 -19 -63 -6 -151 -15 -194 -20
-43 -5 -185 -15 -315 -20 -320 -15 -366 -19 -352 -33 8 -8 73 -13 191 -15 182
-4 444 14 650 44 203 30 190 32 233 -25 20 -27 37 -54 37 -60 0 -6 -15 -11
-32 -11 -18 -1 -80 -5 -138 -10 -64 -5 -109 -5 -115 1 -12 12 -38 12 -30 -1 3
-6 0 -12 -7 -15 -17 -6 -319 -31 -593 -50 -121 -9 -224 -20 -229 -25 -7 -7 1
-10 19 -11 17 0 44 -2 60 -3 72 -6 617 30 745 50 35 5 36 4 74 -61 21 -36 37
-67 35 -69 -8 -6 -541 -46 -689 -51 -222 -8 -300 -15 -300 -27 0 -8 76 -9 253
-5 262 7 401 16 625 43 l132 16 19 -23 c26 -32 66 -107 61 -112 -7 -7 -548
-55 -750 -68 -191 -11 -243 -19 -238 -34 2 -6 63 -9 163 -7 296 5 616 34 760
67 33 8 67 15 77 15 15 0 113 -138 104 -147 -12 -13 -578 -68 -836 -83 -199
-11 -240 -16 -240 -31 0 -12 277 -11 460 1 187 13 442 45 550 70 47 10 88 16
92 12 3 -4 20 -31 37 -60 34 -57 34 -56 -39 -67 -25 -3 -88 -13 -140 -20 -222
-33 -931 -115 -995 -115 -3 0 -5 -5 -5 -12 0 -20 414 8 685 47 181 26 545 99
545 109 0 5 -13 33 -30 63 -16 29 -30 55 -30 58 0 3 15 11 33 19 l32 14 -45 1
c-45 1 -46 1 -89 71 -24 39 -41 74 -38 77 3 3 26 8 52 10 25 3 45 10 45 15 0
6 -23 7 -61 3 -52 -6 -62 -5 -75 11 -22 28 -66 115 -61 121 3 2 49 11 103 19
54 8 100 17 103 19 11 12 -11 12 -99 -1 -141 -20 -134 -22 -174 43 -20 32 -36
63 -36 69 0 7 24 15 57 19 31 4 67 11 79 15 12 5 49 12 81 15 l59 7 47 -71
c26 -39 49 -71 52 -71 11 0 3 18 -30 70 -41 64 -43 80 -12 80 13 0 32 7 43 15
18 14 16 15 -21 9 -43 -7 -44 -7 -62 -5 -15 1 -94 101 -88 111 2 4 32 13 66
19 53 11 63 10 78 -3 24 -22 34 -20 26 4 -4 13 -1 22 9 26 9 3 16 11 16 16 0
6 -7 7 -16 4 -25 -9 -133 111 -119 133 3 6 28 13 56 17 27 4 52 11 55 15 6 11
-27 11 -82 0 -26 -5 -52 -4 -68 3 -25 11 -146 139 -146 155 0 5 28 14 62 21
68 15 55 22 131 -69 43 -52 44 -28 2 34 -21 30 -36 57 -34 59 10 10 171 57
177 52 3 -4 8 -291 10 -639 4 -624 7 -706 27 -710 16 -3 22 256 23 1083 2 725
6 951 18 1047 4 37 9 43 40 53 45 15 44 30 -2 23 l-36 -6 8 105 c4 66 3 108
-3 111 -6 4 -13 -23 -16 -68 -13 -154 -13 -152 -69 -164 -82 -18 -105 -14
-135 21 -71 82 -102 112 -109 106 -4 -4 12 -32 35 -63 56 -74 58 -82 24 -89
-135 -29 -436 -54 -786 -65 -280 -9 -368 -22 -252 -37 76 -9 531 2 712 17
l137 12 15 -24 c9 -12 35 -47 59 -75 l42 -53 -47 -6 c-27 -3 -75 -10 -107 -14
-54 -8 -62 -6 -78 13 l-18 21 -6 -22 c-8 -28 -18 -30 -254 -43 -102 -5 -231
-13 -288 -16 -56 -3 -105 -11 -108 -16 -7 -11 591 -4 651 7 27 6 34 1 73 -51
24 -31 40 -60 35 -64 -11 -11 -691 -69 -810 -70 -13 0 -23 -5 -23 -11 0 -15
380 -6 550 12 l114 12 31 -38 c16 -21 56 -68 87 -104 32 -36 58 -71 58 -77 0
-18 -112 -25 -131 -8 -20 18 -29 18 -29 1 0 -11 -59 -15 -302 -21 -322 -7
-398 -13 -398 -29 0 -8 621 -4 697 5 16 2 36 -14 77 -62 30 -35 53 -66 52 -68
-2 -2 -39 -7 -82 -12 -44 -5 -99 -14 -124 -19 -70 -14 -358 -33 -545 -34
l-170 -2 3 100 c7 222 57 869 69 888 7 12 116 1 146 -15 12 -6 27 -18 34 -27
21 -29 127 -20 198 15 46 23 67 29 90 23 83 -19 127 0 70 31 -14 8 -24 18 -22
24 2 6 34 27 71 47 56 30 82 38 149 43 168 14 497 62 560 82 25 8 21 25 -5 19
-34 -9 -492 -53 -497 -49 -7 6 -5 7 199 92 425 177 647 263 727 284 78 19 93
20 197 9 152 -15 196 -14 196 3 0 20 115 63 212 80 46 8 209 22 363 31 154 9
289 20 300 25 13 6 -6 8 -55 5 -533 -34 -593 -36 -599 -26 -4 7 -45 -4 -116
-30 l-110 -40 -162 9 c-168 10 -205 7 -313 -27 -36 -12 -171 -46 -300 -77
-129 -31 -345 -92 -478 -136 -134 -44 -246 -78 -248 -75 -6 6 31 20 256 101
102 37 205 74 230 83 25 9 39 18 33 20 -7 3 -68 -14 -137 -36 -69 -23 -134
-41 -146 -41 -12 0 -64 42 -133 107 -126 120 -182 163 -209 163 -29 0 -21 -12
39 -60 90 -71 264 -223 260 -226 -6 -6 -206 -64 -220 -64 -7 0 -37 25 -67 56
-69 69 -273 253 -309 276 -28 19 -51 23 -51 10 0 -5 57 -58 128 -118 136 -117
255 -224 260 -235 4 -8 -69 -36 -122 -47 l-38 -7 -177 175 c-182 181 -247 234
-277 228 -12 -2 11 -28 82 -90 54 -47 153 -138 219 -202 108 -104 118 -116 98
-122 -38 -11 -16 -23 24 -13 52 12 57 11 44 -4 -20 -25 0 -25 71 -1 39 13 73
22 76 19 3 -2 -6 -9 -19 -14 -13 -5 -69 -27 -124 -49 -176 -70 -150 -68 -346
-22 -204 48 -241 59 -251 74 -4 6 -8 58 -8 116 l0 105 95 -95 c52 -52 95 -90
95 -85 -1 6 -43 55 -95 110 -85 90 -95 105 -101 147 -4 26 -10 46 -14 43 -3
-2 -5 -18 -2 -36 4 -28 3 -30 -15 -21 -11 6 -26 19 -34 28 -27 33 -130 114
-145 114 -8 0 6 -19 33 -41 26 -23 74 -66 106 -96 l57 -55 0 -84 c0 -46 -2
-84 -5 -84 -3 0 -45 39 -93 88 -172 172 -280 272 -293 272 -8 0 74 -87 183
-193 173 -170 222 -227 205 -243 -5 -5 -141 47 -192 74 -18 9 -60 51 -92 92
-33 41 -105 119 -160 173 -106 102 -152 134 -67 45 27 -29 96 -101 152 -160
56 -59 102 -111 102 -116 0 -5 -83 22 -184 62 l-184 71 -107 98 c-59 54 -110
95 -113 92 -3 -3 27 -39 68 -80 41 -41 70 -75 64 -75 -6 0 -84 29 -175 64 -90
34 -186 71 -212 81 -27 9 -47 19 -44 21 5 5 375 21 1052 44 325 11 658 22 740
25 428 16 753 25 1055 30 184 3 396 8 470 10 74 2 190 4 258 5 74 0 122 4 122
10 0 13 -405 13 -960 0 -527 -13 -1908 -57 -2205 -71 -121 -5 -344 -13 -495
-16 -151 -3 -277 -9 -280 -13 -7 -9 -525 -53 -580 -48 l-45 3 70 18 c39 10
118 21 178 24 59 3 107 10 107 16 0 5 -14 7 -32 3 -18 -3 -143 -8 -278 -12
-266 -6 -433 -17 -465 -29 l-20 -8 20 16 c19 15 17 15 -25 11 -52 -6 -154 -23
-179 -31 -12 -3 -12 -1 3 11 19 15 18 16 -15 16 -19 0 -50 -5 -69 -10 -23 -7
-338 -11 -895 -11 l-860 0 -102 53 c-56 29 -100 54 -99 56 4 3 106 -13 154
-25 38 -9 24 13 -15 24 -29 8 24 11 232 12 426 2 864 11 1060 21 99 6 220 10
270 10 108 0 105 17 -5 23 -41 1 121 4 360 5 239 1 662 7 940 14 278 6 521 11
540 11 277 1 822 39 845 59 5 5 -61 6 -155 4 -91 -3 -253 -8 -360 -11 -844
-25 -2069 -4 -3250 55 -328 16 -554 31 -572 36 -10 3 -18 1 -18 -4 0 -14 58
-20 365 -37 149 -8 419 -24 600 -35 182 -10 431 -24 555 -30 464 -24 460 -25
-165 -38 -330 -8 -661 -18 -735 -23 -74 -5 -226 -12 -337 -16 -184 -5 -203 -4
-203 10 0 10 -11 19 -27 23 -16 3 -35 8 -43 10 -8 2 -109 13 -224 24 -195 18
-252 31 -215 45 9 3 67 9 130 13 l114 7 3 32 c3 25 -3 36 -31 57 -18 14 -49
29 -68 33 -31 6 -33 5 -20 -11 8 -9 11 -20 7 -24 -13 -12 -98 -7 -191 12 -62
12 -155 20 -296 23 -222 6 -325 -3 -440 -38 -73 -22 -91 -20 -73 9 25 39 191
81 399 101 394 39 1265 46 2585 22 765 -14 2461 -10 3390 9 228 4 409 4 415
-1 13 -12 145 -11 145 1 0 6 -12 10 -27 11 l-28 1 25 7 c14 4 -121 11 -300 15
-179 4 -415 11 -525 16 -697 32 -1595 39 -1640 12 l-20 -11 20 -1 c11 -1 168
-1 348 0 324 1 1073 -15 1317 -29 161 -9 -1299 -25 -1530 -17 -170 6 -1285 61
-1445 71 -158 10 -163 12 -187 58 -12 23 -23 36 -25 30 -3 -7 3 -23 11 -35 30
-42 22 -51 -41 -44 -59 7 -103 38 -103 72 0 8 -4 14 -9 14 -5 0 -7 -18 -4 -40
l6 -40 -46 0 c-88 0 -106 15 -82 73 4 9 3 17 -3 17 -5 0 -17 -18 -26 -40 -15
-37 -19 -40 -53 -40 -54 0 -67 12 -67 59 -1 32 -5 41 -18 41 -10 0 -19 -6 -20
-12z m143 -114 c5 -3 9 -17 9 -31 0 -23 -3 -25 -31 -19 -17 3 -46 6 -64 6 -33
0 -33 0 -22 31 11 30 14 31 55 25 24 -3 48 -8 53 -12z m269 -10 c36 -2 214
-11 395 -19 666 -32 670 -34 85 -29 -311 3 -595 7 -632 11 -61 5 -67 8 -71 31
l-5 25 82 -8 c44 -3 110 -8 146 -11z m-1971 -229 c41 -8 79 -19 83 -23 6 -6
-23 -11 -66 -14 -80 -5 -107 -18 -99 -46 4 -16 -24 -17 -411 -16 -229 0 -416
3 -416 7 0 4 0 11 0 15 0 27 191 82 320 93 141 11 501 2 589 -16z m-999 -145
c0 -16 -5 -30 -10 -30 -14 0 -24 26 -16 45 10 26 26 16 26 -15z m930 -1 c74
-5 208 -16 296 -24 89 -8 169 -15 178 -15 9 0 16 -4 16 -9 0 -5 -94 -7 -217
-4 -247 4 -487 -9 -678 -38 -150 -22 -498 -92 -567 -113 -27 -8 -48 -13 -48
-11 0 2 10 30 22 62 19 52 22 56 31 35 11 -23 31 -29 42 -12 4 6 2 16 -4 23
-7 9 -7 17 0 27 6 9 12 11 15 5 18 -42 32 -60 47 -63 13 -3 17 3 17 26 0 31
14 42 51 42 29 0 14 17 -21 25 -49 11 -35 22 43 35 39 6 77 13 82 15 19 7 561
2 695 -6z m138 -95 c12 -4 22 -10 22 -15 0 -11 -204 -12 -251 -1 -30 6 -25 8
36 13 106 8 168 9 193 3z m237 -25 c32 -12 39 -17 20 -14 -16 2 -65 8 -107 11
-43 4 -78 11 -78 15 0 16 114 8 165 -12z m-881 -73 c-28 -19 -86 -73 -129
-120 l-78 -86 -14 28 c-18 34 -39 55 -29 29 19 -56 18 -65 -11 -83 -164 -99
-279 -194 -394 -324 -46 -52 -125 -138 -175 -190 -207 -216 -331 -402 -450
-671 -168 -382 -221 -632 -212 -1000 6 -218 4 -224 -49 -171 -33 33 -170 138
-228 175 -22 13 -49 33 -60 44 -11 10 -40 34 -65 52 -25 19 -59 50 -77 70 -17
20 -34 33 -38 30 -8 -8 114 -127 176 -171 24 -18 46 -35 49 -38 5 -6 165 -121
210 -151 14 -9 23 -19 20 -22 -9 -8 -111 30 -123 47 -7 10 -53 27 -105 41 -95
24 -133 44 -211 113 -43 38 -45 42 -53 113 -14 142 -21 309 -11 309 5 0 29
-21 53 -46 52 -53 198 -179 250 -214 19 -13 37 -27 40 -30 3 -3 16 -13 30 -21
14 -9 51 -33 83 -53 84 -54 70 -26 -18 36 -42 29 -123 90 -180 135 -57 45
-106 78 -110 75 -4 -4 -5 -2 -3 4 1 6 -30 42 -71 80 l-74 68 6 107 c5 91 54
340 74 372 3 5 70 -57 150 -137 130 -130 172 -166 161 -137 -1 5 -64 75 -138
156 -74 81 -139 155 -143 164 -6 12 -2 32 13 61 l21 42 57 -60 c96 -102 252
-235 252 -215 0 4 -65 75 -145 157 -80 83 -145 153 -145 156 0 13 60 90 70 90
5 0 58 -44 117 -98 145 -131 202 -176 211 -168 4 4 -64 76 -151 161 -86 84
-157 156 -157 161 0 4 14 29 32 56 l31 49 121 -124 c67 -68 132 -132 145 -143
l25 -19 -21 34 c-11 18 -56 72 -100 120 -44 47 -94 103 -112 124 l-33 37 32
50 c18 28 34 49 36 47 2 -2 -3 -23 -11 -47 -22 -63 -3 -69 29 -10 15 27 31 50
35 50 5 0 27 -25 50 -55 53 -69 160 -185 173 -185 12 0 -32 59 -181 242 l-25
30 24 45 c13 25 41 63 61 84 l36 37 43 -75 c23 -41 73 -124 110 -184 38 -61
77 -130 87 -154 10 -25 21 -45 26 -45 26 0 -18 91 -132 269 -97 152 -121 193
-121 211 0 12 88 110 99 110 3 0 19 -24 34 -53 34 -65 237 -300 237 -275 0 4
-33 47 -74 97 -41 50 -78 101 -81 112 -5 16 2 30 30 59 l37 38 100 -99 c56
-55 103 -97 106 -95 2 3 -55 75 -127 160 -72 85 -131 156 -131 159 0 2 26 21
57 42 l57 38 15 -24 c22 -33 164 -200 190 -223 59 -53 -2 44 -131 206 -22 27
-29 42 -20 45 6 3 12 11 12 18 0 15 67 65 86 65 10 0 129 -151 137 -173 2 -6
11 -8 20 -4 16 6 16 9 3 35 -8 15 -39 56 -70 90 -52 58 -62 82 -34 82 6 0 36
-27 65 -60 30 -33 59 -60 65 -60 5 0 -16 29 -47 64 l-56 65 23 15 c71 47 472
198 641 242 73 19 192 41 227 43 21 1 16 -5 -26 -33z m1028 -21 c79 -23 127
-47 213 -109 63 -45 51 -45 -54 -1 -45 19 -88 35 -94 35 -6 0 -21 12 -33 28
-26 32 -42 24 -22 -10 40 -73 100 -199 95 -204 -3 -3 -48 36 -100 85 -59 57
-103 91 -116 91 -64 0 -228 -88 -295 -159 -35 -36 -46 -39 -46 -10 0 32 -17
14 -34 -37 -12 -36 -158 -271 -197 -318 -12 -14 9 68 31 125 72 181 237 366
410 458 67 36 102 39 130 11 15 -15 20 -17 20 -5 0 8 -9 20 -20 27 -11 7 -20
16 -20 21 0 8 20 4 132 -28z m3333 -24 c36 -20 37 -21 10 -15 -16 4 -70 12
-118 18 -103 13 -104 30 -2 24 47 -3 83 -12 110 -27z m-288 -10 c-12 -34 -11
-34 -322 -51 -99 -5 -214 -12 -255 -15 -44 -3 -70 -1 -65 4 17 16 156 40 262
45 56 3 110 10 120 16 17 9 148 25 235 29 36 1 36 1 25 -28z m-1848 -81 c72
-52 130 -98 131 -101 0 -4 -12 -10 -26 -13 -30 -8 -50 4 -208 121 -54 40 -106
73 -115 73 -22 -1 31 -47 159 -139 l103 -75 -38 -13 -37 -13 -102 71 c-55 39
-128 91 -161 115 -33 24 -69 43 -80 43 -27 1 -37 8 293 -225 14 -10 11 -14
-22 -28 -21 -9 -45 -16 -53 -16 -18 0 -69 35 -241 163 -119 89 -158 111 -137
77 9 -15 226 -176 325 -242 99 -67 97 -64 60 -83 -31 -16 -32 -16 -103 26 -92
54 -283 182 -372 248 -70 53 -102 66 -69 30 29 -33 216 -166 349 -248 66 -41
122 -76 124 -78 2 -2 -2 -11 -10 -20 -21 -25 -37 -66 -32 -80 7 -20 63 -3 125
39 50 33 138 78 155 78 3 0 -8 -15 -23 -34 -16 -18 -37 -47 -46 -64 -18 -34
-132 -99 -143 -82 -10 16 -25 12 -25 -7 0 -9 -12 -29 -27 -45 l-26 -27 27 -11
c25 -9 27 -14 22 -48 -3 -20 -11 -129 -16 -242 -6 -112 -13 -206 -15 -209 -3
-2 -5 2 -5 10 0 25 -57 101 -137 182 -43 43 -86 83 -95 88 -37 20 -16 -13 58
-93 42 -45 101 -114 130 -154 l54 -73 0 -130 c0 -145 -6 -161 -64 -161 -28 0
-40 9 -93 74 -33 41 -86 96 -119 123 -87 73 -92 80 -59 93 57 22 76 14 157
-67 43 -42 80 -75 83 -72 6 6 -46 81 -89 126 -16 18 -28 34 -25 36 2 2 15 9
29 15 24 12 23 12 -11 8 -34 -4 -41 1 -134 94 -94 94 -96 98 -71 104 46 11 28
24 -21 15 -58 -11 -478 -39 -584 -39 l-76 0 -50 50 c-60 60 -57 62 85 61 132
-2 243 9 267 25 11 8 30 14 42 14 13 0 23 4 23 8 0 5 -13 7 -30 4 -18 -3 -30
0 -30 7 0 6 -9 11 -19 11 -18 0 -19 2 -5 28 7 15 14 35 14 45 0 20 11 22 27 6
22 -22 33 3 33 72 0 38 3 69 8 69 11 0 62 -89 69 -121 5 -25 2 -29 -16 -29
-23 0 -26 -11 -11 -41 8 -13 7 -19 0 -19 -6 0 -10 -10 -8 -23 1 -12 -8 -38
-21 -56 -20 -27 -21 -35 -10 -42 25 -16 39 -10 39 16 0 24 2 25 37 19 33 -6
36 -5 31 14 -5 19 -3 20 12 12 41 -22 41 -3 0 41 -32 36 -33 47 -2 30 34 -18
89 -13 252 24 171 39 220 53 220 64 0 14 -25 31 -46 31 -34 0 -39 19 -7 26 81
17 47 31 -82 33 l-80 1 32 20 c24 14 31 24 26 37 -14 40 -81 94 -115 93 -13
-1 19 -33 64 -64 37 -26 7 -36 -114 -36 l-106 0 -33 43 c-18 23 -60 71 -95
107 -69 72 -114 135 -114 158 0 9 -18 47 -41 85 -22 38 -39 70 -37 72 13 13
280 -139 340 -193 46 -41 70 -84 62 -106 -3 -9 -1 -16 5 -16 20 0 23 27 6 59
-8 17 -13 31 -9 31 3 0 39 -23 80 -51 87 -60 138 -114 129 -137 -3 -8 0 -19 7
-24 19 -12 28 -10 28 7 0 25 18 17 35 -15 9 -16 22 -30 29 -30 15 0 41 -35 56
-75 8 -20 6 -23 -6 -18 -14 5 -14 2 0 -26 20 -38 56 -43 56 -8 0 91 -271 443
-318 413 -5 -3 -29 12 -53 33 -82 71 -185 146 -257 186 -39 22 -72 42 -72 45
0 3 196 5 435 5 l434 -1 130 -94z m56 90 c46 0 58 -6 140 -65 50 -35 93 -65
98 -65 19 -1 1 20 -63 70 -38 30 -70 56 -70 57 0 2 38 3 83 3 81 0 85 -1 131
-37 44 -34 46 -38 30 -50 -24 -17 -218 -93 -239 -93 -9 0 -45 24 -80 54 -34
29 -84 68 -109 86 -56 41 -59 55 -8 46 20 -3 60 -6 87 -6z m449 -8 l40 -7 -46
-24 -45 -24 -32 22 c-17 12 -31 27 -31 32 0 10 57 11 114 1z m1510 -13 c21 0
21 -1 1 -9 -26 -11 -112 -12 -119 -1 -10 16 10 23 53 17 24 -3 53 -6 65 -7z
m-895 -3 c-4 -5 -249 -98 -396 -152 l-93 -34 0 34 0 33 147 43 c190 55 281 78
317 79 16 1 27 -1 25 -3z m-3284 -36 c-3 -5 -13 -10 -21 -10 -8 0 -12 5 -9 10
3 6 13 10 21 10 8 0 12 -4 9 -10z m4662 -41 c76 -29 160 -60 187 -70 27 -10
56 -25 65 -33 9 -7 27 -14 41 -14 23 0 356 -125 369 -138 7 -6 -2 -4 -168 37
-84 21 -182 58 -365 140 -138 61 -258 115 -266 120 -33 19 7 6 137 -42z
m-4787 6 c0 -8 -7 -15 -15 -15 -16 0 -20 12 -8 23 11 12 23 8 23 -8z m1106
-102 c126 -128 147 -158 143 -206 -2 -18 0 -38 5 -45 14 -24 25 -72 15 -72 -5
0 -9 8 -9 18 0 9 -5 24 -11 32 -14 20 -3 -66 17 -137 16 -54 11 -84 -9 -64
-18 18 -23 13 -19 -23 5 -46 -12 -73 -53 -85 -34 -9 -53 -9 -142 4 -24 4 -44
2 -48 -5 -4 -6 -57 -10 -138 -10 -73 0 -138 -4 -145 -8 -7 -5 -10 -16 -6 -27
7 -16 6 -17 -18 -1 -37 24 -52 59 -45 107 3 23 10 47 17 53 15 15 462 21 490
6 12 -7 20 -7 20 -1 0 27 -221 54 -395 49 l-109 -3 -8 35 c-16 74 -21 216 -9
239 7 12 16 21 20 19 7 -3 138 -150 199 -223 27 -34 32 -36 32 -18 0 23 -12
39 -132 176 -43 49 -78 93 -78 97 0 14 90 83 98 76 4 -4 29 -36 57 -71 91
-116 178 -215 187 -215 16 0 -24 57 -124 180 -54 65 -98 123 -98 129 0 15 139
111 161 111 10 0 71 -53 135 -117z m330 61 c75 -50 99 -74 76 -74 -9 0 -84 53
-137 98 -60 49 -34 39 61 -24z m1461 -40 c3 -9 2 -23 -3 -31 -12 -19 -130 -65
-166 -65 -14 0 -29 -5 -31 -12 -3 -7 -52 -32 -109 -56 -56 -24 -148 -63 -202
-87 -80 -35 -96 -39 -80 -22 29 33 120 92 214 139 91 46 337 149 358 150 7 0
15 -7 19 -16z m-2977 -9 c-7 -9 -15 -13 -17 -11 -7 7 7 26 19 26 6 0 6 -6 -2
-15z m-120 -65 c0 -5 -5 -10 -11 -10 -5 0 -7 5 -4 10 3 6 8 10 11 10 2 0 4 -4
4 -10z m7265 -8 c-6 -5 -64 -30 -130 -57 -66 -26 -187 -79 -270 -117 -148 -68
-152 -69 -257 -76 -60 -4 -108 -4 -108 0 0 3 24 15 53 26 28 11 83 32 120 46
48 18 74 23 86 17 20 -11 93 12 341 108 157 60 182 68 165 53z m-4710 -17
c-36 -17 -55 -19 -55 -6 0 11 24 19 60 19 24 0 24 0 -5 -13z m541 -41 c-3 -26
-6 -136 -6 -245 0 -121 -4 -199 -10 -199 -5 0 -43 45 -85 100 -42 55 -80 100
-86 100 -15 0 12 -46 95 -159 55 -75 76 -112 76 -134 0 -28 -4 -25 -60 51 -33
45 -67 82 -75 82 -9 0 -14 4 -11 9 7 11 -45 131 -57 131 -5 0 -7 -6 -4 -13 38
-100 118 -406 166 -637 28 -135 31 -162 33 -387 2 -133 0 -239 -3 -235 -3 4
-22 95 -43 202 -21 107 -56 278 -78 379 -22 101 -38 196 -35 210 3 15 -1 30
-9 36 -11 9 -41 130 -88 363 -38 188 -31 28 9 -216 13 -80 22 -149 19 -152 -3
-3 -97 -7 -209 -10 -192 -5 -229 -10 -211 -27 9 -10 61 -9 272 2 l161 8 17
-74 c9 -41 42 -195 72 -344 l56 -270 -6 -615 c-6 -674 -14 -787 -34 -550 -24
267 -32 230 -24 -110 9 -419 6 -583 -13 -807 -9 -100 -14 -187 -10 -193 3 -5
13 -10 21 -10 11 0 14 -17 14 -82 0 -46 -3 -106 -6 -134 l-6 -52 -56 -6 c-31
-4 -170 -29 -310 -57 -139 -28 -257 -48 -260 -44 -7 6 -9 415 -12 1860 l-1
600 38 7 c21 3 98 9 171 13 216 12 214 23 -4 24 -174 1 -203 3 -208 17 -3 9
-6 102 -6 209 0 188 0 193 23 208 l22 16 -22 0 -23 1 1 388 c1 213 4 398 8
411 5 18 36 40 123 86 109 58 327 158 445 204 l53 21 21 -43 c17 -33 88 -145
106 -166 1 -2 6 -2 9 2 7 7 -28 86 -66 149 -17 27 -30 55 -30 62 0 12 107 64
134 66 5 0 6 -21 2 -46z m-3161 26 c-3 -5 -12 -10 -18 -10 -7 0 -6 4 3 10 19
12 23 12 15 0z m2550 -10 c7 -11 -38 -31 -75 -34 -39 -2 -39 18 0 31 44 15 67
16 75 3z m2787 -28 c4 -4 11 -22 14 -40 l7 -32 -62 0 c-45 0 -61 4 -61 14 0 7
-3 28 -7 46 l-6 33 53 -6 c29 -4 57 -10 62 -15z m109 -16 c25 -8 68 -26 95
-40 l49 -25 -80 1 c-121 1 -139 7 -143 46 -4 37 7 40 79 18z m-4591 -81 c0 -3
-12 -23 -27 -46 l-26 -40 15 -77 c9 -42 19 -86 23 -97 4 -11 -18 6 -49 38 -35
34 -54 62 -50 70 47 85 114 175 114 152z m850 -128 c0 -5 -4 -5 -10 -2 -15 9
-12 -2 6 -31 9 -14 26 -30 37 -36 17 -8 23 -6 37 12 32 42 42 13 14 -40 -14
-27 -23 -54 -19 -60 3 -5 2 -10 -3 -10 -13 0 -27 31 -31 66 0 7 -28 42 -62 79
-57 63 -90 117 -89 147 1 14 120 -111 120 -125z m4095 123 c3 -6 -1 -7 -9 -4
-18 7 -21 14 -7 14 6 0 13 -4 16 -10z m-592 -9 c4 -1 7 -39 7 -86 l0 -85 -41
-6 c-44 -7 -41 -21 6 -26 l30 -3 -4 -96 c-2 -53 0 -111 4 -129 13 -59 26 -16
32 103 l6 115 43 4 c64 5 66 4 59 -65 -8 -74 11 -61 21 15 l6 47 47 6 c96 13
152 25 169 35 13 9 8 10 -23 5 -22 -4 -75 -9 -117 -11 l-78 -4 0 91 0 91 148
-7 c188 -9 212 -17 232 -73 12 -36 12 -44 1 -51 -11 -7 -9 -18 9 -57 23 -53
40 -161 21 -134 -6 8 -20 44 -32 80 -29 87 -60 160 -68 160 -4 0 5 -38 21 -84
54 -163 133 -607 149 -841 11 -161 9 -449 -4 -461 -3 -4 -18 1 -33 11 -26 16
-27 16 -20 0 5 -14 3 -16 -11 -10 -27 12 -123 19 -123 9 0 -4 15 -24 33 -43
24 -25 27 -32 12 -27 -11 4 -62 19 -113 33 -88 23 -122 25 -122 6 0 -13 62
-85 67 -79 3 3 -6 19 -21 36 -14 17 -26 35 -26 40 0 10 101 -13 166 -38 115
-45 143 -37 78 24 -34 33 -34 34 -11 34 13 0 44 -7 70 -16 45 -15 46 -16 52
-67 6 -46 -7 -360 -20 -507 -6 -59 -37 -583 -55 -900 -31 -560 -41 -728 -45
-756 l-5 -31 -293 -7 c-160 -3 -327 -9 -369 -12 -75 -6 -78 -6 -78 14 0 49 24
53 443 78 104 6 134 17 81 30 -14 4 -136 5 -271 2 l-244 -5 2 65 c4 96 8 110
38 121 l26 9 -27 1 c-27 1 -28 3 -28 51 0 48 2 52 33 65 l32 14 -30 1 -30 0 3
957 c2 527 5 959 6 961 2 1 43 7 92 13 167 19 180 28 39 26 l-130 -2 -3 367
-2 368 22 5 c13 3 56 12 97 20 41 9 77 18 80 21 3 4 -38 4 -93 2 l-98 -4 4
285 c2 158 6 291 10 296 5 8 106 11 171 6z m141 -82 c4 -44 4 -83 2 -88 -9
-13 -99 -13 -107 1 -5 7 -9 48 -9 91 l0 77 54 0 53 0 7 -81z m-6204 -16 c0 -7
-5 -13 -12 -13 -7 0 -26 -14 -44 -31 l-32 -31 -28 48 -28 47 40 34 39 35 33
-38 c17 -20 32 -43 32 -51z m6786 66 c19 -16 18 -49 -2 -49 -14 0 -133 55
-144 67 -10 11 132 -7 146 -18z m174 -69 c33 -17 40 -25 40 -51 0 -36 -5 -35
-112 13 -64 29 -68 33 -68 64 l0 34 50 -20 c28 -11 69 -29 90 -40z m-5250 42
c0 -13 -12 -22 -22 -16 -10 6 -1 24 13 24 5 0 9 -4 9 -8z m-203 -102 c8 -20 4
-52 -10 -68 -8 -10 26 -49 144 -167 85 -85 158 -155 162 -155 21 0 -26 56
-140 167 -69 66 -124 126 -122 132 2 6 31 -15 64 -46 33 -31 82 -77 109 -102
l48 -46 -7 35 c-7 34 -6 34 74 -45 45 -44 81 -83 81 -87 0 -5 -10 -8 -23 -8
-13 0 -32 -7 -43 -15 -17 -13 -12 -14 61 -15 130 0 419 19 575 37 232 28 211
32 308 -69 45 -47 82 -91 82 -97 0 -7 -23 -11 -58 -11 -59 0 -59 0 -128 66
-38 36 -77 69 -86 75 -34 19 -19 -12 38 -77 31 -36 55 -66 53 -68 -2 -2 -39
-6 -81 -9 l-77 -5 -61 65 c-33 35 -65 63 -71 61 -5 -2 9 -30 31 -62 23 -32 38
-62 33 -66 -4 -4 -41 -10 -82 -13 -63 -4 -76 -2 -92 14 -19 19 -19 19 -19 0 0
-17 -15 -19 -244 -26 -134 -4 -250 -11 -257 -16 -35 -22 26 -29 277 -29 l261
0 41 -49 c61 -72 60 -75 -33 -81 -76 -5 -81 -4 -104 20 l-23 25 16 -27 c15
-26 15 -28 -1 -29 -265 -10 -384 -17 -390 -22 -17 -18 25 -22 230 -22 l221 -1
62 -74 c35 -41 60 -78 56 -82 -5 -5 -57 -17 -117 -28 l-109 -20 -24 27 -23 28
16 -27 c9 -14 12 -29 8 -31 -5 -3 -84 -14 -177 -23 -141 -16 -165 -20 -150
-31 30 -22 149 -13 412 30 l84 14 38 -41 c21 -23 52 -57 69 -76 l30 -35 -60
-8 c-56 -8 -63 -7 -85 14 -24 22 -35 14 -12 -9 18 -18 2 -20 -239 -31 -215
-10 -283 -20 -239 -37 10 -4 132 -5 272 -2 l254 6 67 -77 c37 -42 76 -86 87
-98 11 -13 17 -25 14 -28 -8 -8 -336 -62 -488 -81 -83 -9 -208 -24 -246 -28
l-42 -4 -7 197 c-18 511 -32 1016 -29 1020 8 9 74 -64 70 -76 -7 -16 30 -37
39 -23 14 22 -41 84 -200 226 -66 58 -124 114 -130 123 -17 28 -14 74 8 146
22 70 22 70 25 30 1 -22 5 -47 9 -55z m5235 58 l51 -22 -7 -170 c-9 -246 -18
-360 -27 -344 -10 18 -13 70 -5 89 4 9 -3 40 -15 70 -41 102 -69 195 -54 175
8 -11 15 -23 15 -28 0 -4 5 -8 10 -8 18 0 11 29 -24 98 -38 75 -59 142 -45
142 4 0 12 -15 17 -32 5 -20 16 -34 27 -36 15 -3 17 1 12 24 -3 16 -9 37 -12
47 -9 22 -4 22 57 -5z m263 12 c8 -13 -5 -13 -25 0 -13 8 -13 10 2 10 9 0 20
-4 23 -10z m50 -20 c3 -5 -1 -10 -9 -10 -9 0 -16 5 -16 10 0 6 4 10 9 10 6 0
13 -4 16 -10z m485 -5 c0 -7 -78 -45 -92 -45 -7 1 -26 7 -43 15 l-30 13 43 0
c23 -1 48 4 54 10 11 11 68 17 68 7z m-4837 -16 c-8 -8 -16 -8 -30 0 -16 9
-14 10 12 11 21 0 26 -3 18 -11z m4356 -36 c-18 -21 -39 -15 -39 12 0 23 2 24
25 13 19 -9 22 -14 14 -25z m61 33 c0 -2 -7 -6 -15 -10 -8 -3 -15 -1 -15 4 0
6 7 10 15 10 8 0 15 -2 15 -4z m185 -26 c13 -5 14 -9 5 -9 -8 0 -24 4 -35 9
-13 5 -14 9 -5 9 8 0 24 -4 35 -9z m-16 -23 c41 -12 76 -27 78 -33 5 -15 -49
-34 -95 -34 -46 0 -34 12 21 21 37 6 33 7 -29 8 -74 1 -102 15 -90 46 7 20 26
18 115 -8z m-4407 -22 c3 -14 2 -28 -2 -30 -8 -5 -210 -55 -222 -55 -14 0 -9
15 22 63 l30 47 84 0 c82 0 84 -1 88 -25z m4281 -5 c3 -11 4 -20 3 -20 -2 0
-18 5 -36 11 l-33 12 24 13 c28 14 35 12 42 -16z m-5557 -11 l29 -31 -37 22
c-21 12 -38 26 -38 31 0 17 16 9 46 -22z m-2024 -51 c-25 -26 -34 -30 -44 -20
-10 10 -6 19 21 43 24 21 38 26 45 19 7 -7 1 -20 -22 -42z m1738 22 c0 -10
-32 -30 -49 -30 -19 0 -12 17 12 28 28 14 37 14 37 2z m368 -57 c17 -13 32
-28 32 -34 0 -14 -27 4 -80 52 -34 32 -38 37 -15 24 17 -10 45 -29 63 -42z
m878 12 c9 -8 11 -15 6 -15 -5 0 -15 7 -22 15 -7 8 -9 15 -6 15 4 0 14 -7 22
-15z m1434 -253 l0 -47 -33 55 c-47 79 -107 214 -107 242 0 7 32 -36 70 -96
61 -94 70 -113 70 -154z m4344 206 c-15 -122 -14 -120 -74 -134 -30 -7 -82
-16 -115 -19 l-60 -7 -57 67 c-32 37 -58 70 -58 75 0 10 112 30 169 30 55 0
51 -23 -5 -30 -45 -6 -35 -16 23 -26 35 -5 43 -3 52 14 6 11 8 27 5 35 -3 8 0
18 7 23 16 9 67 22 97 23 22 1 22 -1 16 -51z m-8822 16 c-4 -22 -79 -114 -93
-114 -5 0 -15 -12 -21 -27 -7 -16 -35 -62 -63 -103 -27 -41 -57 -92 -67 -112
-17 -37 -38 -51 -38 -25 0 15 108 211 149 271 74 106 142 163 133 110z m7188
-270 c22 -102 33 -187 36 -269 l4 -120 -24 155 c-14 85 -34 205 -46 265 -11
61 -23 126 -25 145 l-5 35 14 -31 c8 -17 29 -98 46 -180z m-4827 155 c12 -7
37 -25 55 -40 18 -16 44 -32 57 -35 38 -9 30 -24 -13 -24 -31 0 -44 6 -67 33
-15 17 -37 42 -48 55 -23 24 -17 28 16 11z m108 -30 c24 -22 36 -38 26 -35
-10 3 -22 6 -27 6 -4 0 -20 16 -34 35 -36 47 -18 44 35 -6z m6334 -96 c-4 -43
-9 -81 -11 -84 -3 -6 -63 -15 -264 -38 l-75 -9 -54 54 c-30 31 -50 59 -45 63
5 5 54 16 109 26 l100 16 28 -31 c15 -17 30 -44 34 -61 3 -16 12 -29 20 -29
27 0 25 32 -6 82 -18 28 -30 52 -29 53 7 5 146 33 171 34 l29 1 -7 -77z
m-4327 -170 l-3 -58 -27 107 c-35 135 -34 149 3 71 25 -51 30 -72 27 -120z
m4319 -130 c-3 -102 -11 -191 -16 -196 -5 -5 -51 -20 -102 -33 l-93 -25 -56
56 c-50 51 -53 57 -38 69 22 16 12 27 -17 20 -17 -4 -36 10 -91 68 -74 78
-129 146 -123 152 2 2 42 8 89 14 l85 9 115 -120 c161 -169 159 -124 -3 52
-32 35 -55 67 -50 72 10 9 213 46 267 48 l39 1 -6 -187z m-2725 108 c40 -38
71 -71 68 -74 -3 -3 -39 -10 -80 -16 l-75 -11 -62 67 c-34 37 -59 71 -55 74 7
7 84 26 114 28 9 1 49 -30 90 -68z m-201 -33 l61 -63 -39 -7 c-21 -4 -58 -7
-83 -7 -43 0 -48 3 -99 62 -53 60 -54 62 -30 68 13 4 48 7 76 8 52 1 54 0 114
-61z m-6207 -95 c-26 -60 -51 -112 -56 -118 -9 -10 31 108 57 170 10 22 22 51
28 65 8 20 11 22 14 8 3 -10 -17 -66 -43 -125z m3626 60 c60 -55 62 -58 39
-64 -13 -4 -53 -7 -89 -8 -64 -1 -66 0 -122 50 -32 28 -58 54 -58 59 0 10 40
16 116 18 48 2 53 0 114 -55z m-232 -17 c31 -30 54 -58 50 -62 -4 -3 -47 -9
-95 -11 l-88 -5 -52 56 c-29 31 -53 58 -53 61 0 4 62 10 138 13 40 2 48 -2
100 -52z m2977 -116 c38 -38 66 -72 63 -75 -10 -11 -145 -18 -159 -9 -27 17
-122 124 -116 131 8 8 72 20 112 22 25 1 43 -11 100 -69z m-2588 -17 c72 -76
71 -79 -28 -89 l-64 -6 -67 62 c-38 34 -68 65 -68 69 0 5 24 13 53 18 101 20
104 19 174 -54z m-210 -35 c40 -34 70 -64 67 -67 -2 -3 -47 -12 -100 -22 l-95
-16 -64 70 c-36 39 -63 72 -61 75 6 6 98 20 141 21 35 1 49 -7 112 -61z m-240
-36 c71 -73 71 -74 -22 -91 l-59 -11 -78 77 c-43 42 -76 79 -74 80 7 7 131 19
150 14 11 -2 48 -34 83 -69z m5485 -13 c26 -28 48 -55 48 -59 0 -4 -28 -13
-62 -19 l-63 -12 -57 63 c-66 71 -63 78 26 78 59 0 61 -1 108 -51z m-4848 -35
c3 -26 6 -357 6 -735 l0 -689 -22 -5 c-13 -2 -115 -25 -228 -50 -113 -25 -313
-75 -445 -111 -417 -113 -578 -152 -612 -145 -7 1 -6 88 3 197 l6 71 127 12
c145 14 468 62 620 92 132 27 313 77 326 91 7 8 3 9 -15 4 -65 -16 -692 -117
-883 -141 -175 -22 -177 -22 -177 19 0 18 3 53 6 78 l6 45 137 7 c153 7 366
29 486 50 271 46 485 100 493 124 2 8 -5 8 -30 -2 -18 -8 -58 -17 -88 -21 -30
-4 -86 -13 -125 -21 -38 -7 -108 -18 -155 -23 -47 -6 -155 -20 -240 -31 -85
-12 -228 -24 -317 -27 l-163 -6 6 69 c4 40 12 74 20 80 8 6 53 14 102 18 258
20 816 108 841 132 3 3 47 -37 98 -88 51 -50 95 -89 98 -86 3 3 -28 42 -70 88
-41 45 -75 85 -75 90 0 5 23 16 50 25 28 9 50 21 50 25 0 5 -19 3 -41 -5 -75
-27 -92 -21 -154 47 l-56 63 48 12 c72 19 92 14 117 -32 13 -22 30 -41 39 -43
24 -5 21 7 -13 61 l-29 47 72 21 c177 52 209 76 46 35 -147 -37 -147 -37 -214
39 -32 36 -55 68 -53 71 3 2 28 7 55 11 49 5 50 5 62 -28 30 -79 28 -76 37
-55 6 17 3 31 -20 87 -6 13 8 20 76 39 137 38 143 55 8 25 -116 -25 -115 -26
-208 77 -46 51 -79 95 -74 100 5 5 38 11 73 14 l65 6 63 -71 c35 -39 66 -69
69 -66 3 3 -16 36 -41 74 -26 37 -47 70 -47 73 0 3 21 11 48 17 90 23 184 52
179 57 -3 3 -55 -5 -117 -16 -61 -12 -123 -19 -137 -15 -28 7 -179 152 -169
162 8 8 133 32 170 33 24 0 43 -15 104 -80 41 -44 77 -78 80 -75 6 5 -39 74
-80 123 -15 18 -28 37 -28 42 0 5 26 14 58 20 31 7 77 18 102 25 66 19 67 19
74 -31z m2365 -68 c41 -41 73 -78 69 -81 -3 -4 -33 -9 -65 -12 l-60 -5 -64 71
c-35 40 -65 76 -67 81 -3 9 28 16 82 19 23 1 43 -13 105 -73z m-2816 -75 c45
-44 80 -82 77 -85 -3 -3 -42 -8 -86 -12 l-80 -7 -68 77 c-38 42 -67 78 -65 81
5 4 94 22 122 24 10 0 55 -35 100 -78z m-202 -28 c86 -83 87 -93 9 -93 -43 0
-47 3 -103 69 -33 38 -60 73 -60 78 -2 6 29 17 67 22 4 0 44 -34 87 -76z
m5494 -13 c53 -53 74 -81 64 -84 -8 -2 -44 -7 -81 -10 l-67 -5 -66 76 c-36 42
-63 78 -60 81 7 7 68 20 100 21 25 1 44 -13 110 -79z m-2471 -91 c36 -39 66
-75 66 -80 0 -11 -23 -16 -103 -24 -63 -6 -71 -5 -95 16 -15 13 -21 17 -14 9
20 -23 14 -39 -15 -38 -16 0 -107 -5 -203 -11 -96 -7 -361 -15 -587 -18 l-413
-5 0 83 0 84 352 -3 c367 -4 560 5 768 37 182 29 168 31 244 -50z m2629 -78
c32 -33 57 -64 57 -69 0 -11 -25 -17 -105 -27 l-50 -6 -53 67 c-29 37 -50 69
-48 71 8 9 69 21 107 22 31 1 43 -6 92 -58z m-5429 -42 c97 -98 98 -102 22
-112 -43 -6 -30 -16 -159 121 -32 34 -55 66 -52 72 3 5 27 10 53 10 45 0 49
-2 136 -91z m-157 -15 c48 -52 89 -99 91 -104 2 -4 -23 -11 -55 -15 l-58 -7
-87 93 c-49 52 -88 99 -88 106 0 11 27 18 82 22 21 1 43 -17 115 -95z m194
-209 c30 -31 55 -60 57 -65 4 -10 -18 -17 -78 -24 -45 -6 -45 -6 -95 54 -27
33 -51 64 -53 69 -4 12 21 18 74 20 38 1 47 -4 95 -54z m-159 -25 c49 -51 69
-80 55 -80 -2 0 -77 -11 -168 -24 -90 -13 -258 -29 -374 -36 -244 -13 -295
-18 -295 -30 0 -4 14 -13 30 -19 30 -10 30 -10 30 -88 0 -43 -4 -83 -8 -89 -4
-6 -24 -17 -44 -23 -47 -16 -49 -31 -4 -31 19 0 37 -4 40 -9 3 -4 3 -38 -1
-75 l-6 -66 -46 0 c-90 0 -93 -31 -3 -45 l45 -7 -7 -75 c-3 -41 -8 -79 -12
-84 -3 -5 -22 -9 -43 -9 -21 0 -44 -6 -50 -14 -9 -11 -5 -15 20 -20 17 -3 41
-6 53 -6 21 0 21 -2 13 -102 -12 -151 -15 -166 -37 -173 -23 -7 -27 -25 -6
-25 8 0 17 -4 20 -9 4 -5 1 -89 -5 -188 -10 -175 -10 -178 -37 -201 -27 -22
-27 -22 -5 -28 20 -6 22 -13 25 -96 3 -86 2 -91 -19 -101 -29 -13 -30 -27 -3
-27 20 0 21 -5 18 -92 l-3 -93 -34 -3 -34 -4 6 423 c4 232 7 669 7 971 l0 548
24 -6 c24 -6 165 6 311 26 222 30 365 51 405 59 77 15 81 14 142 -49z m167
-184 c28 -30 51 -59 51 -63 0 -5 -89 -21 -197 -37 -109 -15 -207 -30 -218 -32
-31 -8 -510 -62 -514 -58 -2 1 0 44 4 93 l7 91 96 0 c98 0 484 34 563 49 24 5
69 9 100 10 55 1 57 0 108 -53z m-3574 -22 c14 -9 25 -20 25 -25 0 -6 29 -37
65 -71 36 -33 64 -62 62 -64 -9 -10 -132 34 -143 51 -14 23 -46 125 -38 125 3
0 16 -7 29 -16z m9173 -930 c5 -114 20 -106 -265 -143 -382 -49 -610 -70 -886
-81 -138 -5 -261 -10 -272 -10 -15 0 -16 -3 -7 -12 18 -18 356 -23 542 -9 334
26 587 60 762 102 49 12 95 19 103 15 20 -7 22 -186 3 -186 -7 0 -44 -5 -82
-10 -399 -58 -1180 -113 -1340 -94 l-59 6 7 157 c10 224 -3 204 130 196 253
-15 899 45 1216 114 47 11 99 18 115 17 30 -1 30 -2 33 -62z m-6614 -874 c25
-9 26 -13 26 -84 0 -68 -2 -74 -22 -80 -56 -14 -58 -11 -58 68 0 107 5 115 54
96z m4816 -55 c0 -17 -4 -18 -37 -9 -33 9 -28 24 7 24 20 0 30 -5 30 -15z
m-120 -5 c0 -5 -4 -10 -9 -10 -6 0 -13 5 -16 10 -3 6 1 10 9 10 9 0 16 -4 16
-10z m-2498 -111 c-2 -24 -8 -48 -13 -54 -5 -5 -37 -8 -72 -7 -34 1 -100 2
-147 3 l-85 1 67 12 c82 14 104 31 28 21 -30 -4 -52 -4 -49 -1 9 10 179 45
183 38 2 -4 6 -19 10 -34 11 -47 36 -35 36 16 0 42 11 58 35 52 6 -2 8 -23 7
-47z m4290 -25 c6 -13 9 -26 6 -29 -2 -3 -31 4 -63 15 -63 22 -89 26 -65 10 8
-5 10 -10 4 -10 -14 0 -52 29 -39 30 6 1 33 7 60 14 57 15 80 8 97 -30z
m-6464 -101 l-3 -88 -41 -3 -42 -3 5 68 c7 110 8 113 49 113 l35 0 -3 -87z
m6173 61 c17 -8 28 -18 26 -21 -9 -9 -78 18 -72 28 8 12 11 12 46 -7z m-4584
-50 c2 -6 -2 -14 -9 -17 -116 -46 -119 -47 -124 -33 -3 7 5 25 18 40 19 22 30
26 67 24 25 -2 46 -8 48 -14z m567 -10 c3 -9 6 -32 6 -51 0 -41 20 -41 -194 2
-77 16 -135 30 -130 32 13 4 242 30 280 32 21 1 34 -5 38 -15z m-1154 -379
c107 -9 281 -38 273 -46 -5 -3 -64 -14 -133 -23 l-125 -17 -161 25 c-89 14
-175 26 -190 27 -51 1 2 15 106 28 52 7 96 14 99 17 2 2 18 2 35 0 17 -3 60
-8 96 -11z"/>
<path d="M2870 6692 c0 -5 7 -15 16 -22 8 -8 19 -22 25 -32 9 -16 7 -17 -16
-8 -69 26 -84 2 -34 -55 36 -40 50 -40 23 -1 -9 15 -14 29 -12 32 3 3 32 -7
64 -21 31 -14 62 -24 68 -22 11 4 -64 89 -106 118 -15 11 -28 16 -28 11z"/>
<path d="M1586 5268 c27 -54 294 -311 308 -297 5 4 -311 329 -320 329 -2 0 3
-15 12 -32z"/>
<path d="M1530 5147 c0 -17 60 -94 122 -157 114 -115 328 -289 328 -266 0 2
-41 38 -91 81 -50 43 -151 139 -225 214 -73 75 -134 132 -134 128z"/>
<path d="M1560 4803 c0 -35 477 -410 496 -390 3 3 -83 72 -193 153 -109 81
-222 170 -250 198 -29 27 -53 45 -53 39z"/>
<path d="M5460 6836 c0 -2 7 -6 15 -10 8 -3 15 -1 15 4 0 6 -7 10 -15 10 -8 0
-15 -2 -15 -4z"/>
<path d="M4960 6779 c94 -82 533 -369 545 -357 3 2 -70 54 -163 115 -92 60
-219 147 -283 192 -119 82 -162 105 -99 50z"/>
<path d="M5464 6110 c-33 -13 -37 -38 -9 -66 13 -13 31 -24 40 -24 14 0 14 3
1 28 -8 16 -12 39 -9 50 6 24 6 24 -23 12z"/>
<path d="M4415 6720 c-11 -18 54 -98 146 -180 50 -44 96 -80 102 -80 6 0 -21
33 -59 73 -132 137 -154 162 -160 180 -6 19 -20 22 -29 7z"/>
<path d="M6200 6378 c0 -12 70 -108 142 -199 46 -57 35 -2 -13 67 -85 120
-129 166 -129 132z"/>
<path d="M5892 6203 l3 -48 -52 0 c-61 -1 -83 -15 -63 -40 11 -14 24 -15 67
-10 l53 6 0 -56 c0 -52 -2 -57 -20 -52 -28 7 -25 -15 6 -43 34 -33 44 -16 44
83 l0 77 43 0 c58 0 117 11 117 21 0 5 -38 9 -84 9 -90 0 -95 4 -96 67 0 12
-5 25 -11 28 -7 5 -9 -9 -7 -42z"/>
<path d="M5776 4868 c3 -13 13 -38 20 -57 8 -18 14 -44 14 -57 0 -15 6 -24 15
-24 23 0 18 35 -15 100 -31 61 -47 78 -34 38z"/>
<path d="M6070 4748 l0 -28 -139 0 c-146 0 -201 -6 -201 -22 0 -6 26 -8 68 -4
37 3 116 8 176 12 l108 6 -7 -119 c-6 -117 -31 -365 -40 -413 -4 -18 -3 -21 4
-10 20 33 42 194 49 360 l7 174 25 7 c23 7 23 7 3 8 -13 1 -28 12 -37 29 l-15
27 -1 -27z"/>
<path d="M6156 4742 c-7 -12 22 -38 31 -28 4 3 0 14 -9 22 -9 10 -18 12 -22 6z"/>
<path d="M8635 6170 c-19 -31 56 -88 101 -78 18 5 18 5 -1 12 -48 17 -70 33
-73 54 -4 23 -17 29 -27 12z"/>
<path d="M8540 4866 c0 -3 15 -15 33 -27 l32 -23 -24 27 c-22 24 -41 35 -41
23z"/>
<path d="M8800 4814 c0 -20 -7 -21 -227 -27 -209 -6 -263 -14 -234 -31 6 -4
90 -2 187 3 97 6 200 11 230 11 l54 0 0 -917 c0 -734 2 -914 13 -904 9 9 12
208 13 921 1 714 4 913 14 925 10 12 9 15 -7 15 -10 0 -24 5 -31 12 -9 9 -12
7 -12 -8z"/>
<path d="M2295 6360 c-13 -15 -15 -24 -8 -31 8 -8 13 -5 18 10 3 12 11 21 16
21 5 0 9 5 9 10 0 16 -15 12 -35 -10z"/>
<path d="M4260 7579 c0 -5 44 -9 98 -8 53 0 93 2 87 4 -25 8 -185 12 -185 4z"/>
<path d="M1385 7420 c-74 -4 -90 -8 -93 -22 -2 -11 8 -23 27 -32 37 -20 55
-20 48 -2 -4 9 4 16 21 20 15 3 331 9 702 12 371 4 677 8 679 10 2 2 2 6 0 8
-7 6 -1289 12 -1384 6z"/>
<path d="M4110 7335 c0 -8 82 -47 87 -41 3 2 -13 14 -36 25 -41 22 -51 25 -51
16z"/>
<path d="M2615 7295 c33 -8 71 -18 85 -21 48 -11 -2 -22 -200 -43 -569 -61
-1053 -100 -1490 -121 -118 -6 -240 -13 -270 -17 l-55 -7 55 -7 c110 -13 905
24 1205 56 28 3 79 7 115 10 141 11 391 37 505 52 140 18 185 33 185 62 0 24
-41 37 -135 45 l-60 5 60 -14z"/>
<path d="M12510 7260 c-12 -8 -9 -10 12 -10 15 0 30 5 33 10 8 13 -25 13 -45
0z"/>
<path d="M11630 7123 c-19 -1 -280 -12 -580 -23 -300 -11 -655 -25 -790 -30
-135 -5 -472 -17 -750 -25 -808 -24 -1180 -42 -1253 -60 -47 -12 -29 -25 26
-20 64 6 323 22 477 30 63 3 367 12 675 20 743 20 1389 43 1720 60 404 22 738
44 743 50 6 5 -207 4 -268 -2z"/>
<path d="M2293 7048 c-13 -6 -23 -14 -23 -18 0 -11 64 -20 145 -21 39 0 81 -4
95 -8 60 -18 -404 -33 -1523 -51 -348 -6 -606 -14 -615 -20 -15 -8 -15 -10 3
-11 11 -1 22 -1 25 -1 3 0 271 3 595 6 918 10 1433 31 1542 61 28 8 59 15 70
15 17 -1 17 -1 0 -11 -31 -18 -210 -66 -307 -83 -87 -15 -126 -13 -114 5 9 15
-220 11 -268 -5 -24 -8 -86 -18 -138 -21 -127 -9 -133 -11 -127 -43 3 -14 -2
-36 -10 -49 -9 -13 -13 -34 -11 -47 5 -23 2 -24 -72 -30 -42 -4 -174 -6 -293
-5 -212 1 -274 -4 -185 -15 23 -3 54 -7 68 -10 14 -2 -64 -4 -172 -6 -109 -1
-202 -4 -208 -5 -5 -1 -38 -4 -72 -5 -62 -3 -58 -4 30 -16 43 -5 43 -6 40 -42
l-3 -37 -62 -3 c-68 -3 -87 -21 -25 -23 37 -1 102 -15 92 -19 -3 -1 -67 -5
-142 -9 -128 -6 -160 -12 -145 -27 3 -3 71 -8 150 -11 l144 -6 36 -176 c20
-97 56 -275 82 -396 25 -121 45 -237 45 -257 l0 -38 -299 0 c-294 0 -361 -4
-361 -21 0 -12 728 -11 849 1 144 14 130 27 -22 22 l-134 -5 -7 67 c-4 37 -25
154 -47 259 -108 514 -112 539 -98 548 8 5 85 9 172 9 l157 0 0 -265 c0 -252
-1 -267 -22 -310 -27 -55 -16 -70 22 -28 37 42 45 123 37 396 l-7 208 111 -3
111 -3 27 -85 c15 -47 33 -94 39 -105 21 -37 14 9 -17 105 l-29 90 198 0 c110
0 201 4 204 9 7 10 -121 20 -279 22 -165 2 -100 16 80 18 136 1 174 8 161 29
-12 20 -70 29 -451 71 l-80 8 75 2 c41 0 149 6 240 12 138 8 179 15 253 40 49
16 98 29 109 29 24 0 104 -58 190 -137 58 -53 88 -66 88 -38 0 12 -58 63 -194
168 -20 15 -36 32 -36 37 0 4 13 14 30 22 17 7 29 19 27 28 -1 12 11 16 56 18
56 3 61 1 171 -67 110 -67 208 -121 222 -121 20 0 -40 47 -137 107 -114 72
-118 81 -35 82 32 1 54 -9 113 -50 41 -28 77 -48 81 -44 4 4 -15 27 -42 51
l-50 43 134 3 c206 5 177 41 -44 57 l-101 7 94 22 c127 31 171 50 171 73 0 27
-30 39 -123 49 -148 16 -231 19 -254 8z m10 -195 c-13 -2 -35 -2 -50 0 -16 2
-5 4 22 4 28 0 40 -2 28 -4z m327 -3 c0 -12 -167 -13 -225 -1 -30 7 -5 9 93
10 82 1 132 -3 132 -9z m-859 -30 c5 0 9 -4 9 -10 0 -14 -87 -62 -106 -58 -14
2 -10 11 19 42 24 25 42 36 53 32 8 -3 20 -6 25 -6z m229 0 c0 -13 -20 -13
-40 0 -12 8 -9 10 13 10 15 0 27 -4 27 -10z m-104 -43 l27 -24 -59 -16 c-33
-9 -82 -20 -109 -23 l-50 -6 70 46 c39 25 75 46 82 46 7 0 24 -10 39 -23z m84
13 c0 -5 -12 -10 -27 -10 -22 0 -25 2 -13 10 20 13 40 13 40 0z m-852 -157
c16 -4 22 -12 22 -34 l0 -29 -180 0 c-99 0 -180 4 -180 9 0 5 -3 23 -7 41 l-6
33 164 -7 c90 -4 174 -10 187 -13z m233 -21 c4 -4 10 -17 14 -30 l7 -23 -104
3 -103 3 -3 34 -3 34 93 -7 c51 -4 96 -11 99 -14z m214 -18 c77 -9 147 -20
155 -25 9 -5 -59 -8 -160 -6 l-175 2 -3 26 c-3 23 0 26 20 23 13 -2 86 -11
163 -20z m-445 -64 c10 -6 -38 -10 -145 -10 -88 0 -167 5 -175 10 -10 6 38 10
145 10 88 0 167 -5 175 -10z m235 0 c13 -6 -17 -9 -85 -9 -71 -1 -100 2 -90 9
18 12 147 12 175 0z"/>
<path d="M12325 6991 c-36 -4 -4 -8 112 -14 172 -7 193 -11 193 -33 0 -8 5
-14 10 -14 18 0 11 49 -9 60 -21 10 -219 11 -306 1z"/>
<path d="M10610 6913 c0 -5 15 -18 33 -30 17 -12 59 -40 91 -62 33 -23 61 -39
64 -36 8 8 -57 73 -107 106 -42 27 -81 38 -81 22z"/>
<path d="M10910 6916 c0 -7 72 -47 77 -43 6 7 -48 47 -63 47 -8 0 -14 -2 -14
-4z"/>
<path d="M3750 6904 c0 -18 36 -60 118 -139 100 -94 119 -109 127 -96 3 6 -41
58 -97 117 l-103 107 64 -32 c80 -41 92 -34 14 9 -59 32 -123 50 -123 34z"/>
<path d="M10271 6870 c77 -62 183 -140 193 -140 14 0 -68 83 -130 131 -28 21
-62 39 -75 39 -22 0 -21 -2 12 -30z"/>
<path d="M9166 6882 c47 -40 198 -174 277 -246 53 -49 99 -87 102 -84 11 11
-351 338 -374 338 -9 0 -11 -3 -5 -8z"/>
<path d="M12295 6859 c-260 -35 -390 -49 -457 -49 -40 0 -70 -5 -74 -12 -9
-14 153 -7 371 16 77 8 225 20 330 26 104 6 191 13 193 15 30 30 -154 32 -363
4z"/>
<path d="M760 6796 c0 -14 5 -28 10 -31 6 -4 10 7 10 24 0 17 -4 31 -10 31 -5
0 -10 -11 -10 -24z"/>
<path d="M2061 6782 c2 -6 49 -52 104 -102 79 -72 101 -88 104 -74 2 12 -13
34 -45 62 -56 51 -168 129 -163 114z"/>
<path d="M12106 6683 c-11 -68 -26 -257 -26 -320 l0 -63 -75 0 c-73 0 -75 1
-75 25 0 14 -4 25 -10 25 -5 0 -10 -11 -10 -24 0 -32 -6 -33 -185 -40 -82 -4
-176 -9 -208 -12 l-58 -6 3 83 3 84 64 7 c88 10 92 22 4 15 -51 -4 -73 -2 -77
6 -3 9 -7 9 -13 0 -5 -7 -56 -19 -113 -28 -118 -17 -210 -41 -210 -54 0 -5 17
-5 38 0 99 25 220 49 250 49 l32 0 0 -79 0 -79 -67 -7 c-293 -27 -353 -36
-353 -55 0 -14 28 -13 195 10 81 11 165 20 185 20 l38 0 4 -177 c2 -98 4 -179
3 -179 0 -1 -61 -9 -135 -18 -149 -18 -210 -32 -210 -46 0 -14 12 -13 188 11
152 21 156 21 169 3 12 -16 15 -17 23 -4 5 8 10 18 10 21 0 4 16 10 35 13 22
4 35 13 35 22 0 12 -8 13 -34 9 -30 -6 -34 -4 -40 19 -8 33 -27 328 -21 334 2
2 42 7 88 9 l85 6 -5 -126 c-6 -127 2 -188 17 -137 5 14 8 80 9 148 l1 122
125 0 125 0 -6 -26 c-9 -34 13 -24 26 12 9 22 15 24 78 24 l68 0 -3 -87 c-4
-80 -3 -86 11 -69 8 10 18 39 21 65 14 105 11 101 65 101 27 0 52 5 56 11 5 9
-8 10 -45 7 -28 -3 -54 -2 -56 3 -3 4 -6 98 -6 208 -1 111 -3 201 -4 201 -2 0
-6 -17 -9 -37z"/>
<path d="M8009 6626 c-20 -20 -1090 -37 -1297 -21 -95 8 -152 1 -135 -16 29
-29 524 -46 828 -29 274 15 679 53 669 63 -8 7 -58 10 -65 3z"/>
<path d="M12243 6593 c-7 -11 -16 -60 -19 -108 -6 -72 -5 -87 7 -83 19 6 30
70 27 148 -3 57 -4 62 -15 43z"/>
<path d="M11737 6542 c-4 -5 1 -13 11 -17 27 -13 282 -19 282 -7 0 19 -282 43
-293 24z"/>
<path d="M7830 6473 c-52 -2 -350 -4 -662 -5 -311 -2 -570 -6 -574 -10 -4 -5
-4 -11 0 -15 14 -14 1006 -9 1244 6 122 8 225 18 228 22 3 5 -28 8 -68 7 -40
-1 -116 -3 -168 -5z"/>
<path d="M11761 6113 c0 -31 2 -34 9 -18 12 28 12 55 0 55 -5 0 -10 -17 -9
-37z"/>
<path d="M3543 5963 c2 -16 23 -120 45 -233 123 -611 205 -1230 232 -1750 6
-113 15 -221 21 -241 6 -23 5 -226 -1 -555 -5 -286 -10 -586 -11 -669 0 -82
-3 -174 -7 -204 -5 -51 -6 -52 -19 -30 -14 24 -14 24 -8 -6 4 -16 13 -77 20
-134 13 -97 25 -135 38 -114 16 26 37 794 52 1898 12 910 24 1077 41 607 4
-112 10 -198 15 -191 27 44 16 477 -17 679 -17 104 -20 405 -8 723 6 160 5
177 -10 177 -12 0 -16 -9 -16 -38 0 -21 -3 -41 -6 -45 -4 -3 -29 19 -56 48
-65 71 -95 73 -36 3 24 -28 53 -62 66 -75 22 -24 31 -73 12 -73 -6 0 -41 39
-78 87 -98 126 -110 139 -118 131 -4 -4 -2 -13 3 -20 20 -25 46 -129 155 -613
10 -46 12 -162 11 -510 -3 -567 -8 -608 -39 -335 -72 635 -210 1442 -255 1497
-19 22 -32 15 -26 -14z m318 -243 l30 -45 -35 40 c-45 51 -46 35 -1 -35 60
-96 38 -106 -25 -12 -17 25 -35 64 -41 86 -5 23 -13 50 -16 61 -6 25 43 -29
88 -95z m0 -151 c15 -30 19 -55 17 -102 l-3 -62 -18 75 c-11 41 -22 90 -27
107 -10 42 4 33 31 -18z"/>
<path d="M1130 5687 c11 -12 48 -18 148 -24 74 -5 135 -6 138 -2 2 3 -54 11
-124 18 -70 6 -138 14 -152 18 -22 5 -23 4 -10 -10z"/>
<path d="M3374 5605 c3 -11 21 -63 42 -115 67 -173 151 -540 155 -680 2 -56 0
-65 -14 -62 -24 4 -21 -15 4 -28 40 -22 49 -7 49 77 0 159 -55 382 -164 666
-28 72 -80 176 -72 142z"/>
<path d="M10854 5200 c-12 -5 -25 -13 -28 -19 -9 -15 39 -68 139 -155 23 -20
26 -25 13 -26 -22 0 -23 -16 -2 -24 24 -9 64 -7 64 3 0 5 -37 42 -82 82 -46
40 -83 78 -83 83 0 6 -4 14 -10 18 -6 5 -4 8 5 9 8 0 24 3 35 5 11 3 230 8
488 11 257 3 467 10 467 14 0 12 -978 10 -1006 -1z"/>
<path d="M11315 5149 c-8 -12 19 -44 88 -101 65 -55 60 -29 -7 34 -31 29 -52
57 -49 64 6 17 -23 19 -32 3z"/>
<path d="M11596 5141 c-5 -7 135 -131 149 -131 17 0 -2 22 -55 61 -32 24 -59
52 -60 62 0 18 -25 24 -34 8z"/>
<path d="M11090 5126 c0 -14 162 -148 170 -139 3 2 -15 23 -40 45 -25 22 -61
56 -81 74 -40 37 -49 41 -49 20z"/>
<path d="M11860 5111 c0 -5 12 -12 28 -16 15 -3 42 -18 60 -31 17 -14 32 -21
32 -16 0 11 -43 42 -84 59 -34 15 -36 16 -36 4z"/>
<path d="M12205 5073 c-70 -15 -165 -47 -165 -56 0 -10 20 -8 185 16 55 9 125
19 155 23 l55 8 -50 7 c-55 8 -149 9 -180 2z"/>
<path d="M11729 4996 c-15 -14 -285 -38 -509 -45 -205 -6 -272 -11 -294 -23
-39 -20 -18 -31 36 -19 24 5 153 15 288 21 136 6 300 20 368 30 67 11 125 20
127 20 3 0 5 5 5 10 0 10 -13 14 -21 6z"/>
<path d="M2551 4884 c-14 -14 -21 -30 -17 -39 3 -8 -10 -50 -28 -93 -59 -134
-116 -352 -92 -352 11 0 31 54 86 235 72 233 64 221 153 229 102 10 116 24 17
18 -69 -4 -80 -2 -80 12 0 21 -10 19 -39 -10z"/>
<path d="M995 4850 c3 -5 34 -10 68 -10 34 0 79 -4 99 -9 53 -12 38 4 -16 18
-56 14 -160 15 -151 1z"/>
<path d="M311 4817 c-55 -15 -72 -44 -20 -33 104 21 199 28 426 30 139 1 256
6 260 9 12 13 -619 6 -666 -6z"/>
<path d="M366 4721 c-13 -20 6 -40 32 -35 15 3 67 -6 117 -21 124 -36 265 -50
310 -30 19 7 35 16 35 18 0 2 -24 2 -52 -1 -63 -5 -208 19 -327 53 -94 28
-107 29 -115 16z"/>
<path d="M929 4640 c38 -17 194 -41 222 -35 15 4 35 16 45 27 19 21 19 21 -1
12 -23 -10 -121 -11 -220 -1 -52 6 -64 5 -46 -3z"/>
<path d="M2575 4634 c-11 -3 -30 -7 -42 -10 -13 -2 -23 -10 -23 -18 0 -10 11
-11 53 -4 28 5 176 8 327 7 151 -1 307 -1 345 1 39 3 152 4 253 5 100 0 182 3
182 7 0 12 -196 21 -315 13 -66 -4 -133 -7 -150 -7 -16 0 -160 3 -320 6 -159
3 -299 3 -310 0z"/>
<path d="M368 4543 c-16 -2 -28 -9 -28 -15 0 -7 108 -8 363 -3 516 11 565 22
92 22 -220 0 -412 -2 -427 -4z"/>
<path d="M7690 4369 c-236 -21 -626 -38 -882 -39 -182 0 -240 -13 -121 -26
102 -11 727 3 903 21 146 14 357 48 368 60 8 7 -38 5 -268 -16z"/>
<path d="M6383 4190 c0 -41 2 -58 4 -37 2 20 2 54 0 75 -2 20 -4 3 -4 -38z"/>
<path d="M8020 4233 c-115 -20 -746 -72 -1010 -84 -402 -17 -443 -20 -432 -31
18 -18 644 -3 882 21 311 31 619 77 637 95 12 12 -3 12 -77 -1z"/>
<path d="M3587 4134 c-4 -4 -7 -16 -7 -27 0 -16 3 -17 14 -8 23 19 36 -60 48
-304 13 -253 2 -602 -33 -995 -11 -129 -21 -314 -22 -410 -2 -153 0 -175 14
-178 14 -2 17 14 22 120 3 68 16 238 29 378 30 340 33 1018 5 1222 -23 168
-44 228 -70 202z"/>
<path d="M3476 3933 c-4 -82 -11 -209 -16 -283 -13 -174 -13 -667 -1 -674 5
-4 12 27 15 66 6 84 18 1038 12 1038 -2 0 -6 -66 -10 -147z"/>
<path d="M8005 4044 c-11 -2 -155 -18 -320 -35 -228 -23 -387 -32 -659 -40
-198 -5 -362 -12 -365 -14 -2 -3 -1 -8 3 -12 12 -13 678 -8 826 5 291 26 516
64 544 92 10 10 8 10 -29 4z"/>
<path d="M7875 3889 c-316 -37 -851 -69 -1157 -69 -110 0 -178 -4 -178 -10 0
-5 12 -13 26 -16 48 -12 792 4 969 21 293 28 446 53 460 75 7 11 -19 11 -120
-1z"/>
<path d="M10798 3845 c-6 -6 -703 -91 -903 -109 -88 -8 -236 -20 -330 -26
-187 -12 -225 -17 -225 -31 0 -12 250 -11 425 1 304 22 611 62 883 116 170 33
237 53 181 54 -14 0 -28 -2 -31 -5z"/>
<path d="M10907 3334 c-8 -155 -7 -358 2 -399 5 -24 8 -27 16 -15 12 18 9 488
-3 520 -6 16 -11 -17 -15 -106z"/>
<path d="M8140 3340 c-20 -7 -390 -45 -735 -75 -58 -5 -742 -45 -777 -45 -10
0 -18 -5 -18 -12 0 -15 580 -4 830 16 443 37 727 80 738 114 4 14 -2 14 -38 2z"/>
<path d="M8060 2561 c0 -5 8 -12 17 -15 31 -12 -3 -29 -74 -36 -37 -4 -162
-19 -278 -33 -337 -42 -874 -86 -1050 -87 -55 0 -124 -3 -153 -7 -50 -6 -53
-7 -50 -32 2 -16 12 -30 28 -37 27 -13 182 -29 240 -26 19 1 68 0 107 -4 68
-5 72 -7 62 -25 -11 -22 -4 -39 17 -39 8 0 23 -6 34 -12 15 -9 23 -10 28 -2
12 18 49 34 80 34 16 0 84 -11 152 -25 117 -24 169 -30 159 -20 -3 2 -72 18
-154 35 -137 29 -176 44 -157 61 14 13 407 51 457 45 34 -4 45 -3 35 3 -54 36
69 19 494 -69 153 -31 214 -35 116 -7 -101 28 -415 107 -427 107 -7 0 -13 4
-13 8 0 7 75 21 251 47 30 5 48 0 253 -59 169 -49 398 -99 425 -93 9 2 -4 9
-29 15 -144 38 -360 98 -460 129 l-115 35 52 23 c80 36 169 28 368 -30 221
-65 255 -74 255 -67 0 4 -50 22 -110 41 -74 23 -117 42 -132 59 l-23 25 60 -5
c33 -3 121 -20 195 -38 74 -17 164 -38 200 -46 36 -8 166 -43 288 -77 189 -52
219 -63 190 -68 -18 -4 -206 -9 -418 -13 -405 -6 -570 -14 -995 -47 -919 -70
-1955 -201 -2348 -297 -110 -27 -138 -42 -77 -42 15 0 81 11 146 24 184 37
676 111 974 145 540 62 768 86 1118 116 100 9 204 18 230 20 486 45 1455 84
1579 64 56 -9 77 -9 86 0 6 6 36 12 66 12 31 1 -2 6 -74 11 -71 4 -143 12
-160 17 -16 5 -165 48 -330 96 -212 61 -310 85 -335 82 -22 -3 -93 10 -188 35
-174 45 -239 48 -235 11 3 -26 -4 -27 -61 -11 -60 17 -65 26 -17 34 85 14 28
16 -84 4 -102 -12 -117 -12 -128 2 -6 9 -27 21 -46 27 -41 13 -41 13 -41 2z
m-900 -202 c-25 -4 -76 -7 -115 -7 -64 1 -66 2 -25 8 25 4 77 7 115 7 66 0 67
0 25 -8z m-275 -10 c-22 -4 -94 -7 -160 -7 l-120 2 95 6 c52 3 124 7 160 7 59
1 61 0 25 -8z"/>
<path d="M11320 2476 c0 -2 16 -21 35 -42 35 -39 103 -163 110 -199 2 -11 4
-63 4 -114 1 -111 20 -115 28 -8 7 77 -20 178 -64 243 -58 84 -113 143 -113
120z"/>
<path d="M11082 2413 c2 -5 24 -51 50 -103 53 -108 73 -194 65 -281 -4 -48 -2
-61 10 -66 26 -10 34 19 30 113 -3 71 -10 103 -31 150 -26 56 -113 194 -123
194 -3 0 -3 -3 -1 -7z"/>
<path d="M5427 2377 c-12 -32 -276 -98 -742 -186 -143 -27 -327 -59 -410 -71
-166 -24 -207 -40 -102 -40 113 0 613 79 890 141 49 11 98 18 107 17 9 -2 23
2 31 8 8 6 37 19 64 29 129 47 182 80 173 107 -3 8 -6 6 -11 -5z"/>
<path d="M5700 2232 c0 -7 23 -23 50 -37 28 -14 50 -21 50 -16 0 5 -13 14 -30
21 -16 7 -30 15 -30 19 0 19 285 -24 552 -83 60 -13 106 -20 103 -16 -6 10
-167 48 -353 84 -155 30 -342 45 -342 28z"/>
<path d="M7499 2066 c-2 -3 -63 -10 -134 -16 -306 -26 -855 -100 -1335 -180
-129 -21 -298 -48 -375 -60 -388 -60 -907 -148 -1028 -174 -42 -9 -83 -16 -90
-14 -16 3 -201 -31 -257 -47 -25 -8 -73 -18 -106 -24 -34 -7 -207 -52 -385
-101 -376 -105 -529 -143 -653 -165 -101 -17 -258 -20 -286 -5 -22 12 -38 -6
-21 -23 17 -17 195 -21 297 -7 101 13 364 77 593 145 172 50 172 50 165 33 -8
-20 -68 -44 -224 -88 -80 -23 -172 -53 -205 -67 -177 -73 -245 -106 -245 -119
0 -27 33 -22 135 23 232 102 565 225 740 274 39 11 78 24 87 29 23 13 32 -3
24 -46 -6 -27 -3 -36 10 -41 21 -8 33 13 34 57 1 33 2 34 11 10 14 -35 39 -60
60 -60 10 0 25 -10 33 -22 19 -26 35 -15 18 12 -19 31 -15 32 39 4 70 -35 126
-22 83 20 -14 15 -14 17 0 22 9 3 13 10 10 15 -3 5 0 9 6 9 15 0 30 -45 30
-94 0 -23 6 -51 14 -61 13 -18 14 -18 25 3 6 11 11 28 11 36 0 11 10 16 33 16
51 0 268 38 317 55 25 9 69 17 97 18 l53 2 0 36 c0 50 -11 99 -21 99 -5 0 -9
-22 -9 -49 0 -28 -6 -53 -13 -59 -7 -6 -75 -16 -151 -22 -75 -6 -170 -17 -209
-23 -106 -18 -102 -21 -105 48 -2 33 -5 66 -7 73 -8 23 -34 12 -42 -19 l-8
-30 -40 34 -40 35 45 12 c25 6 52 13 60 15 29 9 1010 173 1163 196 75 10 90
10 97 -1 7 -12 18 -12 62 -2 188 41 422 85 579 108 l181 26 61 -31 c75 -39 87
-39 87 -3 0 36 25 48 119 58 57 5 78 3 107 -11 29 -13 43 -15 68 -7 25 8 27
10 9 11 -43 2 -23 21 22 21 25 0 45 -4 45 -9 0 -4 22 -2 49 5 72 18 330 -1
466 -35 22 -6 72 -11 112 -11 61 0 75 3 92 21 18 20 26 21 114 14 68 -5 97 -3
102 5 4 6 21 20 37 30 27 16 35 16 84 5 56 -13 75 -4 27 13 -23 8 -11 10 67
16 129 8 832 34 1110 41 210 4 220 4 154 -9 -96 -18 -114 -25 -114 -42 0 -19
27 -29 43 -16 11 9 47 16 73 13 12 -1 29 -49 21 -58 -2 -2 -24 2 -48 8 -37 10
-50 9 -74 -3 l-29 -15 52 -52 c50 -50 63 -71 43 -71 -12 0 -110 108 -134 148
-19 32 -47 43 -47 19 0 -20 54 -93 121 -164 45 -46 59 -69 59 -91 0 -28 33
-71 43 -55 2 4 7 24 11 44 l6 36 113 6 c61 4 143 7 180 7 56 0 78 5 130 32 65
33 65 47 0 28 -55 -15 -423 -26 -423 -12 0 18 22 62 32 62 13 0 9 58 -7 97 -8
20 -13 38 -11 40 10 10 153 23 361 33 176 8 231 8 242 -2 10 -8 56 -12 136
-12 l122 -1 5 -33 c7 -43 24 -46 28 -4 4 41 18 41 26 0 3 -17 14 -40 22 -50
16 -17 18 -16 46 7 27 23 38 25 125 25 80 0 94 2 89 15 -8 23 26 35 106 36 69
1 71 2 28 10 -25 4 -66 8 -92 8 -26 1 -50 6 -53 11 -3 6 -17 7 -29 4 -13 -3
-167 -1 -342 6 -308 10 -1671 15 -1811 5 -37 -2 -153 -7 -258 -10 -271 -8
-870 -34 -1069 -45 -275 -16 -372 -20 -361 -16 9 4 232 29 500 56 61 6 114 16
120 21 5 5 1 9 -11 9 -12 0 -23 -2 -25 -4z m3186 -66 c42 -5 49 -8 25 -9 -19
-1 -64 -8 -99 -16 -52 -13 -66 -13 -73 -3 -24 39 9 45 147 28z m-2619 -26 c-3
-9 -6 -18 -6 -20 0 -2 -47 -4 -103 -4 -76 0 -113 -4 -136 -16 -26 -13 -48 -15
-108 -9 -42 4 -94 13 -116 21 -22 8 -64 14 -95 14 -30 0 -53 3 -49 6 8 9 251
21 451 22 150 2 167 0 162 -14z m-1331 -64 c3 -5 -1 -10 -9 -10 -8 0 -18 5
-21 10 -3 6 1 10 9 10 8 0 18 -4 21 -10z m2835 -20 c13 -9 13 -11 0 -20 -31
-20 -69 -8 -49 17 13 15 28 16 49 3z m-5295 -339 c-14 -13 -252 -87 -305 -95
-69 -10 -30 7 95 44 61 18 130 38 155 45 56 17 67 18 55 6z m155 -31 c0 -3
-16 -4 -36 -2 -29 4 -36 1 -41 -17 -3 -12 -13 -21 -25 -21 -16 0 -17 -3 -8
-21 14 -26 6 -36 -15 -19 -18 15 -49 70 -42 76 2 2 32 10 68 17 46 10 69 10
82 3 9 -6 17 -13 17 -16z m7 -97 c26 -15 41 -29 35 -31 -12 -4 -88 33 -97 48
-11 18 15 11 62 -17z"/>
<path d="M3085 2001 c-16 -10 -91 -51 -165 -91 -74 -40 -169 -95 -210 -123
-141 -95 -290 -259 -325 -357 -19 -53 -19 -120 -2 -145 12 -16 15 -11 19 43 9
98 53 168 187 302 133 132 255 222 423 311 65 35 118 67 118 71 0 12 -12 9
-45 -11z"/>
<path d="M10122 1887 c-6 -29 -12 -63 -12 -75 0 -25 25 -30 34 -6 9 23 7 134
-2 134 -4 0 -13 -24 -20 -53z"/>
<path d="M3738 1903 c-11 -3 -18 -13 -17 -26 0 -12 3 -16 6 -9 6 16 88 16 248
-3 72 -9 153 -18 180 -21 28 -2 79 -9 115 -14 36 -5 72 -9 80 -8 8 0 52 -3 98
-7 59 -6 82 -5 82 4 0 6 -1 11 -3 11 -24 0 -356 32 -367 35 -23 7 -352 45
-380 44 -14 -1 -33 -3 -42 -6z"/>
<path d="M5520 1815 c0 -8 5 -15 10 -15 6 0 10 7 10 15 0 8 -4 15 -10 15 -5 0
-10 -7 -10 -15z"/>
<path d="M3255 1770 c3 -5 27 -10 53 -10 26 0 119 -9 207 -21 157 -20 486 -38
474 -25 -3 3 -80 11 -170 17 -90 5 -236 19 -323 29 -179 22 -250 25 -241 10z"/>
<path d="M3085 1731 c11 -5 38 -10 60 -10 22 -1 147 -17 279 -36 131 -19 254
-34 275 -34 l36 1 -40 9 c-174 38 -659 93 -610 70z"/>
<path d="M6876 1715 c-448 -27 -766 -79 -908 -151 -120 -60 -113 -87 9 -34
139 59 324 98 663 139 150 19 412 41 483 41 16 0 26 4 22 10 -3 6 -16 9 -28 9
-12 -1 -120 -7 -241 -14z"/>
<path d="M12165 1639 c-22 -4 -330 -13 -685 -19 -355 -7 -656 -15 -670 -20
-53 -16 342 -22 785 -11 534 13 683 20 691 32 3 5 -10 9 -28 9 -19 0 -38 4
-43 8 -6 5 -28 5 -50 1z"/>
<path d="M4635 1260 c-22 -5 -79 -14 -126 -20 -96 -13 -123 -24 -99 -40 17
-11 50 -7 170 22 88 21 154 48 115 47 -11 -1 -38 -5 -60 -9z"/>
<path d="M3175 1004 c-608 -85 -882 -133 -1170 -206 -133 -33 -392 -110 -446
-131 -19 -8 -43 -17 -53 -21 -10 -3 -16 -9 -14 -12 3 -3 68 15 144 40 196 63
258 80 434 121 305 71 762 149 1155 196 55 7 107 16 115 20 22 12 -47 9 -165
-7z"/>
</g>
</svg>
