<?xml version="1.0" standalone="no"?>
<!DOCTYPE svg PUBLIC "-//W3C//DTD SVG 20010904//EN"
 "http://www.w3.org/TR/2001/REC-SVG-20010904/DTD/svg10.dtd">
<svg version="1.0" xmlns="http://www.w3.org/2000/svg"
 width="225.000000pt" height="350.000000pt" viewBox="0 0 225.000000 350.000000"
 preserveAspectRatio="xMidYMid meet">

<g transform="translate(0.000000,350.000000) scale(0.100000,-0.100000)"
fill="#000000" stroke="none">
<path d="M370 3497 c0 -2 15 -59 34 -128 19 -68 48 -182 66 -252 30 -123 31
-130 14 -148 -9 -11 -29 -25 -43 -33 -14 -8 -78 -42 -142 -77 -64 -35 -157
-84 -208 -109 l-91 -44 0 -292 0 -293 26 14 c45 23 194 68 201 61 11 -11 -35
-91 -89 -152 -49 -56 -98 -140 -98 -168 0 -8 -5 -18 -12 -22 -18 -12 -2 92 23
140 11 22 30 51 42 64 26 28 8 29 -49 1 l-43 -22 -1 -185 0 -185 48 -56 c81
-93 119 -160 140 -246 11 -44 23 -89 27 -100 4 -11 -16 19 -46 67 -70 114
-163 240 -167 228 -2 -6 26 -50 62 -98 36 -49 86 -129 111 -178 47 -93 49
-107 24 -189 -55 -184 -91 -329 -93 -369 l-1 -50 45 -13 c41 -13 300 -62 326
-63 5 0 53 -38 105 -85 130 -118 315 -212 426 -217 39 -1 41 -2 32 -25 -20
-54 -4 -203 22 -203 17 0 69 93 91 161 l21 68 68 0 c141 0 324 88 448 215 72
73 73 73 322 115 150 25 189 41 189 77 0 14 -16 85 -36 158 -79 287 -75 268
-59 286 8 9 44 34 80 55 36 21 64 40 61 42 -6 6 -64 -24 -117 -62 l-46 -33 60
147 c78 192 107 278 106 315 0 22 -10 1 -33 -69 -108 -329 -294 -719 -419
-878 -22 -29 -27 -41 -18 -47 9 -5 9 -10 3 -14 -6 -3 -12 -1 -14 5 -2 6 -21
-10 -43 -36 -96 -118 -286 -234 -415 -253 -65 -10 -73 -10 -120 3 -24 6 -27 2
-38 -40 -7 -26 -29 -80 -49 -121 -43 -87 -56 -82 -56 25 -1 68 12 106 45 129
17 13 27 39 10 28 -19 -12 -95 19 -137 56 -25 22 -45 35 -45 30 0 -15 69 -73
109 -91 l36 -16 -49 -3 c-103 -7 -283 78 -417 197 -147 130 -285 421 -385 811
-48 188 -65 400 -41 521 9 46 14 95 11 109 -3 19 -3 21 4 6 7 -15 10 -11 21
25 19 63 67 154 113 215 62 82 151 149 291 218 70 34 124 66 120 71 -5 4 -3 5
4 1 16 -9 76 22 68 35 -4 5 -3 8 2 7 5 -2 19 7 33 20 33 31 40 28 33 -15 -14
-100 -74 -224 -206 -421 -60 -89 -93 -149 -90 -160 2 -10 -11 -40 -30 -68
-117 -170 -182 -395 -194 -664 -6 -144 6 -267 32 -322 8 -18 13 -24 9 -13 -33
113 -38 378 -10 540 20 111 60 243 105 338 44 92 81 135 48 54 -31 -73 -42
-172 -42 -367 1 -249 27 -394 108 -590 54 -131 178 -320 210 -320 6 0 -3 15
-20 32 -115 123 -222 366 -262 598 -20 120 -32 265 -20 252 25 -26 129 -231
134 -265 17 -113 80 -287 103 -287 5 0 -4 26 -20 58 -52 106 -85 289 -70 390
4 31 22 36 22 5 0 -25 68 -180 125 -283 44 -79 53 -104 54 -150 2 -65 24 -146
57 -211 38 -77 46 -66 10 13 -79 173 -73 342 21 521 42 81 131 176 181 194 32
11 32 11 -18 -39 -27 -28 -50 -55 -50 -60 0 -5 -13 -28 -29 -51 -30 -44 -61
-111 -61 -131 0 -6 13 15 29 46 62 122 122 173 223 190 36 6 88 8 121 4 l58
-8 -38 -41 c-54 -59 -84 -111 -77 -133 4 -13 3 -15 -3 -6 -11 14 -64 -92 -89
-176 -22 -73 -10 -58 25 31 30 76 70 157 56 113 -26 -84 -45 -178 -44 -220 1
-28 3 -42 5 -31 32 160 55 209 138 290 61 60 166 126 166 105 0 -6 -11 -32
-24 -58 -37 -74 -95 -222 -87 -222 4 0 13 12 20 27 14 31 172 227 255 318 51
55 55 58 56 34 0 -14 -9 -61 -20 -104 -11 -43 -18 -80 -16 -83 3 -2 15 29 27
69 18 56 23 100 23 181 l1 107 23 -22 c31 -28 52 -70 52 -100 0 -35 -53 -236
-91 -343 -57 -165 -156 -355 -228 -439 l-26 -30 29 25 c109 95 265 445 320
715 40 199 62 484 42 556 -6 20 -5 21 4 7 6 -10 22 -71 36 -135 55 -267 20
-610 -82 -803 -29 -55 -31 -61 -9 -35 35 42 80 162 106 286 27 126 32 390 11
504 -15 78 -47 186 -69 228 -20 40 -2 32 26 -11 76 -117 132 -255 152 -372 14
-82 12 -267 -5 -335 -8 -33 -13 -61 -11 -63 2 -2 11 21 21 50 15 42 19 81 18
188 -1 207 -47 358 -164 535 -67 101 -76 137 -87 341 -4 85 -2 129 11 187 10
42 21 79 25 81 4 3 13 -12 19 -32 7 -23 43 -72 92 -127 110 -122 171 -245 231
-465 7 -25 15 -101 19 -170 4 -72 7 111 8 427 l2 551 -52 24 c-29 12 -129 61
-223 108 l-170 85 1 60 c0 33 8 92 17 130 57 249 67 293 67 308 0 15 -16 17
-149 17 -110 0 -151 -3 -155 -12 -5 -10 -7 -10 -12 0 -4 9 -99 12 -425 12
l-419 0 -1 -22 0 -23 -11 23 c-11 22 -15 22 -180 22 -92 0 -168 -1 -168 -3z
m1210 -76 c0 -11 -4 -23 -10 -26 -6 -4 -10 5 -10 19 0 14 5 26 10 26 6 0 10
-9 10 -19z m-830 -32 c0 -11 -4 -17 -10 -14 -5 3 -10 15 -10 26 0 11 5 17 10
14 6 -3 10 -15 10 -26z m813 -69 c-8 -29 -21 -25 -15 5 2 14 8 23 12 20 5 -3
6 -14 3 -25z m-793 -21 c0 -11 -4 -17 -10 -14 -5 3 -10 15 -10 26 0 11 5 17
10 14 6 -3 10 -15 10 -26z m776 -87 c-12 -11 -18 7 -10 30 l8 23 4 -23 c2 -13
1 -26 -2 -30z m-756 -3 c0 -11 -4 -17 -10 -14 -5 3 -10 15 -10 26 0 11 5 17
10 14 6 -3 10 -15 10 -26z m749 -51 c0 -7 -4 -22 -9 -33 -7 -17 -9 -15 -9 13
-1 17 4 32 9 32 6 0 10 -6 9 -12z m-729 -39 c0 -11 -4 -17 -10 -14 -5 3 -10
15 -10 26 0 11 5 17 10 14 6 -3 10 -15 10 -26z m701 -92 c-8 -8 -11 -4 -11 14
0 33 14 47 18 19 2 -12 -1 -27 -7 -33z m-681 2 c0 -11 -4 -17 -10 -14 -5 3
-10 15 -10 26 0 11 5 17 10 14 6 -3 10 -15 10 -26z m661 -92 c-13 -13 -15 11
-4 40 7 16 8 15 11 -6 2 -13 -1 -28 -7 -34z m-641 2 c0 -11 -4 -17 -10 -14 -5
3 -10 15 -10 26 0 11 5 17 10 14 6 -3 10 -15 10 -26z m625 -68 c-3 -12 -11
-19 -16 -16 -5 4 -5 14 2 26 13 26 23 18 14 -10z m-605 -12 c0 -11 -4 -17 -10
-14 -5 3 -10 13 -10 21 0 8 5 14 10 14 6 0 10 -9 10 -21z m613 -51 c-2 -26 1
-28 33 -28 l36 0 -7 -42 c-10 -65 -54 -248 -64 -265 -6 -12 -10 -7 -15 19 -6
35 24 195 44 229 7 13 4 18 -14 21 -46 9 -166 9 -166 1 0 -5 35 -10 77 -12 43
-1 79 -3 80 -5 3 -3 -23 -128 -34 -166 -4 -13 -6 -12 -14 3 -16 28 -76 21
-148 -18 -36 -19 -66 -33 -67 -32 -2 2 16 45 40 97 25 52 47 105 51 117 l6 23
-188 -5 c-156 -3 -315 -13 -319 -19 0 0 2 -32 6 -71 6 -65 0 -95 -20 -95 -8 0
-35 189 -28 195 2 2 24 5 48 7 47 3 86 26 71 41 -12 12 -33 -1 -25 -15 4 -6 1
-9 -6 -6 -22 7 -23 26 -1 38 30 16 64 -4 55 -32 -6 -21 -5 -21 112 -14 66 3
181 7 257 7 l139 1 -6 22 c-7 30 2 38 39 34 26 -3 30 -7 28 -30z m-462 -145
c12 -38 25 -72 29 -78 4 -5 10 -25 14 -44 l6 -33 -33 24 c-48 35 -83 51 -116
52 -18 1 -31 6 -31 14 0 10 -5 10 -21 2 -11 -7 -23 -10 -25 -8 -2 3 -7 32 -10
66 l-7 61 39 4 c22 2 60 4 86 5 l46 2 23 -67z m163 45 c-3 -13 -13 -36 -22
-53 -14 -27 -15 -28 -22 -10 -4 11 -11 35 -14 53 -7 32 -7 32 29 32 33 0 36
-2 29 -22z m730 -104 c3 -8 2 -12 -4 -9 -6 3 -10 10 -10 16 0 14 7 11 14 -7z
m-713 -13 c21 -16 22 -23 14 -57 -11 -40 -37 -62 -30 -24 3 16 0 20 -11 16 -9
-3 -18 -6 -20 -6 -2 0 -4 -4 -4 -10 0 -5 7 -7 15 -3 10 3 15 0 13 -8 -4 -17
-18 -29 -36 -29 -21 0 -72 56 -72 79 0 54 83 81 131 42z m-158 -78 c48 -32 87
-60 87 -63 -1 -7 -123 -82 -177 -109 -45 -22 -39 -23 -121 15 -1 0 5 15 14 32
8 17 22 60 30 94 9 35 17 69 19 76 9 27 63 11 148 -45z m393 21 c8 -20 18 -57
21 -83 5 -46 4 -48 -40 -84 l-45 -36 -111 55 c-96 48 -132 74 -103 74 4 0 53
25 107 55 121 67 150 70 171 19z m-749 -60 c-3 -3 -12 -4 -19 -1 -8 3 -5 6 6
6 11 1 17 -2 13 -5z m543 -89 c82 -41 112 -66 97 -81 -3 -3 -19 2 -37 11 -57
30 -154 30 -253 1 -103 -31 -98 -30 -91 -11 5 11 178 125 191 125 1 0 43 -20
93 -45z m319 -51 c-14 -18 -24 -11 -15 11 3 9 11 13 16 10 8 -5 7 -11 -1 -21z
m-734 -44 c-9 -17 -14 -34 -11 -39 3 -4 -6 -13 -20 -20 -29 -13 -29 -14 11 56
31 54 48 57 20 3z m46 17 c-13 -13 -26 -3 -16 12 3 6 11 8 17 5 6 -4 6 -10 -1
-17z m941 9 c16 -12 15 -14 -12 -34 -38 -29 -40 -28 -27 13 11 39 14 40 39 21z
m-887 -26 c6 -10 -16 -21 -67 -34 -16 -3 -28 -3 -28 1 0 12 52 42 72 43 9 0
20 -5 23 -10z m351 -21 c79 -14 173 -43 226 -70 150 -76 208 -165 309 -474 41
-125 41 -128 25 -150 -13 -18 -14 -18 -41 3 -15 12 -34 22 -41 22 -19 0 -18
49 1 56 8 4 15 10 15 15 0 4 -7 6 -16 2 -10 -4 -22 1 -30 12 -12 16 -11 21 3
37 17 19 5 26 -14 7 -8 -8 -14 -5 -22 10 -22 40 -28 21 -8 -21 16 -31 21 -62
21 -113 0 -91 -24 -155 -75 -198 -110 -95 -234 -56 -278 86 l-19 62 -1 -45
c-1 -27 7 -61 18 -82 l18 -37 -78 1 c-64 1 -86 -3 -129 -24 -47 -24 -49 -24
-33 -4 10 11 27 29 38 38 15 13 17 20 9 28 -17 17 -101 -29 -151 -83 -23 -25
-55 -72 -72 -104 -39 -79 -48 -85 -118 -81 -56 3 -58 4 -79 43 -12 22 -25 51
-29 63 -6 22 -5 23 17 16 49 -15 88 -22 82 -13 -3 5 -15 9 -27 9 -27 0 -89 32
-95 49 -3 10 0 10 19 0 67 -36 147 -28 194 19 38 37 75 119 74 162 l-1 35 -13
-41 c-34 -108 -81 -154 -156 -154 -60 0 -92 15 -140 67 -74 77 -92 218 -39
293 27 38 21 52 -8 15 -14 -18 -25 -23 -38 -18 -16 6 -17 4 -7 -8 20 -24 5
-59 -26 -60 -25 0 -25 0 -3 -9 32 -13 29 -46 -5 -55 l-28 -8 25 -6 c16 -4 26
-15 28 -30 3 -17 0 -21 -10 -16 -7 5 -10 5 -6 0 4 -4 3 -14 -3 -22 -7 -7 -7
-13 -2 -13 14 0 35 -49 27 -63 -4 -7 -4 -9 0 -5 5 4 22 -12 40 -35 25 -33 30
-48 28 -79 -2 -21 -7 -36 -12 -33 -4 2 -34 51 -66 107 l-59 103 2 84 c5 188
78 416 184 572 40 60 74 80 192 114 121 35 271 44 383 24z m-1217 -237 c-7
-10 -18 -19 -26 -19 -10 0 -7 7 8 18 30 23 32 23 18 1z m121 9 c0 -5 -7 -12
-16 -15 -14 -5 -15 -4 -4 9 14 17 20 19 20 6z m1578 -76 c-3 -3 -9 2 -12 12
-6 14 -5 15 5 6 7 -7 10 -15 7 -18z m82 -65 c45 -23 53 -33 54 -71 l1 -27 -28
24 c-36 30 -71 33 -62 4 13 -42 -4 -18 -19 27 -13 37 -13 48 -4 55 17 10 13
11 58 -12z m6 -78 c30 -21 44 -59 44 -124 0 -43 -4 -68 -11 -68 -7 0 -9 16 -4
51 7 47 5 53 -23 82 -36 39 -41 83 -6 59z m-1699 -54 c-3 -8 -6 -5 -6 6 -1 11
2 17 5 13 3 -3 4 -12 1 -19z m1713 -72 c0 -37 -11 -26 -34 34 l-18 45 26 -24
c17 -16 26 -35 26 -55z m-1713 32 c-3 -8 -6 -5 -6 6 -1 11 2 17 5 13 3 -3 4
-12 1 -19z m0 -65 c-3 -10 -5 -2 -5 17 0 19 2 27 5 18 2 -10 2 -26 0 -35z
m1728 -124 c-6 -43 -9 -49 -18 -34 -7 13 -6 24 2 37 6 10 7 18 2 18 -4 0 -6
12 -3 26 9 49 24 8 17 -47z m-1717 16 c-2 -19 0 -35 4 -35 4 0 8 -10 8 -22 0
-23 -1 -23 -13 2 -11 23 -11 90 0 90 3 0 3 -16 1 -35z m1614 -15 c3 -16 1 -30
-4 -30 -4 0 -8 5 -8 11 0 5 -4 7 -10 4 -11 -7 -14 37 -4 48 11 11 22 -2 26
-33z m-34 -65 c-6 -14 -13 -23 -16 -21 -7 7 9 46 18 46 5 0 4 -11 -2 -25z m35
-17 c-6 -13 -46 -62 -89 -109 -44 -48 -99 -110 -123 -138 -24 -29 -45 -50 -48
-48 -2 3 6 28 18 57 18 42 30 55 69 75 69 35 129 109 155 189 4 15 9 16 17 8
8 -8 9 -18 1 -34z m-1170 2 c3 -11 1 -20 -4 -20 -5 0 -9 4 -9 9 0 5 -3 17 -7
27 -4 11 -3 15 4 11 6 -4 13 -16 16 -27z m1117 -31 c0 -17 -117 -129 -134
-129 -27 0 -18 19 22 44 21 13 51 40 68 59 30 37 44 45 44 26z m-1061 -64 c0
-5 -11 3 -24 18 -14 15 -25 33 -25 40 0 7 11 -1 25 -18 13 -16 24 -34 24 -40z
m838 -45 c27 -1 27 -1 9 -15 -25 -19 -48 -19 -94 1 -35 14 -36 16 -18 29 16
12 23 12 47 0 15 -8 41 -15 56 -15z m-82 -26 c21 -8 34 -19 29 -23 -5 -4 -29
-26 -54 -49 -55 -49 -80 -45 -61 9 11 32 38 79 45 79 2 0 20 -7 41 -16z m-85
-130 c0 -3 -9 -17 -20 -31 -22 -29 -25 -26 -10 11 8 23 30 37 30 20z m-430
-23 c0 -3 -7 -31 -16 -62 -20 -70 -31 -68 -73 10 l-31 58 60 -1 c33 -1 60 -3
60 -5z m-655 -71 c-12 -19 -22 -10 -17 16 4 22 6 24 14 10 5 -9 6 -21 3 -26z
m1849 14 c9 -33 0 -42 -20 -23 -8 9 -12 23 -8 32 9 25 21 21 28 -9z m-38 -111
c-3 -8 -11 -11 -17 -7 -8 5 -9 3 -5 -5 5 -8 1 -14 -11 -17 -15 -4 -18 -13 -15
-44 4 -41 -22 -80 -54 -80 -19 0 -21 -7 41 122 47 98 50 102 58 75 5 -16 6
-36 3 -44z m-1749 -29 c-2 -3 -12 -2 -21 2 -22 9 -36 45 -29 74 5 21 9 18 30
-24 14 -27 22 -50 20 -52z m52 -112 c-39 -7 -63 34 -47 78 9 24 10 23 38 -25
28 -48 29 -50 9 -53z m51 -63 c24 -46 21 -56 -9 -39 -15 8 -21 20 -21 45 0 19
2 35 5 35 2 0 14 -18 25 -41z m1526 10 c-2 -33 -36 -69 -63 -69 -13 0 -13 3 1
25 9 14 23 36 32 50 22 34 32 31 30 -6z m-96 -131 c-37 -30 -43 -20 -13 19 23
30 29 33 32 18 2 -11 -6 -27 -19 -37z m-1369 20 c22 -28 25 -45 3 -28 -17 15
-38 50 -28 50 3 0 14 -10 25 -22z"/>
<path d="M1436 2821 c-3 -5 0 -14 8 -20 10 -8 16 -8 25 2 6 8 8 17 4 20 -9 10
-31 9 -37 -2z"/>
<path d="M1108 2589 c-18 -10 -25 -30 -10 -28 20 3 32 -3 32 -16 0 -13 2 -14
14 -3 12 11 11 14 -3 20 -13 5 -12 7 5 7 11 1 26 -5 34 -11 11 -10 11 -9 0 6
-14 18 -13 19 4 13 16 -6 17 -5 6 8 -14 17 -56 19 -82 4z m61 -3 c-12 -10 -60
-16 -54 -6 3 5 18 10 32 10 15 0 24 -2 22 -4z"/>
<path d="M1112 2513 c-6 -2 -10 -9 -6 -14 8 -14 21 -11 21 6 0 8 -1 15 -1 14
-1 0 -7 -3 -14 -6z"/>
<path d="M1080 2181 c-82 -25 -172 -102 -206 -176 -47 -99 -27 -131 94 -161
190 -46 481 0 490 78 12 99 -153 261 -262 257 -12 0 -4 -6 19 -13 86 -27 171
-90 201 -148 19 -37 8 -53 -54 -80 -35 -16 -69 -19 -205 -20 -142 -1 -168 1
-207 19 -64 28 -75 44 -56 80 31 59 160 153 210 153 8 0 18 5 21 10 7 11 -9
12 -45 1z m340 -291 c-80 -52 -335 -68 -465 -30 -59 18 -64 24 -25 31 60 11
507 10 490 -1z"/>
<path d="M1152 1735 c0 -16 2 -22 5 -12 2 9 2 23 0 30 -3 6 -5 -1 -5 -18z"/>
<path d="M773 1715 c-50 -21 -76 -68 -81 -149 -2 -42 1 -83 8 -101 12 -30 12
-30 23 -7 5 12 15 22 21 22 13 0 16 158 3 177 -11 17 28 53 57 53 13 0 34 -9
47 -19 19 -16 22 -23 13 -38 -7 -11 -8 -29 -2 -48 10 -36 1 -102 -18 -132 -9
-14 -24 -23 -40 -23 -14 0 -23 -4 -19 -10 3 -5 -3 -18 -14 -29 -20 -20 -20
-21 -1 -31 66 -35 124 13 141 119 23 144 -47 254 -138 216z"/>
<path d="M1449 1715 c-49 -26 -76 -129 -58 -216 10 -45 13 -50 24 -36 7 9 19
17 28 17 13 0 14 6 5 37 -5 20 -8 55 -5 77 3 22 1 48 -4 59 -24 44 68 80 103
40 17 -20 32 -57 20 -49 -5 3 -8 -25 -8 -62 1 -78 -18 -125 -52 -130 -12 -2
-22 -9 -22 -16 0 -8 -7 -19 -16 -27 -14 -12 -14 -14 2 -26 65 -48 144 41 144
162 0 125 -82 212 -161 170z"/>
<path d="M1477 1632 c-33 -37 -14 -162 25 -162 38 0 54 132 20 163 -23 21 -25
21 -45 -1z"/>
<path d="M780 1621 c-17 -34 -12 -106 10 -132 l20 -24 20 24 c13 16 20 38 20
68 0 54 -14 83 -40 83 -11 0 -24 -9 -30 -19z"/>
<path d="M956 1344 c-16 -20 -44 -43 -63 -51 -19 -8 -33 -16 -30 -19 9 -9 61
23 96 60 19 20 33 38 30 40 -3 3 -18 -11 -33 -30z"/>
<path d="M518 1918 c-73 -86 -129 -177 -175 -280 -45 -103 -87 -246 -81 -276
3 -9 10 9 17 41 41 189 135 381 246 505 26 29 45 55 42 58 -2 3 -25 -19 -49
-48z"/>
<path d="M250 1303 c0 -43 5 -41 13 5 4 18 2 32 -3 32 -6 0 -10 -16 -10 -37z"/>
<path d="M2220 1276 c-6 -8 -32 -25 -56 -36 -24 -12 -44 -26 -44 -31 0 -11 23
0 87 40 24 14 43 29 43 34 0 12 -17 8 -30 -7z"/>
<path d="M250 1250 c0 -5 5 -10 10 -10 6 0 10 5 10 10 0 6 -4 10 -10 10 -5 0
-10 -4 -10 -10z"/>
<path d="M1376 504 c-36 -43 -134 -120 -178 -139 -18 -8 -26 -14 -18 -15 41
-1 156 82 211 151 38 48 25 50 -15 3z"/>
</g>
</svg>
