<?xml version="1.0" standalone="no"?>
<!DOCTYPE svg PUBLIC "-//W3C//DTD SVG 20010904//EN"
 "http://www.w3.org/TR/2001/REC-SVG-20010904/DTD/svg10.dtd">
<svg version="1.0" xmlns="http://www.w3.org/2000/svg"
 width="451.000000pt" height="287.000000pt" viewBox="0 0 451.000000 287.000000"
 preserveAspectRatio="xMidYMid meet">

<g transform="translate(0.000000,287.000000) scale(0.100000,-0.100000)"
fill="#000000" stroke="none">
<path d="M1590 2754 c-383 -41 -430 -48 -430 -62 0 -10 9 -12 38 -8 280 44
532 57 621 30 100 -29 101 -87 10 -372 -58 -181 -71 -268 -45 -306 33 -52 132
-54 306 -6 120 33 430 142 430 151 0 16 -24 10 -216 -56 -285 -97 -428 -125
-484 -95 -42 22 -33 104 35 310 91 278 88 353 -14 393 -39 16 -186 28 -251 21z"/>
<path d="M3175 1753 c-44 -1 -566 -9 -1160 -17 -594 -9 -1145 -18 -1225 -21
-80 -2 -162 -5 -182 -5 -29 0 -38 -4 -38 -16 0 -19 -70 -19 1685 11 154 3 458
7 675 10 607 8 760 14 760 31 0 12 -37 14 -217 12 -120 -1 -254 -3 -298 -5z"/>
<path d="M787 1366 c-83 -31 -147 -104 -184 -210 -27 -77 -24 -252 6 -327 113
-291 421 -278 512 21 11 38 19 83 17 102 -3 26 -6 19 -16 -37 -47 -258 -260
-368 -415 -213 -60 60 -94 132 -107 230 -39 277 149 499 345 409 47 -22 119
-91 136 -132 6 -16 16 -29 21 -29 15 0 -33 79 -72 119 -66 67 -167 96 -243 67z"/>
<path d="M1853 1306 c-104 -34 -194 -114 -241 -214 -24 -50 -27 -70 -27 -157
0 -87 3 -107 26 -155 36 -75 103 -141 185 -181 64 -32 75 -34 169 -34 92 0
106 3 167 32 79 37 147 104 186 183 24 49 27 66 27 155 0 92 -3 105 -31 165
-41 84 -103 145 -184 184 -53 25 -80 31 -150 33 -53 2 -101 -2 -127 -11z m252
-27 c32 -12 77 -41 108 -69 232 -212 123 -574 -192 -632 -154 -29 -324 61
-392 206 -52 112 -46 234 17 342 27 46 100 116 146 140 90 47 210 52 313 13z"/>
<path d="M3004 1103 c3 -10 46 -175 96 -368 50 -192 96 -354 102 -360 8 -7 9
-5 6 5 -2 8 -47 178 -99 377 -52 200 -98 363 -102 363 -5 0 -6 -8 -3 -17z"/>
</g>
</svg>
