<?xml version="1.0" standalone="no"?>
<!DOCTYPE svg PUBLIC "-//W3C//DTD SVG 20010904//EN"
 "http://www.w3.org/TR/2001/REC-SVG-20010904/DTD/svg10.dtd">
<svg version="1.0" xmlns="http://www.w3.org/2000/svg"
 width="260.000000pt" height="280.000000pt" viewBox="0 0 260.000000 280.000000"
 preserveAspectRatio="xMidYMid meet">

<g transform="translate(0.000000,280.000000) scale(0.100000,-0.100000)"
fill="#000000" stroke="none">
<path d="M850 2030 l0 -30 -76 0 c-67 0 -76 -2 -81 -20 -5 -18 -14 -20 -90
-20 -101 0 -105 -11 -21 -53 35 -18 79 -31 117 -34 42 -4 61 -10 61 -19 0 -8
-10 -14 -23 -14 l-22 0 15 -227 c13 -203 13 -251 0 -438 l-15 -210 -102 -3
c-58 -1 -103 -7 -103 -12 0 -6 289 -10 790 -10 483 0 790 4 790 9 0 5 -12 11
-27 13 l-28 3 -3 438 c-2 429 -3 437 -22 437 -11 0 -20 7 -20 15 0 9 9 15 23
15 13 0 33 10 45 23 26 27 29 67 7 67 -10 0 -15 7 -13 18 2 14 -6 18 -49 20
-51 3 -53 4 -53 33 l0 30 -87 -3 c-88 -3 -88 -3 -91 -30 -3 -26 -6 -28 -53
-28 -42 0 -49 -3 -49 -20 0 -16 -7 -20 -30 -20 -24 0 -30 4 -30 21 0 17 5 20
21 16 16 -4 18 -3 8 9 -15 18 -53 18 -68 0 -10 -12 -8 -13 8 -9 16 4 21 1 21
-16 0 -20 -5 -21 -110 -21 -105 0 -110 1 -110 21 0 17 5 20 21 16 16 -4 18 -3
8 9 -15 18 -53 18 -68 0 -10 -12 -8 -13 8 -9 16 4 21 1 21 -16 0 -19 -6 -21
-55 -21 -49 0 -55 2 -55 21 0 17 4 20 22 16 19 -5 20 -5 5 10 -16 16 -67 11
-67 -7 0 -5 7 -7 15 -4 10 4 15 0 15 -15 0 -19 -6 -21 -50 -21 -44 0 -50 2
-50 21 0 15 5 19 15 15 8 -3 15 -1 15 4 0 18 -51 23 -67 7 -15 -15 -14 -15 5
-10 18 4 22 1 22 -16 0 -29 -55 -30 -63 -1 -3 12 -14 20 -26 20 -17 0 -21 6
-21 30 l0 30 -90 0 -90 0 0 -30z m160 -10 c0 -18 -7 -20 -70 -20 -63 0 -70 2
-70 20 0 18 7 20 70 20 63 0 70 -2 70 -20z m928 -2 c3 -16 -6 -18 -72 -18 -70
0 -76 2 -76 20 0 19 5 21 72 18 60 -2 73 -6 76 -20z m-878 -48 c0 -6 -65 -10
-175 -10 -110 0 -175 4 -175 10 0 6 65 10 175 10 110 0 175 -4 175 -10z m980
0 c0 -6 -65 -10 -175 -10 -110 0 -175 4 -175 10 0 6 65 10 175 10 110 0 175
-4 175 -10z m20 -39 c0 -5 -7 -17 -16 -26 -14 -14 -85 -15 -712 -13 l-697 3
-40 22 -40 22 753 1 c456 0 752 -4 752 -9z m-1070 -76 c0 -12 -18 -15 -105
-15 -87 0 -105 3 -105 15 0 12 18 15 105 15 87 0 105 -3 105 -15z m258 3 c-3
-7 -15 -14 -27 -16 -18 -3 -21 -8 -17 -30 3 -15 10 -116 17 -225 10 -155 9
-240 0 -395 -7 -108 -15 -205 -17 -214 -5 -15 -17 -18 -75 -18 l-69 0 0 440 0
440 -25 0 c-16 0 -25 6 -25 15 0 13 20 15 121 15 92 0 120 -3 117 -12z m232
-3 c0 -12 -18 -15 -105 -15 -87 0 -105 3 -105 15 0 12 18 15 105 15 87 0 105
-3 105 -15z m258 3 c-3 -7 -15 -14 -27 -16 -20 -3 -21 -8 -17 -45 21 -166 28
-410 17 -590 -17 -271 -8 -248 -94 -245 l-72 3 -3 438 c-2 429 -3 437 -22 437
-11 0 -20 7 -20 15 0 13 20 15 121 15 92 0 120 -3 117 -12z m232 -3 c0 -12
-18 -15 -104 -15 -96 0 -126 7 -109 24 3 3 53 6 110 6 85 0 103 -3 103 -15z
m-932 -457 l2 -428 -124 0 -125 0 1 40 0 40 102 2 101 2 -104 5 c-71 4 -106
10 -109 19 -3 9 23 13 105 14 l108 2 -107 3 c-87 3 -108 7 -108 18 0 12 21 15
108 17 l107 2 -107 3 c-100 3 -108 5 -108 23 0 19 8 20 108 22 l107 2 -107 3
c-86 3 -108 7 -108 18 0 11 22 15 108 18 l107 3 -112 2 c-93 2 -113 5 -113 17
0 12 20 15 113 17 l112 2 -112 3 c-91 3 -113 6 -113 18 0 8 8 16 18 16 16 1
16 2 0 6 -10 2 -18 13 -18 23 0 18 10 20 113 23 l112 3 -117 2 c-97 2 -118 5
-118 17 0 12 21 15 118 17 l117 2 -117 3 c-96 3 -118 6 -118 18 0 12 22 15
118 17 l117 2 -117 3 c-110 3 -118 5 -118 23 0 19 8 20 113 22 l112 2 -115 5
c-66 4 -115 10 -115 16 0 6 50 12 120 15 l120 6 -122 2 c-102 2 -123 5 -123
17 0 12 21 15 123 17 l122 2 -122 3 c-100 3 -123 6 -123 18 0 12 21 15 113 17
l112 2 -112 3 c-104 3 -113 5 -113 23 0 18 9 20 123 23 l122 3 -127 2 c-106 2
-128 5 -128 17 0 12 22 15 128 17 l127 2 -127 3 c-105 3 -128 6 -128 18 0 12
23 15 128 17 l127 2 -126 3 -126 4 -6 36 c-4 20 -4 40 -1 45 3 5 72 7 152 6
l147 -3 3 -427z m490 0 l2 -428 -124 0 -125 0 1 40 0 39 102 4 101 3 -107 2
c-88 2 -108 5 -108 17 0 12 20 15 108 17 l107 2 -107 3 c-87 3 -108 7 -108 18
0 12 20 15 103 17 l102 2 -102 3 c-95 3 -103 5 -103 23 0 18 8 20 103 22 l102
2 -105 5 c-60 4 -105 10 -105 16 0 6 47 12 110 16 l110 5 -112 2 c-93 2 -113
5 -113 17 0 12 20 15 113 17 l112 2 -112 3 c-91 3 -113 6 -113 18 0 8 6 15 13
16 10 0 10 2 0 6 -7 2 -13 13 -13 24 0 17 10 19 113 22 l112 3 -117 2 c-97 2
-118 5 -118 17 0 12 21 15 118 17 l117 2 -117 3 c-96 3 -118 6 -118 18 0 12
22 15 118 17 l117 2 -117 3 c-104 3 -118 6 -118 21 0 9 -3 27 -6 40 -6 22 -6
22 117 24 l124 2 -122 3 c-100 3 -123 6 -123 18 0 12 22 15 123 17 l122 2
-122 3 -123 4 0 29 c0 17 0 33 0 38 0 4 55 9 122 12 l123 6 -127 2 c-106 2
-128 5 -128 17 0 12 22 15 128 17 l127 2 -127 3 c-105 3 -128 6 -128 18 0 12
23 15 128 17 l127 2 -126 3 -126 4 -6 36 c-4 20 -4 40 -1 45 3 5 72 7 152 6
l147 -3 3 -427z m490 0 l2 -428 -125 0 -125 0 0 40 0 39 103 4 102 3 -107 2
c-88 2 -108 5 -108 17 0 12 20 15 108 17 l107 2 -107 3 c-87 3 -108 7 -108 18
0 12 20 15 103 17 l102 2 -102 3 c-94 3 -103 5 -103 23 0 18 9 20 103 23 l102
3 -107 2 c-88 2 -108 5 -108 17 0 12 20 15 113 17 l112 2 -112 3 c-91 3 -113
6 -113 18 0 12 21 15 108 17 l107 2 -107 3 c-104 4 -108 4 -106 26 0 12 -1 29
-3 37 -3 12 15 16 106 21 l110 5 -112 2 c-93 2 -113 5 -113 17 0 12 21 15 118
17 l117 2 -117 3 c-96 3 -118 6 -118 18 0 12 21 15 113 17 l112 2 -112 3
c-104 3 -113 5 -113 23 0 18 9 20 113 23 l112 3 -117 2 c-97 2 -118 5 -118 17
0 12 21 15 123 17 l122 2 -122 3 c-100 3 -123 6 -123 18 0 12 22 15 123 17
l122 2 -122 3 c-123 4 -123 4 -124 28 -1 14 -2 31 -3 38 -1 9 32 13 119 17
l120 6 -122 2 c-102 2 -123 5 -123 17 0 12 22 15 128 17 l127 2 -127 3 c-105
3 -128 6 -128 18 0 12 22 15 123 17 l122 2 -122 3 c-68 2 -123 7 -124 11 0 4
-2 20 -4 36 -2 16 -2 33 1 38 3 5 72 7 152 6 l147 -3 3 -427z m-1249 -365 c1
-57 -1 -63 -19 -63 -18 0 -20 5 -15 38 2 20 8 78 12 127 l7 90 7 -65 c4 -36 7
-93 8 -127z m490 -10 c1 -47 -1 -53 -19 -53 -21 0 -21 8 -2 190 l6 65 7 -75
c3 -41 7 -99 8 -127z m486 65 c7 -116 7 -118 -14 -118 -20 0 -21 3 -16 88 6
94 14 156 19 151 2 -2 7 -57 11 -121z"/>
<path d="M1313 1483 c32 -2 81 -2 110 0 29 2 3 3 -58 3 -60 0 -84 -1 -52 -3z"/>
<path d="M1347 1013 c18 -2 50 -2 70 0 21 2 7 4 -32 4 -38 0 -55 -2 -38 -4z"/>
<path d="M1793 1603 c26 -2 68 -2 95 0 26 2 4 3 -48 3 -52 0 -74 -1 -47 -3z"/>
<path d="M1928 1303 c6 -2 18 -2 25 0 6 3 1 5 -13 5 -14 0 -19 -2 -12 -5z"/>
<path d="M1808 1013 c6 -2 18 -2 25 0 6 3 1 5 -13 5 -14 0 -19 -2 -12 -5z"/>
<path d="M1893 1013 c9 -2 23 -2 30 0 6 3 -1 5 -18 5 -16 0 -22 -2 -12 -5z"/>
<path d="M1462 2008 c-8 -10 -1 -13 29 -13 40 0 51 8 23 19 -24 9 -41 7 -52
-6z"/>
<path d="M380 706 c0 -75 19 -92 21 -18 l2 47 10 -47 c12 -53 33 -64 43 -20
13 60 23 69 23 20 1 -27 6 -48 11 -48 6 0 10 28 10 65 0 58 -2 65 -19 65 -16
0 -21 -9 -27 -45 -3 -25 -10 -45 -14 -45 -4 0 -11 19 -16 42 -6 28 -15 44 -27
46 -15 3 -17 -5 -17 -62z"/>
<path d="M563 753 c-3 -10 -14 -39 -24 -65 -15 -39 -16 -48 -5 -48 8 0 16 7
20 15 3 8 15 15 26 15 11 0 23 -7 26 -15 7 -18 38 -20 32 -2 -3 6 -13 36 -23
65 -19 52 -40 67 -52 35z m30 -65 c-2 -5 -8 -8 -14 -8 -11 0 -12 33 -2 44 8 8
23 -25 16 -36z"/>
<path d="M665 761 c-3 -6 -5 -35 -4 -65 2 -39 6 -56 16 -56 7 0 13 11 13 26 0
21 4 25 23 22 14 -2 23 -11 25 -25 2 -13 10 -23 17 -23 11 0 12 7 4 32 -5 21
-5 36 1 42 14 14 13 22 -6 40 -17 17 -79 22 -89 7z m73 -33 c3 -13 -3 -18 -22
-18 -20 0 -26 5 -26 21 0 15 5 20 22 17 13 -2 24 -11 26 -20z"/>
<path d="M800 705 c0 -37 4 -65 10 -65 6 0 10 28 10 65 0 37 -4 65 -10 65 -6
0 -10 -28 -10 -65z"/>
<path d="M850 705 c0 -37 4 -65 10 -65 6 0 10 18 10 40 0 50 9 51 35 3 11 -21
27 -39 35 -41 12 -2 14 9 12 63 -4 73 -19 88 -24 23 l-3 -43 -24 43 c-36 62
-51 55 -51 -23z"/>
<path d="M1001 709 c-23 -68 -21 -81 7 -56 23 21 48 22 56 2 3 -8 12 -15 19
-15 12 0 10 13 -8 63 -30 83 -47 84 -74 6z m49 -10 c0 -10 -7 -19 -15 -19 -16
0 -19 9 -9 34 8 20 24 11 24 -15z"/>
<path d="M1179 768 c0 -2 -1 -31 -2 -66 l-2 -62 41 0 c23 0 46 6 52 13 14 17
6 98 -10 108 -12 8 -77 13 -79 7z m69 -35 c2 -8 -6 -13 -22 -13 -17 0 -26 5
-26 16 0 19 41 16 48 -3z m0 -55 c3 -13 -3 -18 -22 -18 -20 0 -26 5 -26 21 0
15 5 20 22 17 13 -2 24 -11 26 -20z"/>
<path d="M1321 709 c-23 -61 -21 -89 3 -56 7 9 21 17 31 17 10 0 24 -8 31 -17
7 -10 16 -15 20 -11 10 11 -36 128 -51 128 -7 0 -22 -27 -34 -61z m49 -16 c0
-7 -7 -13 -15 -13 -16 0 -19 9 -9 35 5 13 8 14 15 3 5 -7 9 -19 9 -25z"/>
<path d="M1434 726 c14 -25 26 -54 26 -65 0 -12 5 -21 10 -21 6 0 10 11 10 25
0 13 9 39 20 57 22 37 25 48 10 48 -6 0 -16 -11 -22 -25 -6 -14 -14 -25 -18
-25 -4 0 -12 11 -18 25 -6 14 -19 25 -28 25 -13 0 -11 -8 10 -44z"/>
<path d="M1613 763 c-7 -2 -13 -16 -13 -29 0 -24 4 -27 69 -49 11 -4 11 -8 1
-20 -16 -19 -25 -19 -45 1 -18 19 -30 13 -22 -11 8 -20 70 -20 88 1 18 21 1
46 -40 58 -17 5 -31 13 -31 18 0 15 31 21 43 9 15 -15 27 -14 27 3 0 22 -44
33 -77 19z"/>
<path d="M1755 758 c-2 -7 -13 -37 -24 -65 -14 -40 -16 -53 -6 -53 7 0 15 7
19 15 3 8 15 15 26 15 11 0 23 -7 26 -15 4 -8 13 -15 21 -15 8 0 13 6 11 13
-3 6 -13 36 -22 65 -17 49 -41 69 -51 40z m30 -68 c-3 -6 -10 -10 -16 -10 -10
0 -12 33 -2 44 9 9 26 -22 18 -34z"/>
<path d="M1860 705 c0 -72 17 -90 22 -22 l3 42 23 -42 c34 -65 52 -57 52 22 0
75 -17 89 -22 18 l-3 -48 -28 48 c-15 26 -32 47 -37 47 -6 0 -10 -29 -10 -65z"/>
<path d="M1990 705 l0 -65 39 0 c30 0 44 6 55 22 36 51 4 108 -59 108 l-35 0
0 -65z m68 36 c8 -5 12 -22 10 -42 -2 -29 -7 -34 -30 -37 -26 -3 -28 -1 -28
36 0 51 15 64 48 43z"/>
<path d="M2130 755 c-19 -23 -7 -47 29 -60 39 -13 50 -29 25 -39 -10 -4 -25 1
-36 10 -20 19 -34 13 -24 -11 4 -12 17 -15 48 -13 40 3 43 5 43 32 0 24 -6 30
-35 40 -40 13 -46 29 -12 34 12 2 22 -1 22 -7 0 -6 7 -11 15 -11 18 0 19 12 3
28 -17 17 -63 15 -78 -3z"/>
<path d="M633 95 c0 -27 2 -38 4 -22 2 15 8 27 13 27 5 0 11 -12 13 -27 4 -26
4 -26 6 5 1 22 -4 32 -13 32 -8 0 -17 8 -19 18 -3 9 -5 -5 -4 -33z"/>
<path d="M1132 95 c0 -27 2 -43 5 -35 3 8 13 24 22 35 15 18 15 19 -1 7 -14
-12 -17 -10 -21 15 -2 16 -4 6 -5 -22z"/>
<path d="M750 120 c-4 -25 1 -54 10 -63 4 -5 5 3 3 17 -4 19 -1 26 10 26 9 0
17 -10 19 -22 2 -12 9 -23 16 -24 7 -1 8 0 2 3 -12 6 -13 40 -1 45 5 2 3 9 -5
16 -8 7 -14 8 -14 2 0 -14 -27 -13 -33 3 -4 8 -6 8 -7 -3z"/>
<path d="M979 118 c-2 -25 3 -53 11 -62 5 -5 6 1 3 14 -3 12 -1 25 4 29 7 4 6
11 -3 19 -11 10 -14 10 -15 0z"/>
<path d="M1522 105 c-22 -28 -23 -30 -5 -34 10 -2 21 -8 24 -13 10 -15 16 14
10 47 l-6 29 -23 -29z m14 -22 c-10 -10 -19 5 -10 18 6 11 8 11 12 0 2 -7 1
-15 -2 -18z"/>
<path d="M1588 123 c7 -3 16 -2 19 1 4 3 -2 6 -13 5 -11 0 -14 -3 -6 -6z"/>
<path d="M1637 123 c-12 -12 -7 -33 7 -33 26 0 28 -20 4 -29 -16 -7 -18 -10
-6 -10 9 -1 20 4 23 9 9 14 55 12 55 -2 0 -10 2 -10 8 0 5 7 6 27 4 44 l-5 32
-25 -30 c-16 -18 -27 -24 -30 -16 -2 6 -10 12 -18 12 -20 0 -17 18 4 23 14 4
14 5 1 6 -9 0 -19 -2 -22 -6z m79 -40 c-10 -10 -19 5 -10 18 6 11 8 11 12 0 2
-7 1 -15 -2 -18z"/>
<path d="M1767 123 c22 -4 22 -6 8 -33 -22 -42 -17 -51 5 -10 25 46 25 50 -7
49 -24 -2 -25 -2 -6 -6z"/>
<path d="M1814 115 c-4 -8 -1 -22 6 -30 6 -8 9 -19 5 -25 -3 -5 -4 -10 -1 -10
10 0 33 55 29 68 -6 17 -32 15 -39 -3z m28 -10 c0 -5 -5 -11 -11 -13 -6 -2
-11 4 -11 13 0 9 5 15 11 13 6 -2 11 -8 11 -13z"/>
<path d="M1877 123 c-12 -12 -7 -33 7 -33 26 0 28 -20 4 -29 -16 -7 -18 -10
-6 -10 9 -1 20 4 23 9 9 14 55 12 55 -2 0 -10 2 -10 8 0 5 7 6 27 4 44 l-5 32
-25 -30 c-16 -18 -27 -24 -30 -16 -2 6 -10 12 -18 12 -20 0 -17 18 4 23 14 4
14 5 1 6 -9 0 -19 -2 -22 -6z m79 -40 c-10 -10 -19 5 -10 18 6 11 8 11 12 0 2
-7 1 -15 -2 -18z"/>
<path d="M2000 106 c-15 -29 -8 -56 15 -56 23 0 31 31 12 45 -12 9 -14 14 -5
23 7 7 8 12 2 12 -6 0 -16 -11 -24 -24z m28 -28 c-6 -18 -28 -21 -28 -4 0 9 7
16 16 16 9 0 14 -5 12 -12z"/>
<path d="M580 93 c0 -10 4 -14 8 -8 4 6 11 13 16 18 5 4 2 7 -7 7 -10 0 -17
-8 -17 -17z"/>
<path d="M691 83 c-1 -27 3 -33 19 -33 16 0 20 6 19 33 -2 30 -2 30 -6 5 -6
-36 -20 -36 -26 0 -4 25 -4 25 -6 -5z"/>
<path d="M837 104 c-13 -13 -7 -24 14 -24 11 0 19 5 17 12 -5 14 -22 21 -31
12z"/>
<path d="M891 78 c2 -28 2 -29 6 -8 3 14 10 28 17 32 7 5 5 8 -6 8 -14 0 -18
-8 -17 -32z"/>
<path d="M930 93 c0 -10 4 -14 8 -8 4 6 11 13 16 18 5 4 2 7 -7 7 -10 0 -17
-8 -17 -17z"/>
<path d="M1024 95 c-8 -21 2 -45 20 -45 17 0 28 24 20 45 -4 8 -13 15 -20 15
-8 0 -17 -7 -20 -15z m31 -15 c0 -7 -6 -15 -12 -17 -8 -3 -13 4 -13 17 0 13 5
20 13 18 6 -3 12 -11 12 -18z"/>
<path d="M1084 95 c-8 -20 2 -45 18 -44 10 0 10 2 1 6 -7 2 -13 13 -13 23 0
10 6 21 13 23 9 4 9 6 -1 6 -7 1 -15 -6 -18 -14z"/>
<path d="M1224 95 c-8 -20 2 -45 18 -44 10 0 10 2 1 6 -7 2 -13 13 -13 23 0
10 6 21 13 23 9 4 9 6 -1 6 -7 1 -15 -6 -18 -14z"/>
<path d="M1277 103 c-4 -3 -7 -11 -7 -17 0 -6 5 -4 10 4 7 11 12 12 21 3 14
-14 2 -36 -18 -29 -8 3 -11 1 -8 -4 9 -15 32 -12 39 5 11 30 -17 59 -37 38z"/>
<path d="M1331 77 c2 -31 2 -31 6 -4 2 15 8 27 13 27 5 0 11 -12 13 -27 l4
-28 2 28 c0 15 5 27 10 27 5 0 12 -12 14 -27 4 -27 4 -27 6 4 1 29 -1 31 -34
31 -33 0 -35 -2 -34 -31z"/>
<path d="M1570 100 c0 -6 6 -10 14 -10 26 0 28 -20 4 -29 -15 -7 -17 -10 -7
-10 21 -1 40 21 31 35 -10 15 -42 25 -42 14z"/>
<path d="M592 65 c-11 -12 -10 -15 3 -15 8 0 15 7 15 15 0 18 -2 18 -18 0z"/>
<path d="M942 65 c-11 -12 -10 -15 3 -15 8 0 15 7 15 15 0 18 -2 18 -18 0z"/>
<path d="M1150 71 c0 -5 5 -13 10 -16 6 -3 10 -2 10 4 0 5 -4 13 -10 16 -5 3
-10 2 -10 -4z"/>
<path d="M838 58 c5 -5 16 -8 23 -6 8 3 3 7 -10 11 -17 4 -21 3 -13 -5z"/>
</g>
</svg>
