<?xml version="1.0" standalone="no"?>
<!DOCTYPE svg PUBLIC "-//W3C//DTD SVG 20010904//EN"
 "http://www.w3.org/TR/2001/REC-SVG-20010904/DTD/svg10.dtd">
<svg version="1.0" xmlns="http://www.w3.org/2000/svg"
 width="1280.000000pt" height="720.000000pt" viewBox="0 0 1280.000000 720.000000"
 preserveAspectRatio="xMidYMid meet">

<g transform="translate(0.000000,720.000000) scale(0.100000,-0.100000)"
fill="#000000" stroke="none">
<path d="M4 7055 c0 -82 2 -115 3 -72 2 43 2 110 0 150 -1 40 -3 5 -3 -78z"/>
<path d="M33 7160 c0 -25 2 -35 4 -22 2 12 2 32 0 45 -2 12 -4 2 -4 -23z"/>
<path d="M160 7191 c0 -5 26 -11 58 -14 31 -2 67 -8 80 -12 18 -6 22 -4 22 14
0 20 -5 21 -80 21 -44 0 -80 -4 -80 -9z"/>
<path d="M523 7193 c-24 -2 -43 -8 -43 -14 0 -15 94 -10 116 6 21 16 21 16
-73 8z"/>
<path d="M640 7190 c0 -6 32 -9 83 -8 45 1 189 -2 320 -7 187 -6 237 -11 237
-22 0 -7 7 -13 15 -13 18 0 20 16 3 23 -8 3 -6 7 7 12 11 4 29 10 40 15 11 5
-134 9 -342 9 -238 1 -363 -2 -363 -9z"/>
<path d="M1543 7188 c5 -17 64 -18 78 -1 9 11 3 13 -36 13 -33 0 -45 -4 -42
-12z"/>
<path d="M1890 7171 c0 -28 1 -28 48 -24 26 3 68 12 94 21 45 15 48 15 69 -4
17 -15 33 -18 80 -16 43 3 59 0 59 -9 0 -7 3 -10 6 -6 3 3 3 19 -1 36 l-7 31
-174 0 -174 0 0 -29z"/>
<path d="M2660 7185 c10 -12 10 -18 1 -29 -16 -19 1 -29 34 -20 15 4 25 2 25
-5 0 -6 7 -11 15 -11 8 0 15 7 15 15 0 8 5 15 10 15 6 0 10 -7 10 -15 0 -8 7
-15 15 -15 8 0 15 5 15 10 0 6 5 10 10 10 14 0 70 42 70 52 0 4 -52 8 -116 8
-102 0 -115 -2 -104 -15z"/>
<path d="M4067 7188 c2 -5 24 -8 48 -8 24 0 46 3 48 8 3 4 -19 7 -48 7 -29 0
-51 -3 -48 -7z"/>
<path d="M4400 7190 c0 -5 18 -10 40 -10 22 0 40 5 40 10 0 6 -18 10 -40 10
-22 0 -40 -4 -40 -10z"/>
<path d="M4628 7188 c7 -7 12 -21 12 -32 0 -18 1 -19 20 -1 19 17 21 17 40 0
13 -12 20 -14 20 -6 0 9 12 6 36 -8 24 -14 52 -21 90 -21 47 0 58 -4 77 -26
28 -32 48 -25 70 26 36 83 43 80 -180 80 -153 0 -194 -3 -185 -12z"/>
<path d="M5080 7192 c0 -16 25 -40 45 -44 11 -2 20 -8 20 -13 0 -19 16 -35 36
-35 10 0 19 -7 19 -15 0 -13 11 -18 65 -28 11 -2 19 -9 18 -15 -2 -8 11 -12
38 -12 29 0 38 4 34 13 -4 6 1 3 9 -7 9 -11 16 -23 16 -28 0 -4 12 -11 28 -14
15 -4 29 -11 32 -15 3 -5 24 -2 45 6 22 8 48 14 58 15 10 0 29 7 42 16 13 9
57 18 99 21 42 3 76 10 76 15 0 5 6 6 13 1 6 -4 21 -8 32 -9 116 -6 145 -15
123 -41 -12 -15 6 -43 28 -43 10 0 14 -13 14 -40 0 -29 4 -40 15 -40 8 0 15
-6 15 -13 0 -17 75 -10 90 8 10 12 17 11 45 -3 39 -19 45 -32 16 -32 -30 0
-51 -11 -51 -26 0 -8 -4 -14 -8 -14 -5 0 -9 -33 -9 -73 0 -41 -5 -83 -11 -93
-5 -10 -15 -82 -22 -160 -13 -134 -12 -141 6 -162 14 -17 19 -39 20 -90 0 -37
4 -84 8 -104 l8 -36 -48 -8 c-61 -10 -55 -9 -80 -17 -31 -11 -44 -49 -44 -125
0 -71 5 -85 31 -94 10 -4 18 -24 23 -55 4 -33 12 -52 26 -61 21 -13 28 -42 10
-42 -5 0 -10 -8 -10 -17 1 -17 1 -17 14 0 7 9 15 17 18 17 3 0 10 -25 17 -55
10 -44 17 -56 36 -61 13 -3 32 -1 43 5 12 6 23 7 26 2 3 -4 32 -11 65 -14 33
-3 64 -7 69 -11 4 -3 16 -42 26 -88 10 -46 25 -109 33 -141 13 -45 14 -60 4
-70 -9 -9 -14 -9 -20 1 -5 8 -11 12 -15 10 -3 -1 -16 13 -28 32 l-21 35 -10
-35 c-9 -35 12 -350 34 -486 5 -33 9 -88 9 -122 0 -54 -2 -62 -19 -62 -22 0
-31 26 -31 93 0 58 -23 64 -45 11 -16 -40 -28 -196 -19 -261 7 -50 14 -52 139
-60 50 -3 95 -9 101 -14 18 -15 6 -44 -28 -63 -25 -15 -37 -16 -71 -8 -23 6
-95 13 -160 15 -107 4 -120 6 -133 26 -20 28 -38 27 -58 -4 -9 -14 -23 -25
-31 -25 -8 0 -16 -6 -17 -12 0 -7 -4 10 -7 37 -6 54 -3 105 8 103 19 -2 31 4
31 16 0 9 -7 12 -20 9 -11 -3 -20 0 -20 6 0 20 -89 1 -282 -62 -38 -12 -68
-25 -68 -29 0 -5 -6 -8 -14 -8 -8 0 -21 -6 -28 -13 -18 -17 -113 -67 -127 -67
-17 0 -125 -52 -129 -62 -2 -4 -8 -8 -14 -8 -5 0 -22 -8 -36 -19 -15 -10 -44
-24 -64 -32 -21 -7 -38 -17 -38 -21 0 -4 -6 -8 -13 -8 -8 0 -22 -9 -32 -20
-10 -12 -25 -18 -32 -16 -7 3 -15 1 -18 -5 -4 -5 -10 -7 -15 -4 -5 3 -15 -3
-22 -15 -7 -11 -22 -20 -33 -20 -12 0 -44 -12 -73 -26 -29 -14 -57 -24 -64
-22 -7 3 -19 -1 -26 -9 -7 -7 -25 -16 -40 -19 -15 -3 -38 -11 -52 -19 -14 -7
-42 -16 -62 -20 -21 -4 -38 -13 -38 -19 0 -7 -9 -30 -19 -52 -11 -22 -22 -66
-26 -99 -7 -72 -25 -145 -34 -145 -4 0 -7 -40 -8 -89 -1 -49 -6 -99 -13 -110
-6 -13 -10 -72 -10 -149 1 -86 -5 -165 -19 -247 -20 -115 -46 -443 -37 -453 3
-2 1 -14 -4 -26 -4 -12 -4 -42 0 -67 9 -49 20 -263 21 -439 1 -116 -14 -204
-35 -197 -11 4 -38 -62 -30 -74 2 -4 -11 -20 -31 -35 -19 -14 -35 -35 -35 -45
0 -10 -5 -21 -11 -24 -28 -18 -82 -185 -59 -185 18 0 5 -51 -20 -78 -42 -47
-50 -80 -40 -174 9 -94 19 -138 29 -138 20 0 34 -83 28 -159 -4 -44 -3 -81 2
-83 4 -2 11 -20 15 -40 5 -30 4 -38 -8 -38 -9 0 -18 15 -23 42 -8 41 -33 66
-33 33 0 -15 -2 -16 -17 -4 -15 13 -15 9 -8 -41 12 -85 10 -232 -3 -255 -9
-16 -11 -17 -12 -3 0 11 -6 15 -20 11 -13 -4 -20 0 -20 9 0 8 -6 22 -13 32
-13 18 -14 18 -35 1 -19 -17 -20 -19 -4 -32 15 -11 15 -14 2 -24 -13 -9 -13
-10 2 -6 9 3 21 0 27 -7 6 -7 37 -13 72 -14 34 -1 64 -3 65 -5 2 -2 4 -17 6
-35 1 -18 6 -32 11 -32 5 0 7 -11 5 -24 -4 -18 2 -31 19 -45 13 -12 28 -21 33
-21 6 0 10 -9 10 -20 0 -11 -7 -20 -15 -20 -8 0 -15 -4 -15 -10 0 -5 -11 -10
-25 -10 -20 0 -25 -5 -25 -25 0 -15 -6 -25 -15 -25 -22 0 -36 -36 -33 -83 2
-35 7 -43 26 -45 29 -4 31 -42 2 -42 -11 0 -23 -7 -26 -15 -4 -8 -12 -15 -19
-15 -7 0 -16 -6 -18 -12 -3 -8 -6 -6 -6 5 -1 21 -61 25 -61 3 0 -10 -22 -15
-80 -20 -44 -4 -84 -4 -90 -1 -6 4 -26 1 -46 -5 -33 -11 -34 -13 -17 -26 15
-11 716 -13 4481 -14 l4463 0 -2 132 c0 73 -3 138 -6 145 -4 10 -15 12 -34 8
-25 -6 -29 -3 -29 14 0 12 -6 21 -15 21 -9 0 -15 10 -16 28 -1 15 -3 64 -5
110 -3 71 -7 88 -31 122 -24 34 -33 40 -65 40 -32 0 -37 -3 -41 -27 -3 -16 -3
-2 -2 30 l3 57 -48 0 -48 0 1 -37 c1 -21 -2 -66 -7 -100 -7 -55 -6 -63 8 -63
9 0 16 -7 16 -15 0 -8 -5 -15 -11 -15 -7 0 -10 -23 -9 -62 4 -107 2 -118 -19
-118 -11 0 -23 5 -27 11 -4 8 -9 7 -15 -2 -6 -11 -16 -9 -48 9 -33 19 -46 21
-79 13 -39 -8 -96 8 -113 32 -9 13 -473 10 -477 -3 -2 -6 -21 -10 -42 -10 -21
0 -40 -3 -43 -7 -2 -5 -2 -2 0 6 2 8 -2 18 -9 22 -9 6 -15 47 -20 126 -4 65
-10 148 -13 186 -4 48 -3 67 6 67 8 0 8 4 -1 15 -16 20 -28 19 -32 -2 -2 -10
-7 11 -11 46 -4 35 -14 77 -22 94 -16 32 -11 51 11 43 8 -3 14 1 14 9 0 8 -7
15 -16 15 -18 0 -48 27 -37 33 27 16 112 21 378 23 437 3 475 4 475 22 0 13
-15 14 -89 9 -62 -4 -91 -2 -93 5 -3 8 -50 11 -144 11 -76 -1 -240 -2 -364 -3
-130 -1 -229 -5 -236 -11 -7 -5 -25 -7 -40 -3 -25 6 -26 8 -9 14 16 6 13 9
-16 15 -24 4 -45 2 -60 -6 -19 -10 -102 -12 -374 -10 -505 5 -492 4 -520 29
-15 13 -22 28 -19 37 4 8 1 15 -5 15 -6 0 -8 7 -5 15 4 8 -1 17 -10 21 -12 5
-16 19 -15 61 1 35 -3 58 -11 63 -7 5 -13 33 -15 71 -3 96 -3 96 -18 75 -12
-17 -14 -17 -20 -2 -4 9 -2 16 3 16 6 0 10 25 10 55 0 42 -3 55 -15 55 -8 0
-15 -6 -15 -14 0 -8 -5 -16 -11 -18 -9 -3 -9 -9 0 -25 17 -32 14 -48 -16 -77
-19 -19 -23 -30 -15 -38 7 -7 4 -16 -13 -32 -13 -11 -25 -32 -27 -46 -2 -14
-7 -28 -11 -31 -5 -3 -9 -12 -11 -20 -1 -8 -7 -24 -14 -36 -7 -12 -12 -28 -12
-36 0 -8 -7 -20 -15 -27 -9 -7 -14 -19 -11 -26 3 -7 -1 -15 -9 -17 -7 -3 -18
-28 -24 -56 -9 -44 -8 -55 7 -81 11 -16 21 -27 25 -24 3 3 9 -10 12 -29 5 -25
1 -48 -11 -76 -15 -34 -23 -41 -45 -41 -18 0 -30 6 -34 19 -11 36 -31 44 -59
26 -19 -13 -24 -23 -20 -39 5 -22 -29 -66 -42 -53 -7 6 10 64 36 122 10 22 28
65 41 95 68 165 102 240 111 240 4 0 8 10 8 22 0 13 11 45 24 73 14 27 36 74
50 103 28 59 33 106 14 149 -14 32 -170 188 -209 208 -14 8 -34 27 -45 42 -24
37 -64 133 -64 156 0 10 -4 16 -8 13 -9 -5 -165 153 -192 193 -28 43 -54 76
-98 123 -68 72 -114 149 -108 178 17 79 17 211 2 309 -9 58 -19 108 -21 112
-3 4 -5 49 -5 101 2 362 -9 675 -25 713 -7 17 -17 48 -24 70 -6 22 -32 82 -58
134 -49 95 -53 99 -145 143 -18 8 -261 133 -351 180 -28 15 -59 28 -67 28 -9
0 -20 4 -25 9 -6 4 -23 13 -40 19 -117 42 -311 120 -381 153 -22 10 -45 19
-51 19 -6 0 -60 20 -119 45 -60 25 -113 45 -117 45 -4 0 -42 16 -83 35 -41 19
-79 35 -84 35 -6 0 -10 5 -10 10 0 6 -7 10 -15 10 -8 0 -67 52 -132 115 -65
64 -127 124 -138 134 -11 10 -32 33 -47 52 -15 18 -30 30 -34 27 -3 -4 0 -39
6 -80 14 -86 9 -188 -14 -278 -9 -36 -19 -81 -22 -100 -3 -19 -12 -49 -20 -67
-8 -17 -14 -34 -14 -38 0 -3 -10 -27 -22 -53 -33 -73 -40 -138 -21 -198 16
-51 15 -54 -6 -112 -18 -46 -35 -71 -73 -104 -75 -63 -73 -61 -117 -151 -31
-66 -47 -87 -70 -97 -40 -16 -87 -15 -140 4 -24 9 -50 16 -59 16 -8 0 -25 11
-38 25 -13 14 -30 25 -38 25 -8 0 -17 4 -20 9 -3 5 -26 12 -50 15 -24 4 -50
14 -56 21 -7 8 -22 15 -34 15 -11 0 -29 7 -39 14 -15 12 -15 15 -2 26 8 7 15
9 15 4 0 -4 9 2 20 14 12 12 30 22 41 22 11 0 17 5 14 10 -3 6 3 10 14 10 11
0 28 10 38 23 10 13 26 26 36 30 9 3 17 11 17 17 0 6 4 9 9 5 6 -3 15 4 21 15
6 11 14 20 18 20 11 0 128 107 235 215 120 122 119 121 141 168 9 20 21 37 25
37 4 0 14 19 21 43 8 23 29 62 47 86 18 24 33 49 33 56 0 7 7 25 15 41 16 34
27 228 12 243 -5 5 -4 24 2 46 6 24 7 44 1 56 -7 12 -6 19 3 22 9 3 9 11 0 39
-11 29 -10 43 3 89 9 29 22 63 30 74 18 25 18 35 -1 35 -8 0 -15 -8 -15 -17
-1 -17 -1 -17 -11 0 -5 9 -18 17 -27 18 -10 0 -12 3 -4 6 6 2 12 13 12 24 0
19 -11 25 -24 12 -4 -4 -17 -8 -29 -8 -15 0 -21 -5 -19 -17 2 -12 -4 -18 -18
-18 -17 0 -20 -6 -20 -40 0 -22 -4 -40 -9 -40 -5 0 -12 -11 -15 -25 -4 -15
-16 -27 -31 -31 -14 -3 -25 -10 -25 -15 0 -5 -8 -4 -19 2 -11 8 -26 9 -37 4
-18 -8 -17 -9 4 -12 12 -3 22 -8 22 -12 0 -15 -37 -41 -58 -41 -29 0 -39 20
-13 27 29 7 27 23 -3 23 -13 0 -29 7 -36 15 -7 8 -15 13 -19 12 -3 -2 -18 9
-32 24 l-26 27 26 12 c18 8 27 8 29 1 2 -7 14 -3 29 9 17 13 33 18 49 14 19
-5 26 -1 33 17 5 13 5 25 1 27 -4 2 -6 12 -3 22 3 12 0 20 -7 20 -12 0 -45 29
-39 34 32 24 59 36 83 36 33 0 96 -20 96 -31 0 -4 9 -5 20 -2 26 7 41 35 29
54 -5 7 -9 24 -9 36 0 12 -9 27 -19 33 -25 13 -98 13 -103 0 -2 -7 -19 -5 -48
4 -25 8 -78 20 -119 26 -68 11 -72 13 -56 29 15 15 17 15 26 -1 11 -20 39 -24
39 -7 0 6 7 8 15 5 10 -4 19 2 24 17 13 32 0 39 -46 23 -36 -13 -42 -12 -56 1
-13 14 -13 18 6 39 12 14 41 36 66 51 43 25 45 25 90 10 33 -11 60 -13 96 -7
33 5 40 8 21 9 -23 1 -27 4 -18 13 7 7 12 27 12 45 0 26 -6 36 -31 48 -17 9
-46 15 -64 14 -18 -2 -40 3 -49 10 -18 15 -16 48 5 63 11 7 11 11 2 15 -26 10
-12 23 25 24 20 1 30 3 20 6 -9 2 -19 16 -23 31 -7 24 -8 25 -14 8 -6 -14 -10
-16 -15 -7 -4 6 -2 19 5 27 9 11 9 21 1 39 -7 15 -8 26 -2 30 16 10 12 85 -4
91 -11 4 -14 21 -13 60 2 47 5 54 22 54 11 0 42 -20 69 -45 43 -39 47 -46 35
-61 -11 -14 -11 -18 5 -30 10 -7 24 -15 30 -18 8 -3 7 -7 -2 -14 -10 -7 -10
-11 2 -21 8 -7 20 -10 26 -6 6 4 16 2 23 -3 15 -12 137 -14 137 -3 0 5 20 6
45 3 35 -3 46 -1 51 12 7 19 50 22 58 4 5 -10 7 -10 12 0 3 6 12 12 20 12 8 0
14 6 14 14 0 7 6 19 14 26 8 6 17 24 20 38 2 15 2 7 0 -18 -2 -25 -4 -56 -3
-70 0 -14 1 -53 2 -87 1 -33 5 -59 8 -57 14 8 29 -24 32 -68 2 -25 7 -50 11
-56 8 -13 45 -4 48 12 2 19 5 30 13 59 7 28 -10 87 -26 87 -18 0 -27 75 -16
132 7 31 16 60 20 64 4 4 7 14 7 23 0 9 16 34 36 56 19 22 47 65 62 95 l26 55
-3 325 c-1 219 -6 327 -13 331 -7 5 -5 14 6 30 9 14 16 18 16 10 0 -8 8 -23
17 -33 10 -11 18 -37 18 -61 5 -123 3 -117 31 -117 19 0 25 -4 20 -15 -7 -19
78 -79 114 -79 18 -1 25 -7 26 -21 1 -11 2 -24 3 -30 1 -5 8 0 16 12 12 17 29
22 95 28 58 5 80 11 80 21 0 8 -6 14 -13 14 -19 0 -69 55 -66 71 2 8 -12 29
-29 48 -18 19 -29 37 -24 40 6 3 12 17 13 30 3 17 18 31 49 47 96 48 96 48
134 30 21 -10 36 -24 36 -34 0 -9 9 -31 20 -49 13 -22 17 -42 13 -66 -4 -29
-2 -36 13 -40 16 -4 16 -5 -3 -6 -24 -1 -38 -16 -24 -26 6 -3 8 -12 4 -20 -3
-8 0 -15 6 -15 6 0 8 -7 5 -15 -6 -15 4 -19 37 -16 9 1 22 -5 29 -14 14 -17
40 -20 40 -5 0 6 18 10 40 10 22 0 40 -4 40 -10 0 -5 18 -10 40 -10 36 0 40 3
40 25 0 25 -1 25 -79 25 -54 0 -81 -4 -84 -12 -4 -10 -7 -10 -18 0 -7 6 -23
12 -36 12 -13 0 -23 4 -23 9 0 13 128 22 192 13 48 -7 58 -6 64 7 5 13 8 12
17 -6 5 -13 14 -23 19 -23 4 0 8 -18 8 -40 0 -22 5 -40 10 -40 13 0 13 77 0
82 -5 2 -1 30 11 68 11 37 18 79 15 97 -5 35 5 43 54 43 21 0 31 -6 36 -22 9
-31 24 -43 80 -69 27 -13 54 -29 59 -36 6 -7 28 -22 50 -33 41 -21 96 -25 203
-14 51 6 62 10 65 28 2 11 5 2 6 -21 1 -40 3 -43 30 -43 27 0 29 3 33 44 3 44
2 45 -31 51 -26 5 -31 9 -20 16 8 5 24 9 37 9 33 0 27 18 -10 29 -18 5 -25 10
-15 10 25 1 21 20 -8 31 -25 10 -33 34 -15 45 6 4 5 13 -3 25 -9 16 -23 20
-67 20 -97 0 -182 39 -141 65 27 16 3 32 -64 43 -16 2 -304 5 -638 6 -530 1
-609 -1 -617 -14 -8 -13 -10 -12 -10 2 0 17 -77 18 -1375 18 -756 0 -1375 -4
-1375 -8z m1056 -112 c4 -22 10 -40 14 -40 4 0 5 -11 2 -26 -3 -19 -10 -24
-25 -22 -37 5 -49 128 -12 128 9 0 17 -14 21 -40z m-216 0 c0 -5 -9 -10 -21
-10 -11 0 -17 5 -14 10 3 6 13 10 21 10 8 0 14 -4 14 -10z m2640 -190 c0 -5
-7 -10 -16 -10 -8 0 -12 5 -9 10 3 6 10 10 16 10 5 0 9 -4 9 -10z m-1342 -113
c14 -16 14 -19 -5 -36 -15 -15 -23 -17 -32 -8 -14 14 -14 28 0 64 8 20 13 24
16 13 3 -8 13 -23 21 -33z m-258 -47 c0 -5 -4 -10 -10 -10 -5 0 -10 5 -10 10
0 6 5 10 10 10 6 0 10 -4 10 -10z m400 -49 c0 -5 39 -12 88 -14 104 -6 113 -8
106 -19 -3 -4 -30 -8 -60 -8 -30 0 -54 -4 -54 -9 0 -14 91 -18 109 -4 9 7 25
13 35 13 20 0 20 0 1 -14 -19 -14 -19 -15 -2 -33 11 -13 17 -36 17 -66 0 -34
4 -47 14 -47 14 0 29 -72 17 -78 -4 -1 -5 -20 -3 -42 3 -25 0 -40 -7 -40 -6 0
-11 -9 -11 -20 0 -19 -1 -19 -20 -3 -11 10 -39 17 -67 19 -65 2 -259 30 -273
39 -7 4 -10 16 -7 26 3 12 0 19 -9 19 -10 0 -14 12 -14 41 0 32 6 47 30 71 17
16 30 34 30 39 0 5 7 9 15 9 11 0 15 12 15 47 0 29 6 53 17 65 17 19 33 24 33
9z m-140 -26 c10 -12 10 -15 -4 -15 -9 0 -16 7 -16 15 0 8 2 15 4 15 2 0 9 -7
16 -15z m-20 -175 c0 -5 -18 -10 -40 -10 -22 0 -40 5 -40 10 0 6 18 10 40 10
22 0 40 -4 40 -10z m-163 -52 c-2 -13 -4 -5 -4 17 -1 22 1 32 4 23 2 -10 2
-28 0 -40z m163 12 c0 -5 -18 -10 -40 -10 -22 0 -40 5 -40 10 0 6 18 10 40 10
22 0 40 -4 40 -10z m-102 -82 c-3 -44 -22 -62 -31 -29 -3 12 -17 23 -33 27
-28 7 -44 20 -44 37 0 4 25 7 56 7 l55 0 -3 -42z m-348 -88 c0 -5 -16 -10 -36
-10 -21 0 -33 4 -29 10 3 6 19 10 36 10 16 0 29 -4 29 -10z m750 -80 c11 -7 7
-10 -18 -10 -20 0 -31 4 -27 10 8 13 26 13 45 0z m-753 -106 c-3 -3 -12 -4
-19 -1 -8 3 -5 6 6 6 11 1 17 -2 13 -5z m-497 -79 c10 -12 10 -25 -1 -63 -7
-26 -12 -51 -11 -56 2 -4 -2 -14 -8 -20 -5 -7 -7 -16 -3 -19 3 -4 2 -7 -4 -7
-22 0 -46 71 -39 117 3 25 8 49 12 54 8 14 40 11 54 -6z m1100 -770 c0 -18 3
-35 8 -37 4 -1 4 -21 1 -43 l-6 -40 -2 43 c0 23 -5 42 -11 42 -5 0 -10 18 -10
41 0 24 4 38 10 34 6 -3 10 -21 10 -40z m-20 -438 c0 -67 -5 -129 -10 -137 -8
-13 -10 -12 -10 3 0 20 -16 23 -23 5 -3 -9 -13 -5 -31 11 -31 29 -34 46 -5 30
17 -9 23 -8 30 2 7 11 9 11 9 -1 0 -13 1 -13 11 0 5 8 9 56 8 105 -2 112 -1
118 11 110 6 -4 10 -57 10 -128z m-76 87 c18 -7 23 -84 6 -84 -5 0 -10 18 -10
39 0 29 -5 41 -17 44 -10 3 -13 5 -6 6 6 0 18 -2 27 -5z m-47 -66 c-2 -13 -4
-3 -4 22 0 25 2 35 4 23 2 -13 2 -33 0 -45z m160 40 c-3 -8 -6 -5 -6 6 -1 11
2 17 5 13 3 -3 4 -12 1 -19z m-327 -123 c0 -8 -7 -15 -16 -15 -14 0 -14 3 -4
15 7 8 14 15 16 15 2 0 4 -7 4 -15z m-53 -21 c-3 -3 -12 -4 -19 -1 -8 3 -5 6
6 6 11 1 17 -2 13 -5z m213 -24 c0 -5 -4 -10 -9 -10 -6 0 -13 5 -16 10 -3 6 1
10 9 10 9 0 16 -4 16 -10z m-7 -47 c-10 -3 -10 -8 1 -19 20 -20 29 -17 23 6
-4 16 0 20 20 20 13 0 21 -4 18 -10 -3 -5 -1 -10 5 -10 36 0 9 -63 -52 -121
-16 -14 -28 -31 -28 -37 0 -16 -8 -15 -26 2 -11 12 -12 24 -5 55 7 31 5 43 -7
55 -14 14 -14 18 8 41 13 14 31 25 39 24 10 0 12 -2 4 -6z m-52 -175 c-1 -5
-4 -8 -7 -7 -4 0 -11 -5 -15 -13 -6 -9 -9 -6 -9 10 0 16 5 22 16 20 8 -2 15
-6 15 -10z m-66 -58 c3 -5 1 -10 -4 -10 -6 0 -11 5 -11 10 0 6 2 10 4 10 3 0
8 -4 11 -10z m-1099 -189 c12 9 14 5 14 -27 0 -50 -10 -85 -21 -78 -5 3 -9 -4
-9 -15 0 -12 5 -21 11 -21 5 0 7 -5 3 -11 -14 -23 -24 17 -23 91 0 41 3 69 6
62 4 -10 8 -10 19 -1z m480 -106 c3 -14 2 -46 -3 -72 -7 -37 -5 -54 7 -75 8
-16 20 -28 26 -28 7 0 14 -7 18 -15 3 -8 12 -15 19 -15 8 0 20 -15 28 -32 7
-18 17 -36 23 -40 5 -4 -2 -10 -17 -13 -18 -5 -35 -1 -55 13 -27 20 -28 20
-40 2 -15 -25 -7 -44 26 -60 l27 -13 -32 -7 c-18 -4 -44 -15 -57 -24 l-25 -16
3 147 c2 99 -1 158 -9 178 -14 33 -11 48 14 76 22 26 39 24 47 -6z m-477 -170
c-2 -69 -16 -84 -38 -41 -9 16 -11 40 -6 77 9 68 14 75 32 50 9 -14 13 -42 12
-86z m585 -171 c9 -3 13 -11 10 -16 -4 -6 2 -7 17 -3 31 10 36 10 87 1 25 -5
42 -14 42 -22 0 -10 15 -14 52 -14 28 0 48 -3 45 -6 -9 -10 -169 -4 -182 5 -5
5 -27 11 -47 15 -21 4 -38 9 -38 11 0 2 -3 10 -6 19 -7 18 -4 19 20 10z m-118
-103 c19 -18 271 -67 359 -69 120 -4 271 -24 284 -37 14 -14 14 -17 1 -26 -16
-10 -152 -4 -235 12 -66 12 -192 28 -335 42 -124 13 -118 9 -112 70 2 18 22
23 38 8z m-73 -148 c23 -6 22 -26 -3 -48 -19 -18 -22 -18 -56 -2 -19 9 -56 17
-82 18 -26 0 -40 3 -32 6 8 4 21 12 28 20 13 13 105 17 145 6z m1119 -48 c-2
-14 -7 -26 -11 -26 -53 -11 -63 -1 -31 31 28 28 48 26 42 -5z m-922 -1 c58 -8
139 -19 180 -24 75 -10 97 -14 223 -46 90 -23 82 -39 -19 -39 -70 1 -144 10
-336 45 -32 6 -88 13 -125 17 -79 7 -97 16 -82 44 12 23 24 23 159 3z m905
-114 c19 0 28 -17 21 -44 -4 -18 -11 -21 -40 -18 -18 2 -37 -1 -40 -7 -10 -15
-36 -14 -36 2 0 18 46 78 53 70 4 -3 7 2 7 13 1 18 1 18 11 2 5 -10 16 -18 24
-18z m-1131 -52 c22 1 78 -3 125 -8 47 -6 113 -13 146 -15 33 -3 80 -9 105
-15 25 -5 63 -12 85 -15 22 -4 45 -10 50 -15 6 -4 33 -11 60 -15 38 -6 45 -9
30 -15 -18 -7 -16 -8 10 -13 17 -3 -6 -3 -50 -1 -44 3 -118 7 -165 10 -47 3
-96 9 -110 14 -14 5 -50 11 -80 15 -120 13 -195 27 -205 39 -13 17 -64 26 -72
13 -4 -6 -11 -3 -19 8 -13 18 -15 18 -38 -4 -20 -19 -28 -21 -45 -12 -30 17
-25 37 14 58 15 9 31 7 70 -9 27 -12 68 -21 89 -20z m-224 12 c13 -25 5 -40
-21 -40 -13 0 -19 7 -19 23 0 41 22 50 40 17z m172 -174 c5 -13 5 -48 -2 -96
-11 -81 -14 -136 -11 -190 3 -50 -14 -172 -28 -197 -6 -13 -7 -24 -2 -27 5 -3
7 -15 4 -27 -4 -15 -12 -19 -32 -17 -23 3 -27 8 -31 48 -4 37 -9 46 -27 48
-12 2 -30 -1 -41 -7 -11 -6 -24 -6 -33 -1 -12 8 -13 44 -11 217 2 114 6 217 9
228 12 42 23 46 111 44 74 -2 85 -5 94 -23z m173 -33 c39 -3 75 -9 80 -13 6
-4 44 -10 85 -13 94 -8 224 -35 228 -48 2 -5 19 -9 38 -9 22 0 37 -6 41 -15 9
-26 -4 -29 -60 -11 -29 9 -62 16 -72 15 -46 -5 -116 2 -111 10 3 5 -47 11
-112 15 -215 11 -262 22 -262 57 0 18 32 30 60 22 8 -3 47 -7 85 -10z m200
-228 c99 -15 194 -28 211 -31 18 -2 38 -11 45 -20 11 -14 4 -15 -67 -10 -188
12 -362 27 -402 36 -23 6 -62 10 -87 10 -39 0 -45 3 -45 21 0 39 25 47 99 33
36 -7 147 -25 246 -39z m-202 -161 c40 -4 77 -10 82 -13 6 -4 26 -8 45 -10 19
-2 40 -6 45 -11 6 -4 63 -13 128 -20 65 -8 113 -17 106 -20 -8 -6 -7 -9 2 -13
8 -3 -14 -6 -48 -6 -34 -1 -73 3 -86 8 -14 6 -82 13 -151 17 -69 3 -140 8
-158 9 -18 2 -46 3 -61 4 -31 1 -42 19 -33 56 6 22 9 23 32 15 14 -6 58 -13
97 -16z m-363 -104 c0 -5 -5 -10 -11 -10 -5 0 -7 5 -4 10 3 6 8 10 11 10 2 0
4 -4 4 -10z m2140 -4 c0 -2 3 -11 6 -19 3 -8 -2 -22 -11 -31 -9 -9 -12 -16 -6
-16 6 0 11 -6 11 -13 0 -15 -62 -16 -92 -3 -26 12 -22 29 5 23 12 -4 29 -2 37
3 13 8 12 10 -2 10 -21 0 -22 4 -8 31 9 16 60 29 60 15z m-1735 -96 c6 -4 41
-10 79 -13 38 -4 74 -11 80 -17 5 -5 20 -10 33 -10 13 0 23 -5 23 -11 0 -20
-360 6 -422 30 -16 6 -28 18 -28 26 0 14 13 16 113 10 61 -4 117 -11 122 -15z
m-47 -197 c-32 -2 -86 -2 -120 0 -35 2 -9 3 57 3 66 0 94 -1 63 -3z m224 -30
c6 -7 28 -13 48 -14 l35 -1 -34 -11 c-25 -8 -66 -6 -170 7 -232 31 -239 35
-59 33 118 -1 171 -6 180 -14z m-375 -159 c-3 -3 -12 -4 -19 -1 -8 3 -5 6 6 6
11 1 17 -2 13 -5z m2203 -19 c0 -16 -27 -32 -37 -22 -3 4 -3 13 0 22 8 20 37
20 37 0z m-2030 -5 c0 -5 -4 -10 -9 -10 -6 0 -13 5 -16 10 -3 6 1 10 9 10 9 0
16 -4 16 -10z m176 -11 c7 -5 28 -10 48 -11 20 -1 36 -5 36 -10 0 -11 -50 -10
-86 1 -16 5 -59 13 -97 16 -41 4 -65 11 -61 17 7 12 143 1 160 -13z m1981 -81
c-3 -8 -6 -5 -6 6 -1 11 2 17 5 13 3 -3 4 -12 1 -19z m-17 -39 c-11 -20 -25
-25 -35 -10 -7 12 24 43 36 35 5 -3 5 -13 -1 -25z m-2300 -39 c0 -5 -6 -10
-14 -10 -8 0 -18 5 -21 10 -3 6 3 10 14 10 12 0 21 -4 21 -10z m107 -6 c-3 -3
-12 -4 -19 -1 -8 3 -5 6 6 6 11 1 17 -2 13 -5z m186 -21 c-7 -2 -19 -2 -25 0
-7 3 -2 5 12 5 14 0 19 -2 13 -5z m98 -10 c-11 -5 -11 -7 0 -14 9 -6 -2 -8
-31 -7 -30 0 -37 2 -20 6 l25 5 -25 8 c-20 5 -16 7 20 7 25 0 39 -2 31 -5z
m-223 -158 c3 -3 -35 -4 -84 -4 -58 1 -79 4 -59 8 32 8 135 5 143 -4z m-1110
-76 c-10 -5 -18 -15 -18 -20 0 -6 -13 -22 -29 -37 -16 -15 -34 -37 -40 -49 -6
-13 -15 -22 -19 -22 -19 3 -50 -14 -46 -25 5 -14 -18 -38 -32 -35 -5 1 -20 -2
-33 -8 -22 -9 -22 -10 -6 -17 17 -6 17 -8 -3 -22 -12 -8 -37 -16 -55 -16 -17
0 -49 -9 -71 -20 -23 -12 -48 -17 -62 -14 -17 5 -26 2 -31 -9 -3 -9 -12 -14
-20 -11 -7 3 -16 -1 -19 -9 -4 -8 -10 -13 -14 -10 -4 3 -10 -2 -14 -10 -12
-32 -106 -72 -106 -45 0 6 8 19 18 30 9 10 33 37 52 59 19 23 38 41 42 41 4 0
19 11 34 25 15 14 33 25 40 25 8 0 14 4 14 9 0 10 74 26 101 22 9 -1 37 12 62
29 25 16 50 30 56 30 6 0 11 4 11 8 0 5 12 15 27 23 15 8 34 20 43 27 62 52
78 61 105 61 25 0 27 -1 13 -10z m4822 -374 c0 -8 5 -15 11 -15 5 0 7 -4 4
-10 -10 -16 -21 -11 -33 15 -10 21 -9 25 3 25 8 0 15 -7 15 -15z m37 -67 c-3
-8 -6 -5 -6 6 -1 11 2 17 5 13 3 -3 4 -12 1 -19z m655 -239 c230 0 388 -4 390
-10 2 -5 1 -52 -2 -105 -5 -83 -9 -98 -28 -112 l-21 -17 24 -24 c29 -27 30
-34 10 -51 -11 -9 -12 -16 -4 -26 11 -13 7 -123 -5 -143 -4 -6 -13 -8 -20 -5
-7 3 -19 -2 -26 -11 -10 -12 -10 -15 2 -15 21 0 68 -39 68 -56 0 -8 -7 -14
-15 -14 -8 0 -15 -8 -15 -18 0 -24 -35 -56 -50 -47 -6 4 -22 25 -36 47 -29 46
-26 84 7 96 28 11 7 27 -42 35 -42 6 -92 -19 -68 -34 10 -6 11 -17 3 -46 -8
-34 -12 -38 -42 -38 -24 0 -40 -9 -65 -36 l-33 -36 -185 -5 c-101 -3 -175 -2
-164 3 19 8 -41 4 -92 -7 -11 -2 -35 -1 -52 2 l-31 7 1 98 c1 65 -2 103 -10
113 -18 21 -42 106 -31 106 15 0 12 97 -5 137 -8 19 -15 51 -15 69 0 19 -4 34
-10 34 -14 0 -12 69 3 84 30 30 53 37 112 31 33 -3 234 -5 447 -6z m552 -28
c4 -5 -3 -7 -14 -4 -23 6 -26 13 -6 13 8 0 17 -4 20 -9z m-24 -51 c12 -8 12
-10 -3 -16 -9 -3 -25 -3 -34 0 -15 6 -15 8 -3 16 8 6 17 10 20 10 3 0 12 -4
20 -10z m-7150 -130 c0 -5 -5 -10 -11 -10 -5 0 -7 5 -4 10 3 6 8 10 11 10 2 0
4 -4 4 -10z m5603 -92 c-3 -16 -12 -28 -19 -28 -8 0 -14 -9 -14 -20 0 -11 -7
-23 -15 -26 -8 -4 -15 -10 -15 -15 0 -5 7 -9 15 -9 8 0 15 -7 15 -15 0 -8 -6
-12 -14 -9 -11 4 -16 -4 -18 -28 -3 -36 -33 -51 -50 -26 -6 9 -7 6 -3 -9 3
-13 2 -23 -3 -23 -5 0 -12 -14 -16 -32 -6 -29 -7 -30 -24 -15 -23 21 -32 21
-32 2 0 -8 -8 -15 -19 -15 -10 0 -33 -3 -51 -6 -31 -7 -31 -6 -19 15 8 11 19
21 25 21 6 0 17 7 24 15 10 12 16 13 26 4 11 -9 14 -8 14 4 0 9 -5 19 -10 22
-7 4 -1 15 14 28 58 52 78 67 87 67 5 0 9 7 9 14 0 8 11 27 25 42 14 15 25 34
25 42 0 18 32 44 42 34 3 -4 4 -19 1 -34z m2617 -85 c-4 -42 -5 -44 -8 -15 -3
30 2 62 10 62 2 0 1 -21 -2 -47z m-2625 -113 c4 -6 -7 -10 -25 -10 -18 0 -29
4 -25 10 3 6 15 10 25 10 10 0 22 -4 25 -10z m83 -78 c2 -7 -3 -12 -12 -12 -9
0 -16 7 -16 16 0 17 22 14 28 -4z m-348 -21 c0 -5 -7 -11 -15 -15 -8 -3 -20
-17 -27 -31 -13 -29 -27 -33 -29 -7 -1 16 -2 16 -6 0 -2 -10 -11 -18 -19 -18
-8 0 -12 -4 -9 -10 3 -5 18 -10 32 -10 48 0 14 -13 -45 -17 -47 -4 -62 -1 -77
13 -17 18 -17 19 11 31 16 7 39 12 51 13 13 0 37 13 55 30 31 28 78 41 78 21z
m-415 -41 c-28 -12 -63 -12 -70 0 -4 6 12 10 42 9 36 0 43 -3 28 -9z m415 -20
c0 -12 -7 -20 -17 -20 -14 0 -15 2 -4 9 7 5 10 14 7 20 -4 6 -2 11 3 11 6 0
11 -9 11 -20z m-221 -6 c2 -2 -12 -4 -33 -4 -22 0 -35 4 -31 10 5 9 52 4 64
-6z m-182 0 c-3 -3 -12 -4 -19 -1 -8 3 -5 6 6 6 11 1 17 -2 13 -5z m80 0 c-3
-3 -12 -4 -19 -1 -8 3 -5 6 6 6 11 1 17 -2 13 -5z m-4089 -150 c12 -8 22 -23
21 -32 0 -12 -3 -11 -9 6 -6 12 -18 22 -30 22 -11 0 -20 5 -20 10 0 14 12 12
38 -6z m52 -56 c0 -21 -4 -38 -10 -38 -5 0 -10 24 -10 53 0 37 3 48 10 37 5
-8 10 -32 10 -52z m-207 15 c-13 -2 -35 -2 -50 0 -16 2 -5 4 22 4 28 0 40 -2
28 -4z"/>
<path d="M7440 6590 c0 -5 18 -10 39 -10 22 0 41 -5 44 -12 2 -7 8 -10 12 -6
4 4 0 14 -8 23 -17 17 -87 21 -87 5z"/>
<path d="M7193 4575 c-9 -10 -8 -14 8 -18 12 -3 19 0 19 8 0 20 -13 25 -27 10z"/>
<path d="M6197 3056 c-3 -8 -2 -18 3 -21 13 -8 24 15 12 27 -6 6 -11 4 -15 -6z"/>
<path d="M6142 3036 c7 -8 15 -12 17 -11 5 6 -10 25 -20 25 -5 0 -4 -6 3 -14z"/>
<path d="M6137 2962 c1 -8 3 -29 3 -48 0 -27 4 -34 19 -34 26 0 34 14 26 50
-4 20 -13 30 -25 30 -10 0 -20 3 -23 8 -2 4 -2 1 0 -6z"/>
<path d="M10890 741 c0 -22 14 -28 26 -10 4 8 9 7 15 -2 7 -11 9 -10 9 4 0 9
-4 17 -9 17 -5 0 -16 3 -25 6 -12 4 -16 0 -16 -15z"/>
<path d="M10865 740 c3 -5 8 -10 11 -10 2 0 4 5 4 10 0 6 -5 10 -11 10 -5 0
-7 -4 -4 -10z"/>
<path d="M11108 743 c12 -2 32 -2 45 0 12 2 2 4 -23 4 -25 0 -35 -2 -22 -4z"/>
<path d="M10890 510 c0 -5 12 -10 26 -10 14 0 23 4 19 10 -3 6 -15 10 -26 10
-10 0 -19 -4 -19 -10z"/>
<path d="M10453 497 c-3 -5 -3 -10 -2 -11 7 -6 119 6 119 13 0 9 -111 7 -117
-2z"/>
<path d="M10754 495 c11 -8 26 -15 33 -15 7 0 13 -9 13 -21 0 -11 3 -19 8 -17
4 3 22 11 40 18 19 9 32 22 32 32 0 16 -10 18 -72 18 -66 -1 -71 -2 -54 -15z"/>
<path d="M10370 7189 c13 -6 27 -14 30 -19 8 -12 63 3 68 18 3 9 -15 12 -60
11 -52 0 -59 -2 -38 -10z"/>
<path d="M10515 7186 c32 -9 36 -13 22 -19 -10 -4 -27 -7 -38 -7 -32 0 -21
-19 19 -29 51 -15 72 -14 72 3 0 16 21 26 55 26 14 0 29 9 35 20 10 19 7 20
-97 19 -100 -1 -105 -2 -68 -13z"/>
<path d="M11274 7184 c3 -9 6 -20 6 -25 0 -5 6 -9 13 -9 7 0 24 -11 39 -25 18
-16 28 -20 31 -12 8 18 8 -34 1 -87 -5 -37 -9 -44 -20 -35 -7 6 -22 8 -32 5
-26 -9 -57 -44 -47 -54 4 -4 10 -1 12 6 3 6 11 12 19 12 10 0 14 -12 14 -40 0
-38 1 -40 33 -41 l32 -1 -35 -10 c-31 -9 -33 -11 -15 -19 36 -14 74 -10 85 10
7 14 6 21 -3 24 -7 3 -5 8 8 13 11 4 23 12 26 17 12 17 85 25 104 10 11 -7 27
-13 37 -13 10 0 18 -4 18 -10 0 -5 8 -10 19 -10 10 0 25 -10 33 -22 10 -15 30
-23 69 -29 84 -12 269 -11 269 2 0 5 4 8 9 4 15 -8 22 10 47 112 12 52 26 98
29 102 10 9 157 3 164 -6 3 -5 59 -10 124 -12 92 -2 117 0 117 11 0 10 14 12
55 10 30 -2 55 -7 55 -12 0 -14 61 -30 111 -30 32 0 50 -4 51 -12 2 -21 5 -51
7 -81 2 -48 21 -19 21 32 0 26 3 50 6 53 3 4 7 47 9 97 l4 91 -766 0 c-694 0
-765 -1 -759 -16z m483 -310 c-3 -3 -12 -4 -19 -1 -8 3 -5 6 6 6 11 1 17 -2
13 -5z"/>
<path d="M9300 7160 c0 -5 9 -10 19 -10 11 0 23 5 26 10 4 6 -5 10 -19 10 -14
0 -26 -4 -26 -10z"/>
<path d="M9448 7163 c7 -3 16 -2 19 1 4 3 -2 6 -13 5 -11 0 -14 -3 -6 -6z"/>
<path d="M738 7143 c12 -2 32 -2 45 0 12 2 2 4 -23 4 -25 0 -35 -2 -22 -4z"/>
<path d="M1520 7136 c0 -9 5 -16 10 -16 6 0 10 4 10 9 0 6 -4 13 -10 16 -5 3
-10 -1 -10 -9z"/>
<path d="M1 6864 c0 -11 3 -14 6 -6 3 7 2 16 -1 19 -3 4 -6 -2 -5 -13z"/>
<path d="M5528 6873 c7 -3 16 -2 19 1 4 3 -2 6 -13 5 -11 0 -14 -3 -6 -6z"/>
<path d="M5904 6870 c17 -6 36 -5 45 0 11 7 3 9 -29 9 -42 -1 -43 -1 -16 -9z"/>
<path d="M9440 6810 c0 -5 5 -10 11 -10 5 0 7 5 4 10 -3 6 -8 10 -11 10 -2 0
-4 -4 -4 -10z"/>
<path d="M9298 6803 c12 -2 32 -2 45 0 12 2 2 4 -23 4 -25 0 -35 -2 -22 -4z"/>
<path d="M9556 6801 c-9 -13 22 -22 52 -14 24 6 25 7 7 14 -28 11 -53 11 -59
0z"/>
<path d="M9168 6793 c6 -2 18 -2 25 0 6 3 1 5 -13 5 -14 0 -19 -2 -12 -5z"/>
<path d="M9137 6763 c-4 -3 3 -11 16 -18 13 -6 21 -18 19 -29 -2 -11 2 -17 10
-14 25 8 20 44 -7 56 -30 14 -30 14 -38 5z"/>
<path d="M11393 6653 c9 -2 25 -2 35 0 9 3 1 5 -18 5 -19 0 -27 -2 -17 -5z"/>
<path d="M7630 5930 c0 -5 5 -10 11 -10 5 0 7 5 4 10 -3 6 -8 10 -11 10 -2 0
-4 -4 -4 -10z"/>
<path d="M7631 5813 c-9 -38 -21 -54 -53 -78 -23 -16 -51 -34 -62 -38 -16 -6
-17 -10 -7 -16 12 -8 31 -6 66 4 6 1 15 3 20 4 6 1 15 16 21 33 l11 32 6 -34
c4 -18 3 -36 -1 -39 -5 -3 -7 -23 -4 -43 3 -32 8 -38 28 -38 14 0 24 6 24 14
0 7 7 27 15 42 8 16 15 42 15 59 0 29 -48 145 -60 145 -3 0 -12 -21 -19 -47z"/>
<path d="M7260 5745 c0 -8 5 -15 10 -15 6 0 10 7 10 15 0 8 -4 15 -10 15 -5 0
-10 -7 -10 -15z"/>
<path d="M7520 5744 c0 -8 5 -12 10 -9 6 3 10 10 10 16 0 5 -4 9 -10 9 -5 0
-10 -7 -10 -16z"/>
<path d="M7539 5627 c-1 -12 -1 -26 0 -31 1 -5 -4 -13 -11 -17 -10 -7 -9 -14
5 -38 19 -33 21 -41 8 -41 -5 0 -22 -13 -38 -29 -21 -21 -25 -31 -17 -39 13
-12 34 3 34 25 0 7 15 16 33 21 26 7 31 13 29 33 -2 13 -3 47 -3 75 1 44 -2
52 -19 57 -15 4 -20 0 -21 -16z"/>
<path d="M7425 5610 c-3 -5 -1 -10 4 -10 6 0 11 5 11 10 0 6 -2 10 -4 10 -3 0
-8 -4 -11 -10z"/>
<path d="M7453 5333 c-15 -6 -18 -43 -3 -43 9 0 30 31 30 44 0 7 -10 7 -27 -1z"/>
<path d="M7280 5304 c0 -8 5 -12 10 -9 6 4 8 11 5 16 -9 14 -15 11 -15 -7z"/>
<path d="M9923 2263 c15 -2 39 -2 55 0 15 2 2 4 -28 4 -30 0 -43 -2 -27 -4z"/>
<path d="M11893 2183 c32 -2 81 -2 110 0 29 2 3 3 -58 3 -60 0 -84 -1 -52 -3z"/>
<path d="M4380 2035 c0 -8 5 -15 10 -15 6 0 10 7 10 15 0 8 -4 15 -10 15 -5 0
-10 -7 -10 -15z"/>
<path d="M9932 1888 c6 -18 28 -21 28 -4 0 9 -7 16 -16 16 -9 0 -14 -5 -12
-12z"/>
<path d="M9977 1845 c-4 -8 -2 -17 3 -20 6 -4 10 3 10 14 0 25 -6 27 -13 6z"/>
<path d="M10046 1784 c-4 -9 -5 -17 -4 -18 2 -1 13 -7 26 -14 13 -7 22 -8 22
-2 0 5 -4 10 -10 10 -5 0 -10 6 -10 14 0 22 -17 28 -24 10z"/>
<path d="M2 1695 c0 -16 2 -22 5 -12 2 9 2 23 0 30 -3 6 -5 -1 -5 -18z"/>
<path d="M10142 1712 c-17 -5 -15 -22 3 -22 8 0 15 -7 15 -15 0 -8 5 -15 10
-15 14 0 12 29 -3 44 -7 7 -18 11 -25 8z"/>
<path d="M10241 1664 c0 -11 3 -14 6 -6 3 7 2 16 -1 19 -3 4 -6 -2 -5 -13z"/>
<path d="M10193 1624 c-7 -18 17 -38 31 -24 11 11 1 40 -14 40 -6 0 -13 -7
-17 -16z"/>
<path d="M2 1550 c0 -19 2 -27 5 -17 2 9 2 25 0 35 -3 9 -5 1 -5 -18z"/>
<path d="M1 1494 c0 -11 3 -14 6 -6 3 7 2 16 -1 19 -3 4 -6 -2 -5 -13z"/>
<path d="M10205 1450 c-3 -5 1 -10 10 -10 9 0 13 5 10 10 -3 6 -8 10 -10 10
-2 0 -7 -4 -10 -10z"/>
<path d="M1 1414 c0 -11 3 -14 6 -6 3 7 2 16 -1 19 -3 4 -6 -2 -5 -13z"/>
<path d="M2005 1401 c-7 -12 29 -33 39 -24 3 3 6 12 6 20 0 15 -36 18 -45 4z"/>
<path d="M2 1330 c0 -19 2 -27 5 -17 2 9 2 25 0 35 -3 9 -5 1 -5 -18z"/>
<path d="M2003 1320 c0 -25 2 -35 4 -22 2 12 2 32 0 45 -2 12 -4 2 -4 -23z"/>
<path d="M1 1178 c1 -49 3 -55 8 -29 4 21 14 37 26 42 17 6 17 8 3 8 -10 1
-18 7 -18 15 0 8 -4 18 -10 21 -6 4 -10 -17 -9 -57z"/>
<path d="M1918 1203 c4 -33 4 -33 -37 -33 -30 0 -41 4 -41 15 0 16 -16 20 -24
6 -7 -11 -102 -20 -276 -24 -80 -3 -153 -8 -162 -12 -20 -8 -25 -35 -7 -35 7
0 18 -8 25 -17 12 -16 15 -16 27 -3 16 20 88 45 96 34 7 -11 81 -14 81 -4 0
29 162 8 185 -24 8 -10 18 -15 24 -12 13 9 23 -27 16 -57 -4 -14 -2 -28 4 -31
6 -4 11 -25 11 -47 0 -23 -4 -38 -9 -34 -17 10 -32 -33 -42 -113 -12 -101 -25
-178 -37 -223 -6 -22 -6 -43 0 -53 5 -10 5 -23 -1 -35 -8 -14 -7 -21 2 -24 9
-4 9 -8 -1 -15 -8 -5 -12 -20 -10 -33 7 -54 -86 -77 -172 -43 -34 14 -50 15
-97 5 -31 -6 -73 -11 -93 -11 -20 0 -40 -4 -46 -9 -5 -6 -31 -6 -63 0 -30 4
-65 6 -78 3 -12 -3 -62 0 -110 7 -48 6 -113 13 -143 13 -30 1 -74 3 -97 4
l-43 2 0 40 c0 29 4 40 15 40 19 0 19 14 0 30 -21 18 -19 41 11 93 24 44 24
47 9 77 -9 17 -13 36 -9 42 5 8 2 9 -9 5 -10 -4 -17 -2 -17 4 0 6 -11 20 -25
31 -21 16 -25 28 -25 69 0 37 -4 49 -15 49 -12 0 -15 -13 -15 -56 l0 -57 -70
7 c-47 5 -70 4 -70 -3 0 -21 -19 -11 -22 12 -3 14 -7 3 -12 -28 -5 -27 -14
-64 -21 -82 -12 -28 -11 -33 7 -50 14 -13 18 -26 14 -48 -3 -16 -9 -56 -15
-88 -13 -78 -22 -87 -88 -87 -40 0 -59 5 -75 20 -12 11 -27 20 -34 20 -6 0
-14 6 -17 13 -6 16 -179 6 -201 -12 -11 -9 -17 -8 -30 4 -9 9 -16 13 -16 8 0
-4 -5 -1 -11 7 -6 9 -7 47 -4 98 5 54 3 82 -4 82 -5 0 -11 -19 -13 -42 -2 -24
-7 9 -12 75 -5 64 -12 117 -17 117 -5 0 -9 -174 -9 -395 l0 -395 1695 0 1696
0 -12 21 c-8 16 -13 18 -19 9 -6 -9 -12 -5 -23 16 -8 16 -12 34 -10 40 2 7 -8
21 -22 32 -28 22 -33 57 -10 66 23 8 18 25 -10 36 -28 11 -35 34 -7 26 14 -5
17 1 17 33 l0 39 -72 -1 c-39 -1 -69 1 -67 4 2 4 -5 9 -16 12 -11 3 -21 0 -21
-6 -1 -7 -5 12 -9 41 -13 85 -30 86 -38 2 -3 -39 -8 -50 -22 -50 -26 0 -90
-29 -90 -40 0 -6 15 -16 33 -24 17 -8 26 -15 20 -15 -36 -3 -70 -74 -40 -84 9
-3 9 -7 -2 -20 -12 -15 -16 -15 -42 -1 -34 17 -37 29 -8 45 23 12 17 23 -18
34 -21 6 -23 3 -23 -35 0 -25 -4 -39 -10 -35 -5 3 -10 31 -10 62 0 40 -5 62
-20 80 -12 15 -20 20 -20 12 -1 -11 -3 -10 -13 2 -15 20 -84 28 -272 33 -236
7 -429 16 -457 22 -32 6 -36 15 -44 99 -4 43 -3 74 6 94 16 40 6 78 -23 84
-19 4 -18 4 6 6 25 1 27 4 27 41 0 29 -4 40 -15 40 -11 0 -15 11 -15 40 0 22
4 40 9 40 5 0 14 14 21 31 10 22 10 33 1 42 -6 6 -11 37 -11 68 0 72 -7 94
-26 78 -11 -9 -14 -8 -14 4 0 11 -12 17 -42 20 l-43 4 43 1 c41 2 42 3 42 37
0 34 1 35 38 35 21 0 41 3 45 6 7 7 -61 74 -74 74 -5 0 -9 6 -9 14 0 9 -14 15
-43 17 l-42 4 3 -32z m-1198 -463 c0 -5 -18 -10 -40 -10 -22 0 -40 5 -40 10 0
6 18 10 40 10 22 0 40 -4 40 -10z m-133 -82 c-2 -13 -4 -3 -4 22 0 25 2 35 4
23 2 -13 2 -33 0 -45z m-560 -205 c-3 -10 -5 -4 -5 12 0 17 2 24 5 18 2 -7 2
-21 0 -30z m-10 -115 c-2 -13 -4 -3 -4 22 0 25 2 35 4 23 2 -13 2 -33 0 -45z"/>
<path d="M235 1200 c-94 -3 -154 -7 -135 -9 66 -6 315 -6 360 0 l45 5 -50 5
c-28 2 -127 2 -220 -1z"/>
<path d="M1218 1163 c12 -2 32 -2 45 0 12 2 2 4 -23 4 -25 0 -35 -2 -22 -4z"/>
<path d="M1295 1160 c-4 -6 7 -10 25 -10 18 0 29 4 25 10 -3 6 -15 10 -25 10
-10 0 -22 -4 -25 -10z"/>
<path d="M1150 1152 c0 -13 27 -35 39 -30 5 1 -2 11 -15 21 -13 10 -24 14 -24
9z"/>
<path d="M11261 1150 c-11 -6 -9 -10 7 -19 25 -14 42 -14 42 -1 0 15 -35 29
-49 20z"/>
<path d="M2128 1143 c6 -2 18 -2 25 0 6 3 1 5 -13 5 -14 0 -19 -2 -12 -5z"/>
<path d="M2215 1140 c-15 -24 9 -30 99 -24 60 4 99 3 113 -4 34 -18 313 -15
332 3 2 3 -5 5 -17 5 -11 0 -22 6 -24 13 -6 15 -494 22 -503 7z"/>
<path d="M11280 1100 c0 -5 7 -10 16 -10 8 0 12 5 9 10 -3 6 -10 10 -16 10 -5
0 -9 -4 -9 -10z"/>
<path d="M0 952 c0 -84 3 -152 8 -152 7 0 5 291 -3 299 -3 2 -5 -64 -5 -147z"/>
<path d="M11440 1080 c0 -5 9 -10 21 -10 11 0 17 5 14 10 -3 6 -13 10 -21 10
-8 0 -14 -4 -14 -10z"/>
<path d="M12760 1020 c0 -5 5 -10 11 -10 5 0 7 5 4 10 -3 6 -8 10 -11 10 -2 0
-4 -4 -4 -10z"/>
<path d="M12340 1011 c0 -11 69 -20 76 -10 2 4 -3 10 -12 13 -24 9 -64 7 -64
-3z"/>
<path d="M560 921 c0 -17 4 -18 32 -10 52 15 57 29 10 29 -35 0 -42 -3 -42
-19z"/>
<path d="M615 895 l-30 -13 43 -1 c30 -1 42 3 40 11 -6 18 -20 19 -53 3z"/>
<path d="M1391 886 c-14 -17 9 -39 33 -30 12 5 16 0 16 -20 0 -14 -5 -26 -12
-26 -6 0 -9 -3 -5 -6 8 -9 67 28 67 43 0 6 -5 15 -10 18 -6 4 -8 10 -5 15 3 4
-3 11 -12 14 -9 4 -20 2 -23 -5 -6 -8 -9 -8 -14 0 -10 15 -21 14 -35 -3z"/>
<path d="M3936 891 c-4 -5 0 -11 6 -14 19 -6 49 4 42 14 -7 12 -41 12 -48 0z"/>
<path d="M1550 865 c0 -8 5 -15 10 -15 6 0 10 7 10 15 0 8 -4 15 -10 15 -5 0
-10 -7 -10 -15z"/>
<path d="M3996 864 c-9 -24 -4 -24 18 -3 16 16 17 19 4 19 -9 0 -19 -7 -22
-16z"/>
<path d="M4075 789 c-4 -6 -5 -12 -2 -15 2 -3 7 2 10 11 7 17 1 20 -8 4z"/>
<path d="M4151 774 c0 -11 3 -14 6 -6 3 7 2 16 -1 19 -3 4 -6 -2 -5 -13z"/>
<path d="M12453 772 c-18 -2 -33 -7 -33 -12 0 -10 95 -38 133 -38 34 0 47 -10
28 -21 -7 -5 -11 -19 -9 -32 2 -18 9 -24 31 -25 23 -1 27 3 27 27 0 15 -4 29
-10 31 -9 3 -17 33 -19 66 -1 13 -48 11 -70 -2 -6 -4 -19 -3 -28 1 -10 5 -33
7 -50 5z"/>
<path d="M12080 751 c0 -5 -10 -12 -22 -14 -22 -4 -22 -4 -2 -6 12 0 27 6 34
14 9 10 9 15 1 15 -6 0 -11 -4 -11 -9z"/>
<path d="M70 540 c0 -24 25 -27 34 -4 9 23 8 24 -14 24 -13 0 -20 -7 -20 -20z"/>
<path d="M11828 522 c-90 -4 -94 -27 -6 -28 35 -1 82 -2 105 -3 46 -2 90 14
63 22 -27 9 -94 13 -162 9z"/>
<path d="M12042 522 c-25 -3 -32 -8 -30 -20 3 -14 13 -17 58 -14 30 1 58 6 62
10 12 12 -50 28 -90 24z"/>
<path d="M2051 464 c0 -11 3 -14 6 -6 3 7 2 16 -1 19 -3 4 -6 -2 -5 -13z"/>
<path d="M3120 391 c0 -5 9 -7 20 -4 11 3 20 7 20 9 0 2 -9 4 -20 4 -11 0 -20
-4 -20 -9z"/>
<path d="M3320 280 c0 -13 5 -20 13 -17 6 2 12 10 12 17 0 7 -6 15 -12 18 -8
2 -13 -5 -13 -18z"/>
<path d="M3860 280 c0 -16 5 -21 23 -18 12 2 22 10 22 18 0 8 -10 16 -22 18
-18 3 -23 -2 -23 -18z"/>
<path d="M3920 293 c0 -12 247 -41 263 -31 9 5 9 10 1 18 -14 14 -264 26 -264
13z"/>
<path d="M3440 276 c0 -13 12 -16 56 -16 73 0 70 24 -4 28 -42 2 -52 0 -52
-12z"/>
<path d="M3710 280 c0 -5 5 -10 10 -10 6 0 10 5 10 10 0 6 -4 10 -10 10 -5 0
-10 -4 -10 -10z"/>
<path d="M3760 280 c0 -5 18 -10 40 -10 22 0 40 5 40 10 0 6 -18 10 -40 10
-22 0 -40 -4 -40 -10z"/>
<path d="M4100 140 c6 -11 15 -20 20 -20 5 0 14 9 20 20 10 18 8 20 -20 20
-28 0 -30 -2 -20 -20z"/>
<path d="M3438 113 c0 -10 0 -28 1 -40 1 -13 -6 -34 -15 -48 l-16 -25 61 0
c34 0 61 4 61 10 0 6 -5 10 -10 10 -11 0 -80 65 -80 75 0 3 18 5 40 5 29 0 40
4 40 15 0 23 -79 21 -82 -2z"/>
<path d="M3885 70 c27 -12 35 -12 35 0 0 6 -12 10 -27 9 -25 0 -26 -1 -8 -9z"/>
<path d="M3630 10 c0 -5 5 -10 10 -10 6 0 10 5 10 10 0 6 -4 10 -10 10 -5 0
-10 -4 -10 -10z"/>
<path d="M3803 3 c9 -2 23 -2 30 0 6 3 -1 5 -18 5 -16 0 -22 -2 -12 -5z"/>
</g>
</svg>
